{"glyphs":{"0":{"ha":929,"x_min":0,"x_max":0,"o":"m 464 -22 b 67 524 219 -22 67 185 b 464 1071 67 865 219 1071 b 863 524 710 1071 863 865 b 464 -22 863 185 710 -22 m 221 524 b 464 1 221 178 308 1 b 708 524 621 1 708 178 b 464 1047 708 872 621 1047 b 221 524 308 1047 221 872 "},"1":{"ha":600,"x_min":0,"x_max":0,"o":"m 101 10 b 265 193 244 25 265 63 l 265 883 b 49 722 231 817 136 731 l 49 803 b 356 1051 211 831 319 949 l 419 1051 l 419 186 b 561 10 419 60 438 24 l 561 0 l 101 0 "},"2":{"ha":868,"x_min":0,"x_max":0,"o":"m 60 18 b 333 360 60 111 132 189 b 642 807 525 522 642 621 b 446 1043 642 953 569 1043 b 194 688 290 1043 192 906 l 58 688 b 469 1072 72 926 231 1072 b 796 794 664 1072 796 976 b 446 360 796 574 621 469 b 133 122 275 251 182 181 l 806 122 l 807 0 l 60 0 l 60 18 "},"3":{"ha":888,"x_min":0,"x_max":0,"o":"m 454 -24 b 57 378 213 -24 65 128 l 83 378 b 397 31 92 158 221 31 b 664 294 574 31 664 142 b 372 543 664 447 569 543 l 267 543 l 267 571 l 372 571 b 640 826 538 571 640 663 b 436 1044 640 946 576 1044 b 186 747 288 1044 199 933 l 57 747 b 463 1071 82 942 240 1071 b 790 818 671 1071 790 963 b 481 563 790 674 671 578 b 825 286 694 553 825 457 b 454 -24 825 113 683 -24 "},"4":{"ha":957,"x_min":0,"x_max":0,"o":"m 463 10 b 583 186 568 24 583 60 l 583 274 l 22 274 l 22 335 l 626 1056 l 731 1056 l 731 381 l 926 381 l 926 274 l 731 274 l 731 186 b 851 10 731 60 746 24 l 851 0 l 463 0 m 583 381 l 583 964 l 97 381 "},"5":{"ha":867,"x_min":0,"x_max":0,"o":"m 428 -24 b 51 336 207 -24 60 113 l 78 336 b 374 31 85 139 222 31 b 647 333 540 31 647 143 b 375 624 647 532 531 624 b 119 515 278 624 182 588 l 99 522 l 175 1051 l 774 1051 l 774 935 l 189 935 l 138 561 b 450 678 214 636 329 678 b 808 335 674 678 808 547 b 428 -24 808 106 650 -24 "},"6":{"ha":938,"x_min":0,"x_max":0,"o":"m 478 -24 b 65 478 206 -24 65 169 b 517 1069 65 832 246 1069 b 876 740 714 1069 850 949 l 850 740 b 564 1022 829 908 719 1022 b 224 464 318 1022 224 757 b 226 371 224 431 225 400 b 546 664 246 542 378 664 b 865 333 721 664 865 543 b 478 -24 865 90 674 -24 m 238 268 b 476 4 268 99 343 4 b 710 315 614 4 710 128 b 482 610 710 513 613 610 b 239 267 319 610 218 451 l 238 268 "},"7":{"ha":732,"x_min":0,"x_max":0,"o":"m 644 929 l 14 929 l 14 1051 l 714 1051 l 714 1028 l 292 0 l 128 0 "},"8":{"ha":996,"x_min":0,"x_max":0,"o":"m 499 -24 b 56 283 257 -24 56 86 b 386 574 56 461 211 556 b 119 819 224 594 119 690 b 499 1072 119 965 256 1072 b 876 819 740 1072 876 965 b 610 574 876 690 772 594 b 940 283 785 556 940 461 b 499 -24 940 86 739 -24 m 219 281 b 499 1 219 114 331 1 b 776 281 665 1 776 115 b 499 560 776 446 674 560 b 219 281 322 560 219 446 m 269 822 b 499 583 269 710 325 583 b 728 822 671 583 728 710 b 499 1050 728 938 664 1050 b 269 822 332 1050 269 938 "},"9":{"ha":938,"x_min":0,"x_max":0,"o":"m 465 1072 b 872 563 731 1072 872 879 b 432 -21 872 218 706 -21 b 75 308 238 -21 101 100 l 101 308 b 388 26 122 140 232 26 b 714 586 633 26 714 292 b 711 679 714 619 713 650 b 389 385 693 510 564 385 b 72 717 217 385 72 506 b 465 1072 72 958 263 1072 m 228 732 b 454 439 228 538 325 439 b 699 782 618 439 719 597 l 699 781 b 467 1044 669 950 593 1044 b 228 732 321 1044 228 921 "}," ":{"ha":369,"x_min":0,"x_max":0,"o":""},"A":{"ha":1092,"x_min":0,"x_max":0,"o":"m -4 8 b 174 172 75 24 129 50 l 457 947 b 435 1051 472 990 464 1022 l 611 1051 l 942 168 b 1096 10 982 63 1015 26 l 1096 0 l 656 0 l 656 8 b 767 165 776 25 801 64 l 696 372 l 282 372 l 210 169 b 303 7 168 53 194 24 l 303 0 l -4 0 l -4 8 m 686 399 l 493 960 l 292 399 "},"Á":{"ha":1092,"x_min":0,"x_max":0,"o":"m -4 8 b 174 172 75 24 129 50 l 457 947 b 435 1051 472 990 464 1022 l 611 1051 l 942 168 b 1096 10 982 63 1015 26 l 1096 0 l 656 0 l 656 8 b 767 165 776 25 801 64 l 696 372 l 282 372 l 210 169 b 303 7 168 53 194 24 l 303 0 l -4 0 l -4 8 m 686 399 l 493 960 l 292 399 m 639 1343 l 774 1343 l 539 1150 l 515 1150 "},"Ă":{"ha":1092,"x_min":0,"x_max":0,"o":"m -4 8 b 174 172 75 24 129 50 l 457 947 b 435 1051 472 990 464 1022 l 611 1051 l 942 168 b 1096 10 982 63 1015 26 l 1096 0 l 656 0 l 656 8 b 767 165 776 25 801 64 l 696 372 l 282 372 l 210 169 b 303 7 168 53 194 24 l 303 0 l -4 0 l -4 8 m 686 399 l 493 960 l 292 399 m 360 1343 b 528 1207 360 1268 408 1207 b 697 1343 649 1207 697 1268 l 725 1343 b 528 1142 725 1208 640 1142 b 331 1343 415 1142 331 1208 "},"Â":{"ha":1092,"x_min":0,"x_max":0,"o":"m -4 8 b 174 172 75 24 129 50 l 457 947 b 435 1051 472 990 464 1022 l 611 1051 l 942 168 b 1096 10 982 63 1015 26 l 1096 0 l 656 0 l 656 8 b 767 165 776 25 801 64 l 696 372 l 282 372 l 210 169 b 303 7 168 53 194 24 l 303 0 l -4 0 l -4 8 m 686 399 l 493 960 l 292 399 m 499 1343 l 556 1343 l 728 1150 l 706 1150 l 528 1276 l 349 1150 l 326 1150 "},"Ä":{"ha":1092,"x_min":0,"x_max":0,"o":"m -4 8 b 174 172 75 24 129 50 l 457 947 b 435 1051 472 990 464 1022 l 611 1051 l 942 168 b 1096 10 982 63 1015 26 l 1096 0 l 656 0 l 656 8 b 767 165 776 25 801 64 l 696 372 l 282 372 l 210 169 b 303 7 168 53 194 24 l 303 0 l -4 0 l -4 8 m 686 399 l 493 960 l 292 399 m 343 1314 l 458 1314 l 458 1169 l 343 1169 m 596 1314 l 711 1314 l 711 1169 l 596 1169 "},"À":{"ha":1092,"x_min":0,"x_max":0,"o":"m -4 8 b 174 172 75 24 129 50 l 457 947 b 435 1051 472 990 464 1022 l 611 1051 l 942 168 b 1096 10 982 63 1015 26 l 1096 0 l 656 0 l 656 8 b 767 165 776 25 801 64 l 696 372 l 282 372 l 210 169 b 303 7 168 53 194 24 l 303 0 l -4 0 l -4 8 m 415 1343 l 539 1150 l 515 1150 l 281 1343 m 686 399 l 493 960 l 292 399 "},"Ā":{"ha":1092,"x_min":0,"x_max":0,"o":"m -4 8 b 174 172 75 24 129 50 l 457 947 b 435 1051 472 990 464 1022 l 611 1051 l 942 168 b 1096 10 982 63 1015 26 l 1096 0 l 656 0 l 656 8 b 767 165 776 25 801 64 l 696 372 l 282 372 l 210 169 b 303 7 168 53 194 24 l 303 0 l -4 0 l -4 8 m 290 1250 l 767 1250 l 767 1211 l 290 1211 m 686 399 l 493 960 l 292 399 "},"Ą":{"ha":1092,"x_min":0,"x_max":0,"o":"m -4 8 b 174 172 75 24 129 50 l 457 947 b 435 1051 472 990 464 1022 l 611 1051 l 942 168 b 1096 10 982 63 1015 26 l 1096 0 l 931 0 b 825 -185 888 -29 825 -94 b 913 -283 825 -244 857 -283 b 1003 -217 947 -283 983 -258 l 1003 -240 b 874 -328 976 -293 929 -328 b 750 -204 808 -328 750 -287 b 910 0 750 -103 840 -31 l 656 0 l 656 8 b 767 165 776 25 801 64 l 696 372 l 282 372 l 210 169 b 303 7 168 53 194 24 l 303 0 l -4 0 l -4 8 m 686 399 l 493 960 l 292 399 "},"Å":{"ha":1092,"x_min":0,"x_max":0,"o":"m -4 8 b 174 172 75 24 129 50 l 457 947 b 435 1051 472 990 464 1022 l 611 1051 l 942 168 b 1096 10 982 63 1015 26 l 1096 0 l 656 0 l 656 8 b 767 165 776 25 801 64 l 696 372 l 282 372 l 210 169 b 303 7 168 53 194 24 l 303 0 l -4 0 l -4 8 m 686 399 l 493 960 l 292 399 m 392 1258 b 528 1388 392 1335 447 1388 b 664 1258 607 1388 664 1335 b 528 1129 664 1182 607 1129 b 392 1258 447 1129 392 1182 m 426 1258 b 528 1157 426 1197 467 1157 b 629 1258 589 1157 629 1197 b 528 1360 629 1319 589 1360 b 426 1258 467 1360 426 1319 "},"Ã":{"ha":1092,"x_min":0,"x_max":0,"o":"m -4 8 b 174 172 75 24 129 50 l 457 947 b 435 1051 472 990 464 1022 l 611 1051 l 942 168 b 1096 10 982 63 1015 26 l 1096 0 l 656 0 l 656 8 b 767 165 776 25 801 64 l 696 372 l 282 372 l 210 169 b 303 7 168 53 194 24 l 303 0 l -4 0 l -4 8 m 686 399 l 493 960 l 292 399 m 315 1163 b 438 1349 315 1296 368 1349 b 644 1224 543 1349 556 1224 b 711 1333 693 1224 708 1258 l 739 1333 b 622 1147 739 1190 688 1147 b 413 1274 510 1147 500 1274 b 343 1163 360 1274 346 1229 l 315 1163 "},"Æ":{"ha":1322,"x_min":0,"x_max":0,"o":"m -89 10 b 89 175 -14 21 24 56 l 564 1029 b 507 1042 549 1035 531 1039 l 507 1051 l 1249 1051 l 1249 913 b 876 1025 1072 988 979 1025 l 785 1025 l 785 564 l 849 564 b 1175 579 924 564 1069 572 l 1175 524 b 849 539 1069 532 924 539 l 785 539 l 785 26 l 921 28 b 1290 153 1047 29 1151 76 l 1290 0 l 507 0 l 507 10 b 629 186 614 24 629 60 l 629 379 l 242 379 l 129 175 b 168 10 63 53 74 18 l 168 0 l -89 0 l -89 10 m 629 406 l 629 865 b 592 1017 629 951 624 993 l 256 406 "},"Ǽ":{"ha":1322,"x_min":0,"x_max":0,"o":"m -89 10 b 89 175 -14 21 24 56 l 564 1029 b 507 1042 549 1035 531 1039 l 507 1051 l 1249 1051 l 1249 913 b 876 1025 1072 988 979 1025 l 785 1025 l 785 564 l 849 564 b 1175 579 924 564 1069 572 l 1175 524 b 849 539 1069 532 924 539 l 785 539 l 785 26 l 921 28 b 1290 153 1047 29 1151 76 l 1290 0 l 507 0 l 507 10 b 629 186 614 24 629 60 l 629 379 l 242 379 l 129 175 b 168 10 63 53 74 18 l 168 0 l -89 0 l -89 10 m 629 406 l 629 865 b 592 1017 629 951 624 993 l 256 406 m 786 1343 l 921 1343 l 686 1150 l 663 1150 "},"B":{"ha":974,"x_min":0,"x_max":0,"o":"m 40 10 b 163 186 147 24 163 60 l 163 865 b 40 1042 163 1001 147 1028 l 40 1051 l 446 1051 b 865 815 668 1051 865 1000 b 542 583 865 669 733 599 l 542 578 b 926 297 735 564 926 490 b 467 0 926 68 715 0 l 40 0 m 443 25 b 758 296 606 25 758 78 b 439 568 758 486 621 568 l 315 568 l 315 25 m 439 593 b 708 814 585 593 708 663 b 425 1026 708 979 576 1026 l 315 1026 l 315 593 "},"C":{"ha":1139,"x_min":0,"x_max":0,"o":"m 579 -18 b 56 517 247 -18 56 218 b 597 1064 56 846 286 1064 b 1086 696 839 1064 1025 935 l 938 696 b 599 1039 900 894 786 1039 b 224 553 361 1039 224 813 b 635 65 224 278 357 65 b 1072 464 879 65 1032 221 l 1094 464 b 579 -18 1056 181 881 -18 "},"Ć":{"ha":1139,"x_min":0,"x_max":0,"o":"m 579 -18 b 56 517 247 -18 56 218 b 597 1064 56 846 286 1064 b 1086 696 839 1064 1025 935 l 938 696 b 599 1039 900 894 786 1039 b 224 553 361 1039 224 813 b 635 65 224 278 357 65 b 1072 464 879 65 1032 221 l 1094 464 b 579 -18 1056 181 881 -18 m 685 1339 l 819 1339 l 585 1146 l 561 1146 "},"Č":{"ha":1139,"x_min":0,"x_max":0,"o":"m 579 -18 b 56 517 247 -18 56 218 b 597 1064 56 846 286 1064 b 1086 696 839 1064 1025 935 l 938 696 b 599 1039 900 894 786 1039 b 224 553 361 1039 224 813 b 635 65 224 278 357 65 b 1072 464 879 65 1032 221 l 1094 464 b 579 -18 1056 181 881 -18 m 388 1339 l 574 1215 l 760 1339 l 782 1339 l 600 1146 l 546 1146 l 365 1339 "},"Ç":{"ha":1139,"x_min":0,"x_max":0,"o":"m 579 -18 b 56 517 247 -18 56 218 b 597 1064 56 846 286 1064 b 1086 696 839 1064 1025 935 l 938 696 b 599 1039 900 894 786 1039 b 224 553 361 1039 224 813 b 635 65 224 278 357 65 b 1072 464 879 65 1032 221 l 1094 464 b 626 -17 1057 196 899 3 l 571 -94 b 610 -92 583 -93 596 -92 b 753 -210 696 -92 753 -137 b 594 -335 753 -301 665 -335 b 421 -253 525 -335 456 -310 l 436 -240 b 574 -303 461 -279 511 -303 b 674 -224 624 -303 674 -285 b 572 -143 674 -171 633 -143 b 511 -153 551 -143 535 -146 l 499 -136 l 583 -18 l 579 -18 "},"Ĉ":{"ha":1139,"x_min":0,"x_max":0,"o":"m 579 -18 b 56 517 247 -18 56 218 b 597 1064 56 846 286 1064 b 1086 696 839 1064 1025 935 l 938 696 b 599 1039 900 894 786 1039 b 224 553 361 1039 224 813 b 635 65 224 278 357 65 b 1072 464 879 65 1032 221 l 1094 464 b 579 -18 1056 181 881 -18 m 544 1339 l 601 1339 l 774 1146 l 751 1146 l 574 1272 l 394 1146 l 372 1146 "},"Ċ":{"ha":1139,"x_min":0,"x_max":0,"o":"m 579 -18 b 56 517 247 -18 56 218 b 597 1064 56 846 286 1064 b 1086 696 839 1064 1025 935 l 938 696 b 599 1039 900 894 786 1039 b 224 553 361 1039 224 813 b 635 65 224 278 357 65 b 1072 464 879 65 1032 221 l 1094 464 b 579 -18 1056 181 881 -18 m 515 1310 l 631 1310 l 631 1165 l 515 1165 "},"D":{"ha":1174,"x_min":0,"x_max":0,"o":"m 40 10 b 163 186 147 24 163 60 l 163 865 b 40 1042 163 1001 147 1028 l 40 1051 l 504 1051 b 1115 525 878 1051 1115 876 b 504 0 1115 189 885 0 l 40 0 m 490 25 b 947 525 760 25 947 197 b 490 1026 947 868 760 1026 l 318 1026 l 318 25 "},"Ð":{"ha":1174,"x_min":0,"x_max":0,"o":"m 40 10 b 163 186 147 24 163 60 l 163 533 l 43 533 l 43 560 l 163 560 l 163 865 b 40 1042 163 1001 147 1028 l 40 1051 l 504 1051 b 1115 525 878 1051 1115 876 b 504 0 1115 189 885 0 l 40 0 m 490 25 b 947 525 760 25 947 197 b 490 1026 947 868 760 1026 l 318 1026 l 318 560 l 661 560 l 661 533 l 318 533 l 318 25 "},"Ď":{"ha":1174,"x_min":0,"x_max":0,"o":"m 40 10 b 163 186 147 24 163 60 l 163 865 b 40 1042 163 1001 147 1028 l 40 1051 l 504 1051 b 1115 525 878 1051 1115 876 b 504 0 1115 189 885 0 l 40 0 m 490 25 b 947 525 760 25 947 197 b 490 1026 947 868 760 1026 l 318 1026 l 318 25 m 350 1343 l 536 1219 l 722 1343 l 744 1343 l 563 1150 l 508 1150 l 328 1343 "},"Đ":{"ha":1174,"x_min":0,"x_max":0,"o":"m 40 10 b 163 186 147 24 163 60 l 163 533 l 43 533 l 43 560 l 163 560 l 163 865 b 40 1042 163 1001 147 1028 l 40 1051 l 504 1051 b 1115 525 878 1051 1115 876 b 504 0 1115 189 885 0 l 40 0 m 490 25 b 947 525 760 25 947 197 b 490 1026 947 868 760 1026 l 318 1026 l 318 560 l 661 560 l 661 533 l 318 533 l 318 25 "},"E":{"ha":856,"x_min":0,"x_max":0,"o":"m 40 10 b 163 186 147 24 163 60 l 163 865 b 40 1042 163 1001 147 1028 l 40 1051 l 782 1051 l 782 913 b 410 1025 606 988 513 1025 l 318 1025 l 318 564 l 382 564 b 708 579 457 564 603 572 l 708 524 b 382 539 603 532 457 539 l 318 539 l 318 26 l 454 28 b 824 153 581 29 685 76 l 824 0 l 40 0 "},"É":{"ha":856,"x_min":0,"x_max":0,"o":"m 40 10 b 163 186 147 24 163 60 l 163 865 b 40 1042 163 1001 147 1028 l 40 1051 l 782 1051 l 782 913 b 410 1025 606 988 513 1025 l 318 1025 l 318 564 l 382 564 b 708 579 457 564 603 572 l 708 524 b 382 539 603 532 457 539 l 318 539 l 318 26 l 454 28 b 824 153 581 29 685 76 l 824 0 l 40 0 m 560 1343 l 694 1343 l 460 1150 l 436 1150 "},"Ě":{"ha":856,"x_min":0,"x_max":0,"o":"m 40 10 b 163 186 147 24 163 60 l 163 865 b 40 1042 163 1001 147 1028 l 40 1051 l 782 1051 l 782 913 b 410 1025 606 988 513 1025 l 318 1025 l 318 564 l 382 564 b 708 579 457 564 603 572 l 708 524 b 382 539 603 532 457 539 l 318 539 l 318 26 l 454 28 b 824 153 581 29 685 76 l 824 0 l 40 0 m 263 1343 l 449 1219 l 635 1343 l 657 1343 l 475 1150 l 421 1150 l 240 1343 "},"Ê":{"ha":856,"x_min":0,"x_max":0,"o":"m 40 10 b 163 186 147 24 163 60 l 163 865 b 40 1042 163 1001 147 1028 l 40 1051 l 782 1051 l 782 913 b 410 1025 606 988 513 1025 l 318 1025 l 318 564 l 382 564 b 708 579 457 564 603 572 l 708 524 b 382 539 603 532 457 539 l 318 539 l 318 26 l 454 28 b 824 153 581 29 685 76 l 824 0 l 40 0 m 419 1343 l 476 1343 l 649 1150 l 626 1150 l 449 1276 l 269 1150 l 247 1150 "},"Ë":{"ha":856,"x_min":0,"x_max":0,"o":"m 40 10 b 163 186 147 24 163 60 l 163 865 b 40 1042 163 1001 147 1028 l 40 1051 l 782 1051 l 782 913 b 410 1025 606 988 513 1025 l 318 1025 l 318 564 l 382 564 b 708 579 457 564 603 572 l 708 524 b 382 539 603 532 457 539 l 318 539 l 318 26 l 454 28 b 824 153 581 29 685 76 l 824 0 l 40 0 m 264 1314 l 379 1314 l 379 1169 l 264 1169 m 517 1314 l 632 1314 l 632 1169 l 517 1169 "},"Ė":{"ha":856,"x_min":0,"x_max":0,"o":"m 40 10 b 163 186 147 24 163 60 l 163 865 b 40 1042 163 1001 147 1028 l 40 1051 l 782 1051 l 782 913 b 410 1025 606 988 513 1025 l 318 1025 l 318 564 l 382 564 b 708 579 457 564 603 572 l 708 524 b 382 539 603 532 457 539 l 318 539 l 318 26 l 454 28 b 824 153 581 29 685 76 l 824 0 l 40 0 m 390 1314 l 506 1314 l 506 1169 l 390 1169 "},"È":{"ha":856,"x_min":0,"x_max":0,"o":"m 40 10 b 163 186 147 24 163 60 l 163 865 b 40 1042 163 1001 147 1028 l 40 1051 l 782 1051 l 782 913 b 410 1025 606 988 513 1025 l 318 1025 l 318 564 l 382 564 b 708 579 457 564 603 572 l 708 524 b 382 539 603 532 457 539 l 318 539 l 318 26 l 454 28 b 824 153 581 29 685 76 l 824 0 l 40 0 m 336 1343 l 460 1150 l 436 1150 l 201 1343 "},"Ē":{"ha":856,"x_min":0,"x_max":0,"o":"m 40 10 b 163 186 147 24 163 60 l 163 865 b 40 1042 163 1001 147 1028 l 40 1051 l 782 1051 l 782 913 b 410 1025 606 988 513 1025 l 318 1025 l 318 564 l 382 564 b 708 579 457 564 603 572 l 708 524 b 382 539 603 532 457 539 l 318 539 l 318 26 l 454 28 b 824 153 581 29 685 76 l 824 0 l 40 0 m 211 1250 l 688 1250 l 688 1211 l 211 1211 "},"Ę":{"ha":856,"x_min":0,"x_max":0,"o":"m 40 10 b 163 186 147 24 163 60 l 163 865 b 40 1042 163 1001 147 1028 l 40 1051 l 782 1051 l 782 913 b 410 1025 606 988 513 1025 l 318 1025 l 318 564 l 382 564 b 708 579 457 564 603 572 l 708 524 b 382 539 603 532 457 539 l 318 539 l 318 26 l 454 28 b 824 153 581 29 685 76 l 824 0 l 768 0 b 663 -185 725 -29 663 -94 b 750 -283 663 -244 694 -283 b 840 -217 785 -283 821 -258 l 840 -240 b 711 -328 814 -293 767 -328 b 588 -204 646 -328 588 -287 b 747 0 588 -103 678 -31 l 40 0 "},"Ẽ":{"ha":856,"x_min":0,"x_max":0,"o":"m 40 10 b 163 186 147 24 163 60 l 163 865 b 40 1042 163 1001 147 1028 l 40 1051 l 782 1051 l 782 913 b 410 1025 606 988 513 1025 l 318 1025 l 318 564 l 382 564 b 708 579 457 564 603 572 l 708 524 b 382 539 603 532 457 539 l 318 539 l 318 26 l 454 28 b 824 153 581 29 685 76 l 824 0 l 40 0 m 236 1163 b 358 1349 236 1296 289 1349 b 565 1224 464 1349 476 1224 b 632 1333 614 1224 629 1258 l 660 1333 b 543 1147 660 1190 608 1147 b 333 1274 431 1147 421 1274 b 264 1163 281 1274 267 1229 l 236 1163 "},"Ə":{"ha":1133,"x_min":0,"x_max":0,"o":"m 547 -24 b 56 411 239 -24 60 185 l 907 411 b 911 504 910 442 911 472 b 510 989 911 789 779 989 b 79 631 283 989 131 839 l 56 631 b 564 1061 114 907 307 1061 b 1078 522 863 1061 1078 853 b 547 -24 1078 185 853 -24 m 222 385 b 554 10 225 172 347 10 b 903 385 753 10 872 163 l 222 385 "},"F":{"ha":836,"x_min":0,"x_max":0,"o":"m 803 913 b 432 1025 626 988 533 1025 l 318 1025 l 318 592 l 424 592 b 722 607 493 592 625 600 l 722 551 b 424 567 625 560 493 567 l 318 567 l 318 186 b 453 10 318 60 335 24 l 453 0 l 40 0 l 40 10 b 163 186 147 24 163 60 l 163 865 b 40 1042 163 1001 147 1028 l 40 1051 l 803 1051 l 803 913 "},"G":{"ha":1214,"x_min":0,"x_max":0,"o":"m 556 -19 b 56 507 240 -19 56 213 b 622 1069 56 849 294 1069 b 1111 729 867 1069 1056 943 l 961 729 b 619 1046 921 922 806 1046 b 224 549 379 1046 224 833 b 624 58 224 272 360 58 b 999 499 836 58 979 231 l 503 499 l 503 526 l 1128 526 l 1128 -17 l 1104 -17 l 997 311 b 556 -19 938 121 786 -19 "},"Ğ":{"ha":1214,"x_min":0,"x_max":0,"o":"m 556 -19 b 56 507 240 -19 56 213 b 622 1069 56 849 294 1069 b 1111 729 867 1069 1056 943 l 961 729 b 619 1046 921 922 806 1046 b 224 549 379 1046 224 833 b 624 58 224 272 360 58 b 999 499 836 58 979 231 l 503 499 l 503 526 l 1128 526 l 1128 -17 l 1104 -17 l 997 311 b 556 -19 938 121 786 -19 m 456 1339 b 624 1203 456 1264 504 1203 b 793 1339 744 1203 793 1264 l 821 1339 b 624 1138 821 1204 736 1138 b 426 1339 511 1138 426 1204 "},"Ǧ":{"ha":1214,"x_min":0,"x_max":0,"o":"m 556 -19 b 56 507 240 -19 56 213 b 622 1069 56 849 294 1069 b 1111 729 867 1069 1056 943 l 961 729 b 619 1046 921 922 806 1046 b 224 549 379 1046 224 833 b 624 58 224 272 360 58 b 999 499 836 58 979 231 l 503 499 l 503 526 l 1128 526 l 1128 -17 l 1104 -17 l 997 311 b 556 -19 938 121 786 -19 m 438 1339 l 624 1215 l 810 1339 l 832 1339 l 650 1146 l 596 1146 l 415 1339 "},"Ĝ":{"ha":1214,"x_min":0,"x_max":0,"o":"m 556 -19 b 56 507 240 -19 56 213 b 622 1069 56 849 294 1069 b 1111 729 867 1069 1056 943 l 961 729 b 619 1046 921 922 806 1046 b 224 549 379 1046 224 833 b 624 58 224 272 360 58 b 999 499 836 58 979 231 l 503 499 l 503 526 l 1128 526 l 1128 -17 l 1104 -17 l 997 311 b 556 -19 938 121 786 -19 m 594 1339 l 651 1339 l 824 1146 l 801 1146 l 624 1272 l 444 1146 l 422 1146 "},"Ģ":{"ha":1214,"x_min":0,"x_max":0,"o":"m 556 -19 b 56 507 240 -19 56 213 b 622 1069 56 849 294 1069 b 1111 729 867 1069 1056 943 l 961 729 b 619 1046 921 922 806 1046 b 224 549 379 1046 224 833 b 624 58 224 272 360 58 b 999 499 836 58 979 231 l 503 499 l 503 526 l 1128 526 l 1128 -17 l 1104 -17 l 997 311 b 556 -19 938 121 786 -19 m 515 -87 l 636 -87 l 449 -340 l 436 -336 "},"Ġ":{"ha":1214,"x_min":0,"x_max":0,"o":"m 556 -19 b 56 507 240 -19 56 213 b 622 1069 56 849 294 1069 b 1111 729 867 1069 1056 943 l 961 729 b 619 1046 921 922 806 1046 b 224 549 379 1046 224 833 b 624 58 224 272 360 58 b 999 499 836 58 979 231 l 503 499 l 503 526 l 1128 526 l 1128 -17 l 1104 -17 l 997 311 b 556 -19 938 121 786 -19 m 565 1310 l 681 1310 l 681 1165 l 565 1165 "},"H":{"ha":1143,"x_min":0,"x_max":0,"o":"m 40 10 b 163 186 147 24 163 60 l 163 865 b 40 1042 163 1001 147 1028 l 40 1051 l 440 1051 l 440 1042 b 318 865 333 1028 318 1001 l 318 569 l 826 569 l 826 865 b 704 1042 826 1001 811 1028 l 704 1051 l 1103 1051 l 1103 1042 b 981 865 996 1028 981 1001 l 981 186 b 1103 10 981 60 996 24 l 1103 0 l 704 0 l 704 10 b 826 186 811 24 826 60 l 826 543 l 318 543 l 318 186 b 440 10 318 60 333 24 l 440 0 l 40 0 "},"Ħ":{"ha":1143,"x_min":0,"x_max":0,"o":"m -1 847 l 163 847 l 163 865 b 40 1042 163 1001 147 1028 l 40 1051 l 440 1051 l 440 1042 b 318 865 333 1028 318 1001 l 318 847 l 826 849 l 826 865 b 704 1042 826 1001 811 1028 l 704 1051 l 1103 1051 l 1103 1042 b 981 865 996 1028 981 1001 l 981 849 l 1144 849 l 1144 822 l 981 822 l 981 186 b 1103 10 981 60 996 24 l 1103 0 l 704 0 l 704 10 b 826 186 811 24 826 60 l 826 543 l 318 543 l 318 186 b 440 10 318 60 333 24 l 440 0 l 40 0 l 40 10 b 163 186 147 24 163 60 l 163 822 l -1 822 m 826 569 l 826 822 l 318 822 l 318 569 "},"Ĥ":{"ha":1143,"x_min":0,"x_max":0,"o":"m 40 10 b 163 186 147 24 163 60 l 163 865 b 40 1042 163 1001 147 1028 l 40 1051 l 440 1051 l 440 1042 b 318 865 333 1028 318 1001 l 318 569 l 826 569 l 826 865 b 704 1042 826 1001 811 1028 l 704 1051 l 1103 1051 l 1103 1042 b 981 865 996 1028 981 1001 l 981 186 b 1103 10 981 60 996 24 l 1103 0 l 704 0 l 704 10 b 826 186 811 24 826 60 l 826 543 l 318 543 l 318 186 b 440 10 318 60 333 24 l 440 0 l 40 0 m 543 1343 l 600 1343 l 772 1150 l 750 1150 l 572 1276 l 393 1150 l 371 1150 "},"I":{"ha":481,"x_min":0,"x_max":0,"o":"m 40 10 b 163 186 147 24 163 60 l 163 865 b 40 1042 163 1001 147 1028 l 40 1051 l 440 1051 l 440 1042 b 318 865 333 1028 318 1001 l 318 186 b 440 10 318 60 333 24 l 440 0 l 40 0 "},"Ĳ":{"ha":951,"x_min":0,"x_max":0,"o":"m 40 10 b 163 186 147 24 163 60 l 163 865 b 40 1042 163 1001 147 1028 l 40 1051 l 440 1051 l 440 1042 b 318 865 333 1028 318 1001 l 318 186 b 440 10 318 60 333 24 l 440 0 l 40 0 m 513 -190 b 643 106 615 -157 643 -85 l 643 865 b 521 1042 643 1001 628 1028 l 521 1051 l 919 1051 l 919 1042 b 797 865 813 1028 797 1001 l 797 111 b 513 -206 797 -81 699 -185 "},"Í":{"ha":481,"x_min":0,"x_max":0,"o":"m 40 10 b 163 186 147 24 163 60 l 163 865 b 40 1042 163 1001 147 1028 l 40 1051 l 440 1051 l 440 1042 b 318 865 333 1028 318 1001 l 318 186 b 440 10 318 60 333 24 l 440 0 l 40 0 m 351 1332 l 486 1332 l 251 1139 l 228 1139 "},"Î":{"ha":481,"x_min":0,"x_max":0,"o":"m 40 10 b 163 186 147 24 163 60 l 163 865 b 40 1042 163 1001 147 1028 l 40 1051 l 440 1051 l 440 1042 b 318 865 333 1028 318 1001 l 318 186 b 440 10 318 60 333 24 l 440 0 l 40 0 m 211 1332 l 268 1332 l 440 1139 l 418 1139 l 240 1265 l 61 1139 l 39 1139 "},"Ï":{"ha":481,"x_min":0,"x_max":0,"o":"m 40 10 b 163 186 147 24 163 60 l 163 865 b 40 1042 163 1001 147 1028 l 40 1051 l 440 1051 l 440 1042 b 318 865 333 1028 318 1001 l 318 186 b 440 10 318 60 333 24 l 440 0 l 40 0 m 56 1303 l 171 1303 l 171 1158 l 56 1158 m 308 1303 l 424 1303 l 424 1158 l 308 1158 "},"İ":{"ha":481,"x_min":0,"x_max":0,"o":"m 40 10 b 163 186 147 24 163 60 l 163 865 b 40 1042 163 1001 147 1028 l 40 1051 l 440 1051 l 440 1042 b 318 865 333 1028 318 1001 l 318 186 b 440 10 318 60 333 24 l 440 0 l 40 0 m 158 1303 l 324 1303 l 324 1158 l 158 1158 "},"Ì":{"ha":481,"x_min":0,"x_max":0,"o":"m 40 10 b 163 186 147 24 163 60 l 163 865 b 40 1042 163 1001 147 1028 l 40 1051 l 440 1051 l 440 1042 b 318 865 333 1028 318 1001 l 318 186 b 440 10 318 60 333 24 l 440 0 l 40 0 m 128 1332 l 251 1139 l 228 1139 l -7 1332 "},"Ī":{"ha":481,"x_min":0,"x_max":0,"o":"m 40 10 b 163 186 147 24 163 60 l 163 865 b 40 1042 163 1001 147 1028 l 40 1051 l 440 1051 l 440 1042 b 318 865 333 1028 318 1001 l 318 186 b 440 10 318 60 333 24 l 440 0 l 40 0 m 3 1239 l 479 1239 l 479 1200 l 3 1200 "},"Į":{"ha":481,"x_min":0,"x_max":0,"o":"m 40 10 b 163 186 147 24 163 60 l 163 865 b 40 1042 163 1001 147 1028 l 40 1051 l 440 1051 l 440 1042 b 318 865 333 1028 318 1001 l 318 186 b 440 10 318 60 333 24 l 440 0 l 322 0 b 217 -185 279 -29 217 -94 b 304 -283 217 -244 249 -283 b 394 -217 339 -283 375 -258 l 394 -240 b 265 -328 368 -293 321 -328 b 142 -204 200 -328 142 -287 b 301 0 142 -103 232 -31 l 40 0 "},"Ĩ":{"ha":481,"x_min":0,"x_max":0,"o":"m 40 10 b 163 186 147 24 163 60 l 163 865 b 40 1042 163 1001 147 1028 l 40 1051 l 440 1051 l 440 1042 b 318 865 333 1028 318 1001 l 318 186 b 440 10 318 60 333 24 l 440 0 l 40 0 m 28 1151 b 150 1338 28 1285 81 1338 b 357 1213 256 1338 268 1213 b 424 1322 406 1213 421 1247 l 451 1322 b 335 1136 451 1179 400 1136 b 125 1263 222 1136 213 1263 b 56 1151 72 1263 58 1218 l 28 1151 "},"J":{"ha":471,"x_min":0,"x_max":0,"o":"m 32 -190 b 163 106 135 -157 163 -85 l 163 865 b 40 1042 163 1001 147 1028 l 40 1051 l 439 1051 l 439 1042 b 317 865 332 1028 317 1001 l 317 111 b 32 -206 317 -81 218 -185 l 32 -190 "},"Ĵ":{"ha":471,"x_min":0,"x_max":0,"o":"m 32 -190 b 163 106 135 -157 163 -85 l 163 865 b 40 1042 163 1001 147 1028 l 40 1051 l 439 1051 l 439 1042 b 317 865 332 1028 317 1001 l 317 111 b 32 -206 317 -81 218 -185 l 32 -190 m 210 1343 l 267 1343 l 439 1150 l 417 1150 l 239 1276 l 60 1150 l 38 1150 "},"K":{"ha":990,"x_min":0,"x_max":0,"o":"m 40 10 b 163 186 147 24 163 60 l 163 865 b 40 1042 163 1001 147 1028 l 40 1051 l 440 1051 l 440 1042 b 318 865 333 1028 318 1001 l 318 499 l 681 896 b 782 1051 736 957 768 1013 l 981 1051 l 981 1042 b 769 938 885 1026 831 1003 l 490 643 l 1001 8 l 1001 0 l 806 0 l 406 553 l 318 461 l 318 186 b 440 10 318 60 333 24 l 440 0 l 40 0 "},"Ķ":{"ha":990,"x_min":0,"x_max":0,"o":"m 40 10 b 163 186 147 24 163 60 l 163 865 b 40 1042 163 1001 147 1028 l 40 1051 l 440 1051 l 440 1042 b 318 865 333 1028 318 1001 l 318 499 l 681 896 b 782 1051 736 957 768 1013 l 981 1051 l 981 1042 b 769 938 885 1026 831 1003 l 490 643 l 1001 8 l 1001 0 l 806 0 l 406 553 l 318 461 l 318 186 b 440 10 318 60 333 24 l 440 0 l 40 0 m 519 -83 l 640 -83 l 453 -336 l 440 -332 "},"L":{"ha":832,"x_min":0,"x_max":0,"o":"m 40 10 b 163 186 147 24 163 60 l 163 865 b 40 1042 163 1001 147 1028 l 40 1051 l 440 1051 l 440 1042 b 318 865 333 1028 318 1001 l 318 26 l 436 26 b 806 153 563 26 667 76 l 806 0 l 40 0 "},"Ĺ":{"ha":832,"x_min":0,"x_max":0,"o":"m 40 10 b 163 186 147 24 163 60 l 163 865 b 40 1042 163 1001 147 1028 l 40 1051 l 440 1051 l 440 1042 b 318 865 333 1028 318 1001 l 318 26 l 436 26 b 806 153 563 26 667 76 l 806 0 l 40 0 m 336 1343 l 471 1343 l 236 1150 l 213 1150 "},"Ľ":{"ha":832,"x_min":0,"x_max":0,"o":"m 40 10 b 163 186 147 24 163 60 l 163 865 b 40 1042 163 1001 147 1028 l 40 1051 l 440 1051 l 440 1042 b 318 865 333 1028 318 1001 l 318 26 l 436 26 b 806 153 563 26 667 76 l 806 0 l 40 0 m 561 1051 l 665 1051 l 524 725 l 507 725 "},"Ļ":{"ha":832,"x_min":0,"x_max":0,"o":"m 40 10 b 163 186 147 24 163 60 l 163 865 b 40 1042 163 1001 147 1028 l 40 1051 l 440 1051 l 440 1042 b 318 865 333 1028 318 1001 l 318 26 l 436 26 b 806 153 563 26 667 76 l 806 0 l 40 0 m 392 -83 l 513 -83 l 325 -336 l 313 -332 "},"Ŀ":{"ha":832,"x_min":0,"x_max":0,"o":"m 40 10 b 163 186 147 24 163 60 l 163 865 b 40 1042 163 1001 147 1028 l 40 1051 l 440 1051 l 440 1042 b 318 865 333 1028 318 1001 l 318 26 l 436 26 b 806 153 563 26 667 76 l 806 0 l 40 0 m 565 603 l 681 603 l 681 458 l 565 458 "},"Ł":{"ha":832,"x_min":0,"x_max":0,"o":"m 40 10 b 163 186 147 24 163 60 l 163 440 l -22 340 l -22 375 l 163 475 l 163 865 b 40 1042 163 1001 147 1028 l 40 1051 l 440 1051 l 440 1042 b 318 865 333 1028 318 1001 l 318 558 l 593 707 l 593 674 l 318 525 l 318 26 l 436 26 b 806 153 563 26 667 76 l 806 0 l 40 0 "},"M":{"ha":1332,"x_min":0,"x_max":0,"o":"m 194 940 l 194 186 b 335 10 194 60 213 24 l 335 0 l 33 0 l 33 10 b 164 186 147 24 164 60 l 164 865 b 46 1042 164 1001 149 1028 l 46 1051 l 317 1051 l 672 188 l 1017 1051 l 1288 1051 l 1288 1042 b 1169 865 1185 1028 1169 1001 l 1169 186 b 1292 10 1169 60 1185 24 l 1292 0 l 890 0 l 890 10 b 1021 186 1004 24 1021 60 l 1021 975 l 625 -14 l 592 -14 "},"N":{"ha":1046,"x_min":0,"x_max":0,"o":"m 179 906 l 179 200 b 335 10 179 64 199 25 l 335 0 l 39 0 l 39 10 b 151 200 138 25 151 64 l 151 865 b 100 1042 151 1001 144 1028 l 100 1051 l 267 1051 l 867 144 l 867 851 b 722 1042 867 988 849 1026 l 722 1051 l 1008 1051 l 1008 1042 b 896 851 910 1026 896 988 l 896 0 l 776 0 "},"Ń":{"ha":1046,"x_min":0,"x_max":0,"o":"m 179 906 l 179 200 b 335 10 179 64 199 25 l 335 0 l 39 0 l 39 10 b 151 200 138 25 151 64 l 151 865 b 100 1042 151 1001 144 1028 l 100 1051 l 267 1051 l 867 144 l 867 851 b 722 1042 867 988 849 1026 l 722 1051 l 1008 1051 l 1008 1042 b 896 851 910 1026 896 988 l 896 0 l 776 0 m 649 1343 l 783 1343 l 549 1150 l 525 1150 "},"Ň":{"ha":1046,"x_min":0,"x_max":0,"o":"m 179 906 l 179 200 b 335 10 179 64 199 25 l 335 0 l 39 0 l 39 10 b 151 200 138 25 151 64 l 151 865 b 100 1042 151 1001 144 1028 l 100 1051 l 267 1051 l 867 144 l 867 851 b 722 1042 867 988 849 1026 l 722 1051 l 1008 1051 l 1008 1042 b 896 851 910 1026 896 988 l 896 0 l 776 0 m 351 1343 l 538 1219 l 724 1343 l 746 1343 l 564 1150 l 510 1150 l 329 1343 "},"Ņ":{"ha":1046,"x_min":0,"x_max":0,"o":"m 179 906 l 179 200 b 335 10 179 64 199 25 l 335 0 l 39 0 l 39 10 b 151 200 138 25 151 64 l 151 865 b 100 1042 151 1001 144 1028 l 100 1051 l 267 1051 l 867 144 l 867 851 b 722 1042 867 988 849 1026 l 722 1051 l 1008 1051 l 1008 1042 b 896 851 910 1026 896 988 l 896 0 l 776 0 m 464 -83 l 585 -83 l 397 -336 l 385 -332 "},"Ñ":{"ha":1046,"x_min":0,"x_max":0,"o":"m 179 906 l 179 200 b 335 10 179 64 199 25 l 335 0 l 39 0 l 39 10 b 151 200 138 25 151 64 l 151 865 b 100 1042 151 1001 144 1028 l 100 1051 l 267 1051 l 867 144 l 867 851 b 722 1042 867 988 849 1026 l 722 1051 l 1008 1051 l 1008 1042 b 896 851 910 1026 896 988 l 896 0 l 776 0 m 325 1163 b 447 1349 325 1296 378 1349 b 654 1224 553 1349 565 1224 b 721 1333 703 1224 718 1258 l 749 1333 b 632 1147 749 1190 697 1147 b 422 1274 519 1147 510 1274 b 353 1163 369 1274 356 1229 l 325 1163 "},"Ŋ":{"ha":1053,"x_min":0,"x_max":0,"o":"m 179 906 l 179 200 b 335 10 179 64 199 25 l 335 0 l 39 0 l 39 10 b 151 200 138 25 151 64 l 151 865 b 100 1042 151 1001 144 1028 l 100 1051 l 267 1051 l 874 143 l 874 851 b 729 1042 874 988 856 1026 l 729 1051 l 1015 1051 l 1015 1042 b 903 851 917 1026 903 988 l 903 21 b 681 -286 903 -176 829 -257 l 681 -268 b 861 0 803 -235 861 -153 l 783 0 "},"O":{"ha":1244,"x_min":0,"x_max":0,"o":"m 624 -24 b 56 522 290 -24 56 194 b 624 1067 56 849 290 1067 b 1189 522 954 1067 1189 849 b 624 -24 1189 194 954 -24 m 224 522 b 624 0 224 219 369 0 b 1021 522 876 0 1021 219 b 624 1043 1021 824 876 1043 b 224 522 369 1043 224 824 "},"Ó":{"ha":1244,"x_min":0,"x_max":0,"o":"m 624 -24 b 56 522 290 -24 56 194 b 624 1067 56 849 290 1067 b 1189 522 954 1067 1189 849 b 624 -24 1189 194 954 -24 m 224 522 b 624 0 224 219 369 0 b 1021 522 876 0 1021 219 b 624 1043 1021 824 876 1043 b 224 522 369 1043 224 824 m 735 1343 l 869 1343 l 635 1150 l 611 1150 "},"Ô":{"ha":1244,"x_min":0,"x_max":0,"o":"m 624 -24 b 56 522 290 -24 56 194 b 624 1067 56 849 290 1067 b 1189 522 954 1067 1189 849 b 624 -24 1189 194 954 -24 m 224 522 b 624 0 224 219 369 0 b 1021 522 876 0 1021 219 b 624 1043 1021 824 876 1043 b 224 522 369 1043 224 824 m 594 1343 l 651 1343 l 824 1150 l 801 1150 l 624 1276 l 444 1150 l 422 1150 "},"Ö":{"ha":1244,"x_min":0,"x_max":0,"o":"m 624 -24 b 56 522 290 -24 56 194 b 624 1067 56 849 290 1067 b 1189 522 954 1067 1189 849 b 624 -24 1189 194 954 -24 m 224 522 b 624 0 224 219 369 0 b 1021 522 876 0 1021 219 b 624 1043 1021 824 876 1043 b 224 522 369 1043 224 824 m 439 1314 l 554 1314 l 554 1169 l 439 1169 m 692 1314 l 807 1314 l 807 1169 l 692 1169 "},"Ò":{"ha":1244,"x_min":0,"x_max":0,"o":"m 624 -24 b 56 522 290 -24 56 194 b 624 1067 56 849 290 1067 b 1189 522 954 1067 1189 849 b 624 -24 1189 194 954 -24 m 224 522 b 624 0 224 219 369 0 b 1021 522 876 0 1021 219 b 624 1043 1021 824 876 1043 b 224 522 369 1043 224 824 m 511 1343 l 635 1150 l 611 1150 l 376 1343 "},"Ő":{"ha":1244,"x_min":0,"x_max":0,"o":"m 624 -24 b 56 522 290 -24 56 194 b 624 1067 56 849 290 1067 b 1189 522 954 1067 1189 849 b 624 -24 1189 194 954 -24 m 224 522 b 624 0 224 219 369 0 b 1021 522 876 0 1021 219 b 624 1043 1021 824 876 1043 b 224 522 369 1043 224 824 m 625 1342 l 740 1342 l 540 1150 l 522 1150 m 825 1342 l 940 1342 l 726 1150 l 707 1150 "},"Ō":{"ha":1244,"x_min":0,"x_max":0,"o":"m 624 -24 b 56 522 290 -24 56 194 b 624 1067 56 849 290 1067 b 1189 522 954 1067 1189 849 b 624 -24 1189 194 954 -24 m 224 522 b 624 0 224 219 369 0 b 1021 522 876 0 1021 219 b 624 1043 1021 824 876 1043 b 224 522 369 1043 224 824 m 386 1250 l 863 1250 l 863 1211 l 386 1211 "},"Ø":{"ha":1244,"x_min":0,"x_max":0,"o":"m 319 -219 l 411 11 b 56 524 194 85 56 271 b 624 1068 56 850 290 1068 b 817 1040 693 1068 757 1058 l 910 1276 l 942 1267 l 849 1031 b 1189 524 1056 954 1189 769 b 624 -22 1189 196 954 -22 b 442 1 558 -22 497 -14 l 350 -229 m 224 524 b 428 56 224 310 296 138 l 801 1001 b 624 1044 750 1029 690 1044 b 224 524 369 1044 224 825 m 456 39 b 624 1 506 15 561 1 b 1021 524 876 1 1021 221 b 829 983 1021 729 953 897 l 456 39 "},"Ǿ":{"ha":1244,"x_min":0,"x_max":0,"o":"m 319 -219 l 411 11 b 56 524 194 85 56 271 b 624 1068 56 850 290 1068 b 817 1040 693 1068 757 1058 l 910 1276 l 942 1267 l 849 1031 b 1189 524 1056 954 1189 769 b 624 -22 1189 196 954 -22 b 442 1 558 -22 497 -14 l 350 -229 m 224 524 b 428 56 224 310 296 138 l 801 1001 b 624 1044 750 1029 690 1044 b 224 524 369 1044 224 825 m 456 39 b 624 1 506 15 561 1 b 1021 524 876 1 1021 221 b 829 983 1021 729 953 897 l 456 39 m 735 1344 l 869 1344 l 635 1151 l 611 1151 "},"Õ":{"ha":1244,"x_min":0,"x_max":0,"o":"m 624 -24 b 56 522 290 -24 56 194 b 624 1067 56 849 290 1067 b 1189 522 954 1067 1189 849 b 624 -24 1189 194 954 -24 m 224 522 b 624 0 224 219 369 0 b 1021 522 876 0 1021 219 b 624 1043 1021 824 876 1043 b 224 522 369 1043 224 824 m 411 1163 b 533 1349 411 1296 464 1349 b 740 1224 639 1349 651 1224 b 807 1333 789 1224 804 1258 l 835 1333 b 718 1147 835 1190 783 1147 b 508 1274 606 1147 596 1274 b 439 1163 456 1274 442 1229 l 411 1163 "},"Œ":{"ha":1515,"x_min":0,"x_max":0,"o":"m 685 0 b 56 528 314 0 56 193 b 685 1051 56 864 314 1051 l 1440 1051 l 1440 926 b 1069 1026 1264 1006 1171 1026 l 976 1026 l 976 563 l 1071 563 b 1367 567 1144 563 1267 563 l 1367 532 b 1071 538 1267 538 1144 538 l 976 538 l 976 25 l 1092 25 b 1483 132 1218 25 1318 32 l 1483 0 l 685 0 m 224 528 b 710 25 224 208 403 26 l 822 25 l 822 1026 l 710 1026 b 224 528 403 1026 224 847 "},"P":{"ha":900,"x_min":0,"x_max":0,"o":"m 40 10 b 163 186 147 24 163 60 l 163 865 b 40 1042 163 1001 147 1028 l 40 1051 l 454 1051 b 881 793 690 1051 881 997 b 415 525 881 583 656 525 l 318 525 l 318 186 b 453 10 318 60 335 24 l 453 0 l 40 0 m 399 550 b 718 793 564 550 718 610 b 433 1026 718 968 586 1026 l 318 1026 l 318 550 "},"Þ":{"ha":924,"x_min":0,"x_max":0,"o":"m 40 10 b 163 186 147 24 163 60 l 163 865 b 40 1042 163 1001 147 1028 l 40 1051 l 440 1051 l 440 1042 b 318 865 333 1028 318 1001 l 318 815 l 454 815 b 881 558 690 815 881 761 b 415 289 881 347 656 289 l 318 289 l 318 186 b 440 10 318 60 333 24 l 440 0 l 40 0 m 399 314 b 718 558 564 314 718 374 b 433 790 718 733 586 790 l 318 790 l 318 314 "},"Q":{"ha":1244,"x_min":0,"x_max":0,"o":"m 624 -24 b 56 522 290 -24 56 194 b 624 1067 56 849 290 1067 b 1189 522 954 1067 1189 849 b 946 67 1189 319 1096 158 l 1140 -171 l 1140 -183 l 1025 -183 l 883 29 b 624 -24 808 -6 719 -24 m 224 522 b 624 0 224 219 369 0 b 851 78 714 0 790 28 l 586 479 l 608 479 l 899 125 b 1021 522 978 218 1021 358 b 624 1043 1021 824 876 1043 b 224 522 369 1043 224 824 "},"R":{"ha":963,"x_min":0,"x_max":0,"o":"m 40 10 b 163 186 147 24 163 60 l 163 865 b 40 1042 163 1001 147 1028 l 40 1051 l 461 1051 b 878 804 696 1051 878 1000 b 542 547 878 626 728 560 l 964 8 l 964 0 l 774 0 l 410 540 l 318 540 l 318 186 b 453 10 318 60 335 24 l 453 0 l 40 0 m 400 565 b 719 806 567 565 719 622 b 429 1026 719 974 582 1026 l 318 1026 l 318 565 "},"Ŕ":{"ha":963,"x_min":0,"x_max":0,"o":"m 40 10 b 163 186 147 24 163 60 l 163 865 b 40 1042 163 1001 147 1028 l 40 1051 l 461 1051 b 878 804 696 1051 878 1000 b 542 547 878 626 728 560 l 964 8 l 964 0 l 774 0 l 410 540 l 318 540 l 318 186 b 453 10 318 60 335 24 l 453 0 l 40 0 m 400 565 b 719 806 567 565 719 622 b 429 1026 719 974 582 1026 l 318 1026 l 318 565 m 608 1343 l 743 1343 l 508 1150 l 485 1150 "},"Ř":{"ha":963,"x_min":0,"x_max":0,"o":"m 40 10 b 163 186 147 24 163 60 l 163 865 b 40 1042 163 1001 147 1028 l 40 1051 l 461 1051 b 878 804 696 1051 878 1000 b 542 547 878 626 728 560 l 964 8 l 964 0 l 774 0 l 410 540 l 318 540 l 318 186 b 453 10 318 60 335 24 l 453 0 l 40 0 m 311 1343 l 497 1219 l 683 1343 l 706 1343 l 524 1150 l 469 1150 l 289 1343 m 400 565 b 719 806 567 565 719 622 b 429 1026 719 974 582 1026 l 318 1026 l 318 565 "},"Ŗ":{"ha":963,"x_min":0,"x_max":0,"o":"m 40 10 b 163 186 147 24 163 60 l 163 865 b 40 1042 163 1001 147 1028 l 40 1051 l 461 1051 b 878 804 696 1051 878 1000 b 542 547 878 626 728 560 l 964 8 l 964 0 l 774 0 l 410 540 l 318 540 l 318 186 b 453 10 318 60 335 24 l 453 0 l 40 0 m 400 565 b 719 806 567 565 719 622 b 429 1026 719 974 582 1026 l 318 1026 l 318 565 m 524 -83 l 644 -83 l 457 -336 l 444 -332 "},"S":{"ha":846,"x_min":0,"x_max":0,"o":"m 449 -22 b 26 346 229 -22 51 101 l 178 346 b 453 1 194 156 276 3 b 661 193 575 1 660 72 b 386 481 661 319 560 379 b 89 811 225 575 89 654 b 408 1069 89 976 228 1069 b 799 778 599 1069 758 971 l 649 778 b 408 1046 631 933 549 1044 b 217 878 292 1047 218 981 b 481 606 217 760 319 699 b 790 254 651 506 790 426 b 449 -22 790 81 646 -22 "},"Ś":{"ha":846,"x_min":0,"x_max":0,"o":"m 449 -22 b 26 346 229 -22 51 101 l 178 346 b 453 1 194 156 276 3 b 661 193 575 1 660 72 b 386 481 661 319 560 379 b 89 811 225 575 89 654 b 408 1069 89 976 228 1069 b 799 778 599 1069 758 971 l 649 778 b 408 1046 631 933 549 1044 b 217 878 292 1047 218 981 b 481 606 217 760 319 699 b 790 254 651 506 790 426 b 449 -22 790 81 646 -22 m 519 1343 l 654 1343 l 419 1150 l 396 1150 "},"Š":{"ha":846,"x_min":0,"x_max":0,"o":"m 449 -22 b 26 346 229 -22 51 101 l 178 346 b 453 1 194 156 276 3 b 661 193 575 1 660 72 b 386 481 661 319 560 379 b 89 811 225 575 89 654 b 408 1069 89 976 228 1069 b 799 778 599 1069 758 971 l 649 778 b 408 1046 631 933 549 1044 b 217 878 292 1047 218 981 b 481 606 217 760 319 699 b 790 254 651 506 790 426 b 449 -22 790 81 646 -22 m 222 1343 l 408 1219 l 594 1343 l 617 1343 l 435 1150 l 381 1150 l 200 1343 "},"Ş":{"ha":846,"x_min":0,"x_max":0,"o":"m 443 -343 b 269 -261 374 -343 304 -318 l 285 -249 b 422 -311 310 -287 360 -311 b 522 -232 472 -311 522 -293 b 421 -151 522 -179 482 -151 b 360 -161 400 -151 383 -154 l 347 -144 l 435 -22 b 26 346 222 -17 51 107 l 178 346 b 453 1 194 156 276 3 b 661 193 575 1 660 72 b 386 481 661 319 560 379 b 89 811 225 575 89 654 b 408 1069 89 976 228 1069 b 799 778 599 1069 758 971 l 649 778 b 408 1046 631 933 549 1044 b 217 878 292 1047 218 981 b 481 606 217 760 319 699 b 790 254 651 506 790 426 b 478 -21 790 89 660 -12 l 419 -103 b 458 -100 432 -101 444 -100 b 601 -218 544 -100 601 -146 b 443 -343 601 -310 514 -343 "},"Ŝ":{"ha":846,"x_min":0,"x_max":0,"o":"m 449 -22 b 26 346 229 -22 51 101 l 178 346 b 453 1 194 156 276 3 b 661 193 575 1 660 72 b 386 481 661 319 560 379 b 89 811 225 575 89 654 b 408 1069 89 976 228 1069 b 799 778 599 1069 758 971 l 649 778 b 408 1046 631 933 549 1044 b 217 878 292 1047 218 981 b 481 606 217 760 319 699 b 790 254 651 506 790 426 b 449 -22 790 81 646 -22 m 379 1343 l 436 1343 l 608 1150 l 586 1150 l 408 1276 l 229 1150 l 207 1150 "},"Ș":{"ha":846,"x_min":0,"x_max":0,"o":"m 449 -22 b 26 346 229 -22 51 101 l 178 346 b 453 1 194 156 276 3 b 661 193 575 1 660 72 b 386 481 661 319 560 379 b 89 811 225 575 89 654 b 408 1069 89 976 228 1069 b 799 778 599 1069 758 971 l 649 778 b 408 1046 631 933 549 1044 b 217 878 292 1047 218 981 b 481 606 217 760 319 699 b 790 254 651 506 790 426 b 449 -22 790 81 646 -22 m 399 -93 l 519 -93 l 332 -346 l 319 -342 "},"ẞ":{"ha":1029,"x_min":0,"x_max":0,"o":"m 679 -19 b 421 93 542 -19 460 39 l 424 201 b 671 26 451 117 532 26 b 861 222 781 26 861 93 b 694 463 861 321 814 376 b 525 722 611 522 525 590 b 806 1011 525 875 642 982 l 646 1011 b 292 593 404 1011 292 888 l 292 186 b 392 10 292 60 304 24 l 392 0 l 21 0 l 21 10 b 143 186 128 24 143 60 l 143 578 b 619 1051 143 950 339 1051 l 951 1051 l 950 982 b 858 997 919 993 896 997 b 628 785 769 997 628 933 b 793 560 628 681 696 628 b 982 265 899 483 982 413 b 679 -19 982 75 851 -21 "},"T":{"ha":906,"x_min":0,"x_max":0,"o":"m 25 1051 l 881 1051 l 881 910 b 542 1028 719 981 629 1028 l 531 1028 l 531 186 b 653 10 531 60 546 24 l 653 0 l 253 0 l 253 10 b 375 186 360 24 375 60 l 375 1028 l 367 1028 b 25 910 278 1028 188 981 "},"Ŧ":{"ha":906,"x_min":0,"x_max":0,"o":"m 25 1051 l 881 1051 l 881 910 b 542 1028 719 981 629 1028 l 531 1028 l 531 556 l 763 556 l 763 529 l 531 529 l 531 186 b 653 10 531 60 546 24 l 653 0 l 253 0 l 253 10 b 375 186 360 24 375 60 l 375 529 l 144 529 l 144 556 l 375 556 l 375 1028 l 367 1028 b 25 910 278 1028 188 981 "},"Ť":{"ha":906,"x_min":0,"x_max":0,"o":"m 25 1051 l 881 1051 l 881 910 b 542 1028 719 981 629 1028 l 531 1028 l 531 186 b 653 10 531 60 546 24 l 653 0 l 253 0 l 253 10 b 375 186 360 24 375 60 l 375 1028 l 367 1028 b 25 910 278 1028 188 981 m 267 1343 l 453 1219 l 639 1343 l 661 1343 l 479 1150 l 425 1150 l 244 1343 "},"Ţ":{"ha":906,"x_min":0,"x_max":0,"o":"m 25 1051 l 881 1051 l 881 910 b 542 1028 719 981 629 1028 l 531 1028 l 531 186 b 653 10 531 60 546 24 l 653 0 l 481 0 l 414 -93 b 453 -90 426 -92 439 -90 b 596 -208 539 -90 596 -136 b 438 -333 596 -300 508 -333 b 264 -251 368 -333 299 -308 l 279 -239 b 417 -301 304 -278 354 -301 b 517 -222 467 -301 517 -283 b 415 -142 517 -169 476 -142 b 354 -151 394 -142 378 -144 l 342 -135 l 439 0 l 253 0 l 253 10 b 375 186 360 24 375 60 l 375 1028 l 367 1028 b 25 910 278 1028 188 981 "},"Ț":{"ha":906,"x_min":0,"x_max":0,"o":"m 25 1051 l 881 1051 l 881 910 b 542 1028 719 981 629 1028 l 531 1028 l 531 186 b 653 10 531 60 546 24 l 653 0 l 253 0 l 253 10 b 375 186 360 24 375 60 l 375 1028 l 367 1028 b 25 910 278 1028 188 981 m 393 -83 l 514 -83 l 326 -336 l 314 -332 "},"U":{"ha":1057,"x_min":0,"x_max":0,"o":"m 540 -22 b 143 451 306 -22 143 83 l 143 865 b 21 1042 143 1001 128 1028 l 21 1051 l 419 1051 l 419 1042 b 297 865 313 1028 297 1001 l 297 451 b 581 22 297 150 382 22 b 885 451 776 22 885 142 l 885 865 b 763 1042 885 1001 869 1028 l 763 1051 l 1036 1051 l 1036 1042 b 914 865 929 1028 914 1001 l 914 451 b 540 -22 914 115 790 -22 "},"Ú":{"ha":1057,"x_min":0,"x_max":0,"o":"m 540 -22 b 143 451 306 -22 143 83 l 143 865 b 21 1042 143 1001 128 1028 l 21 1051 l 419 1051 l 419 1042 b 297 865 313 1028 297 1001 l 297 451 b 581 22 297 150 382 22 b 885 451 776 22 885 142 l 885 865 b 763 1042 885 1001 869 1028 l 763 1051 l 1036 1051 l 1036 1042 b 914 865 929 1028 914 1001 l 914 451 b 540 -22 914 115 790 -22 m 701 1343 l 836 1343 l 601 1150 l 578 1150 "},"Ŭ":{"ha":1057,"x_min":0,"x_max":0,"o":"m 540 -22 b 143 451 306 -22 143 83 l 143 865 b 21 1042 143 1001 128 1028 l 21 1051 l 419 1051 l 419 1042 b 297 865 313 1028 297 1001 l 297 451 b 581 22 297 150 382 22 b 885 451 776 22 885 142 l 885 865 b 763 1042 885 1001 869 1028 l 763 1051 l 1036 1051 l 1036 1042 b 914 865 929 1028 914 1001 l 914 451 b 540 -22 914 115 790 -22 m 422 1343 b 590 1207 422 1268 471 1207 b 760 1343 711 1207 760 1268 l 788 1343 b 590 1142 788 1208 703 1142 b 393 1343 478 1142 393 1208 "},"Û":{"ha":1057,"x_min":0,"x_max":0,"o":"m 540 -22 b 143 451 306 -22 143 83 l 143 865 b 21 1042 143 1001 128 1028 l 21 1051 l 419 1051 l 419 1042 b 297 865 313 1028 297 1001 l 297 451 b 581 22 297 150 382 22 b 885 451 776 22 885 142 l 885 865 b 763 1042 885 1001 869 1028 l 763 1051 l 1036 1051 l 1036 1042 b 914 865 929 1028 914 1001 l 914 451 b 540 -22 914 115 790 -22 m 561 1343 l 618 1343 l 790 1150 l 768 1150 l 590 1276 l 411 1150 l 389 1150 "},"Ü":{"ha":1057,"x_min":0,"x_max":0,"o":"m 540 -22 b 143 451 306 -22 143 83 l 143 865 b 21 1042 143 1001 128 1028 l 21 1051 l 419 1051 l 419 1042 b 297 865 313 1028 297 1001 l 297 451 b 581 22 297 150 382 22 b 885 451 776 22 885 142 l 885 865 b 763 1042 885 1001 869 1028 l 763 1051 l 1036 1051 l 1036 1042 b 914 865 929 1028 914 1001 l 914 451 b 540 -22 914 115 790 -22 m 406 1314 l 521 1314 l 521 1169 l 406 1169 m 658 1314 l 774 1314 l 774 1169 l 658 1169 "},"Ù":{"ha":1057,"x_min":0,"x_max":0,"o":"m 540 -22 b 143 451 306 -22 143 83 l 143 865 b 21 1042 143 1001 128 1028 l 21 1051 l 419 1051 l 419 1042 b 297 865 313 1028 297 1001 l 297 451 b 581 22 297 150 382 22 b 885 451 776 22 885 142 l 885 865 b 763 1042 885 1001 869 1028 l 763 1051 l 1036 1051 l 1036 1042 b 914 865 929 1028 914 1001 l 914 451 b 540 -22 914 115 790 -22 m 478 1343 l 601 1150 l 578 1150 l 343 1343 "},"Ű":{"ha":1057,"x_min":0,"x_max":0,"o":"m 540 -22 b 143 451 306 -22 143 83 l 143 865 b 21 1042 143 1001 128 1028 l 21 1051 l 419 1051 l 419 1042 b 297 865 313 1028 297 1001 l 297 451 b 581 22 297 150 382 22 b 885 451 776 22 885 142 l 885 865 b 763 1042 885 1001 869 1028 l 763 1051 l 1036 1051 l 1036 1042 b 914 865 929 1028 914 1001 l 914 451 b 540 -22 914 115 790 -22 m 592 1342 l 707 1342 l 507 1150 l 489 1150 m 792 1342 l 907 1342 l 693 1150 l 674 1150 "},"Ū":{"ha":1057,"x_min":0,"x_max":0,"o":"m 540 -22 b 143 451 306 -22 143 83 l 143 865 b 21 1042 143 1001 128 1028 l 21 1051 l 419 1051 l 419 1042 b 297 865 313 1028 297 1001 l 297 451 b 581 22 297 150 382 22 b 885 451 776 22 885 142 l 885 865 b 763 1042 885 1001 869 1028 l 763 1051 l 1036 1051 l 1036 1042 b 914 865 929 1028 914 1001 l 914 451 b 540 -22 914 115 790 -22 m 353 1250 l 829 1250 l 829 1211 l 353 1211 "},"Ų":{"ha":1057,"x_min":0,"x_max":0,"o":"m 540 -22 b 143 451 306 -22 143 83 l 143 865 b 21 1042 143 1001 128 1028 l 21 1051 l 419 1051 l 419 1042 b 297 865 313 1028 297 1001 l 297 451 b 581 22 297 150 382 22 b 885 451 776 22 885 142 l 885 865 b 763 1042 885 1001 869 1028 l 763 1051 l 1036 1051 l 1036 1042 b 914 865 929 1028 914 1001 l 914 451 b 678 -4 914 183 836 42 b 582 -182 635 -36 582 -99 b 669 -281 582 -242 614 -281 b 760 -214 704 -281 740 -256 l 760 -237 b 631 -325 733 -290 686 -325 b 507 -201 565 -325 507 -285 b 632 -15 507 -115 571 -51 b 540 -22 604 -19 574 -22 "},"Ů":{"ha":1057,"x_min":0,"x_max":0,"o":"m 540 -22 b 143 451 306 -22 143 83 l 143 865 b 21 1042 143 1001 128 1028 l 21 1051 l 419 1051 l 419 1042 b 297 865 313 1028 297 1001 l 297 451 b 581 22 297 150 382 22 b 885 451 776 22 885 142 l 885 865 b 763 1042 885 1001 869 1028 l 763 1051 l 1036 1051 l 1036 1042 b 914 865 929 1028 914 1001 l 914 451 b 540 -22 914 115 790 -22 m 454 1258 b 590 1388 454 1335 510 1388 b 726 1258 669 1388 726 1335 b 590 1129 726 1182 669 1129 b 454 1258 510 1129 454 1182 m 489 1258 b 590 1157 489 1197 529 1157 b 692 1258 651 1157 692 1197 b 590 1360 692 1319 651 1360 b 489 1258 529 1360 489 1319 "},"Ũ":{"ha":1057,"x_min":0,"x_max":0,"o":"m 540 -22 b 143 451 306 -22 143 83 l 143 865 b 21 1042 143 1001 128 1028 l 21 1051 l 419 1051 l 419 1042 b 297 865 313 1028 297 1001 l 297 451 b 581 22 297 150 382 22 b 885 451 776 22 885 142 l 885 865 b 763 1042 885 1001 869 1028 l 763 1051 l 1036 1051 l 1036 1042 b 914 865 929 1028 914 1001 l 914 451 b 540 -22 914 115 790 -22 m 378 1163 b 500 1349 378 1296 431 1349 b 707 1224 606 1349 618 1224 b 774 1333 756 1224 771 1258 l 801 1333 b 685 1147 801 1190 750 1147 b 475 1274 572 1147 563 1274 b 406 1163 422 1274 408 1229 l 378 1163 "},"V":{"ha":967,"x_min":0,"x_max":0,"o":"m 110 879 b -25 1042 67 994 46 1026 l -25 1051 l 379 1051 l 379 1042 b 289 883 258 1031 254 989 l 546 129 l 819 882 b 742 1042 863 1001 843 1031 l 742 1051 l 992 1051 l 992 1042 b 854 879 922 1031 899 1000 l 564 89 b 554 0 550 50 550 33 l 438 0 l 110 879 "},"W":{"ha":1435,"x_min":0,"x_max":0,"o":"m 126 878 b -8 1042 89 992 60 1026 l -8 1051 l 390 1051 l 390 1042 b 307 883 285 1026 274 992 l 514 200 l 756 994 l 814 994 l 1065 189 l 1274 882 b 1200 1042 1310 1001 1294 1031 l 1200 1051 l 1443 1051 l 1443 1042 b 1308 882 1378 1031 1344 1000 l 1067 89 b 1054 0 1056 53 1054 22 l 967 0 l 724 761 l 508 85 b 494 0 496 46 494 18 l 413 0 l 126 878 "},"Ẃ":{"ha":1435,"x_min":0,"x_max":0,"o":"m 126 878 b -8 1042 89 992 60 1026 l -8 1051 l 390 1051 l 390 1042 b 307 883 285 1026 274 992 l 514 200 l 756 994 l 814 994 l 1065 189 l 1274 882 b 1200 1042 1310 1001 1294 1031 l 1200 1051 l 1443 1051 l 1443 1042 b 1308 882 1378 1031 1344 1000 l 1067 89 b 1054 0 1056 53 1054 22 l 967 0 l 724 761 l 508 85 b 494 0 496 46 494 18 l 413 0 l 126 878 m 896 1343 l 1031 1343 l 796 1150 l 772 1150 "},"Ŵ":{"ha":1435,"x_min":0,"x_max":0,"o":"m 126 878 b -8 1042 89 992 60 1026 l -8 1051 l 390 1051 l 390 1042 b 307 883 285 1026 274 992 l 514 200 l 756 994 l 814 994 l 1065 189 l 1274 882 b 1200 1042 1310 1001 1294 1031 l 1200 1051 l 1443 1051 l 1443 1042 b 1308 882 1378 1031 1344 1000 l 1067 89 b 1054 0 1056 53 1054 22 l 967 0 l 724 761 l 508 85 b 494 0 496 46 494 18 l 413 0 l 126 878 m 756 1343 l 813 1343 l 985 1150 l 963 1150 l 785 1276 l 606 1150 l 583 1150 "},"Ẅ":{"ha":1435,"x_min":0,"x_max":0,"o":"m 126 878 b -8 1042 89 992 60 1026 l -8 1051 l 390 1051 l 390 1042 b 307 883 285 1026 274 992 l 514 200 l 756 994 l 814 994 l 1065 189 l 1274 882 b 1200 1042 1310 1001 1294 1031 l 1200 1051 l 1443 1051 l 1443 1042 b 1308 882 1378 1031 1344 1000 l 1067 89 b 1054 0 1056 53 1054 22 l 967 0 l 724 761 l 508 85 b 494 0 496 46 494 18 l 413 0 l 126 878 m 600 1314 l 715 1314 l 715 1169 l 600 1169 m 853 1314 l 968 1314 l 968 1169 l 853 1169 "},"Ẁ":{"ha":1435,"x_min":0,"x_max":0,"o":"m 126 878 b -8 1042 89 992 60 1026 l -8 1051 l 390 1051 l 390 1042 b 307 883 285 1026 274 992 l 514 200 l 756 994 l 814 994 l 1065 189 l 1274 882 b 1200 1042 1310 1001 1294 1031 l 1200 1051 l 1443 1051 l 1443 1042 b 1308 882 1378 1031 1344 1000 l 1067 89 b 1054 0 1056 53 1054 22 l 967 0 l 724 761 l 508 85 b 494 0 496 46 494 18 l 413 0 l 126 878 m 672 1343 l 796 1150 l 772 1150 l 538 1343 "},"X":{"ha":947,"x_min":0,"x_max":0,"o":"m 544 10 b 635 122 638 17 671 60 l 419 494 l 188 132 b 275 10 144 63 175 19 l 275 0 l -17 0 l -17 10 b 151 133 57 21 104 61 l 404 521 l 168 931 b 15 1042 122 1013 82 1032 l 15 1051 l 432 1051 l 432 1042 b 343 933 336 1035 304 999 l 542 589 l 761 929 b 696 1042 800 989 788 1033 l 696 1051 l 958 1051 l 958 1042 b 800 932 890 1031 849 1006 l 557 561 l 813 119 b 964 10 856 46 897 19 l 964 0 l 544 0 l 544 10 "},"Y":{"ha":918,"x_min":0,"x_max":0,"o":"m 135 938 b 1 1042 90 1018 71 1032 l 1 1051 l 400 1051 l 400 1042 b 319 933 303 1033 286 996 l 540 528 l 747 933 b 674 1042 779 996 775 1033 l 674 1051 l 917 1051 l 917 1042 b 785 933 860 1033 828 1018 l 551 478 l 551 186 b 674 10 551 60 567 24 l 674 0 l 271 0 l 271 10 b 393 186 378 24 393 60 l 393 476 l 135 938 "},"Ý":{"ha":918,"x_min":0,"x_max":0,"o":"m 135 938 b 1 1042 90 1018 71 1032 l 1 1051 l 400 1051 l 400 1042 b 319 933 303 1033 286 996 l 540 528 l 747 933 b 674 1042 779 996 775 1033 l 674 1051 l 917 1051 l 917 1042 b 785 933 860 1033 828 1018 l 551 478 l 551 186 b 674 10 551 60 567 24 l 674 0 l 271 0 l 271 10 b 393 186 378 24 393 60 l 393 476 l 135 938 m 628 1343 l 763 1343 l 528 1150 l 504 1150 "},"Ŷ":{"ha":918,"x_min":0,"x_max":0,"o":"m 135 938 b 1 1042 90 1018 71 1032 l 1 1051 l 400 1051 l 400 1042 b 319 933 303 1033 286 996 l 540 528 l 747 933 b 674 1042 779 996 775 1033 l 674 1051 l 917 1051 l 917 1042 b 785 933 860 1033 828 1018 l 551 478 l 551 186 b 674 10 551 60 567 24 l 674 0 l 271 0 l 271 10 b 393 186 378 24 393 60 l 393 476 l 135 938 m 488 1343 l 544 1343 l 717 1150 l 694 1150 l 517 1276 l 338 1150 l 315 1150 "},"Ÿ":{"ha":918,"x_min":0,"x_max":0,"o":"m 135 938 b 1 1042 90 1018 71 1032 l 1 1051 l 400 1051 l 400 1042 b 319 933 303 1033 286 996 l 540 528 l 747 933 b 674 1042 779 996 775 1033 l 674 1051 l 917 1051 l 917 1042 b 785 933 860 1033 828 1018 l 551 478 l 551 186 b 674 10 551 60 567 24 l 674 0 l 271 0 l 271 10 b 393 186 378 24 393 60 l 393 476 l 135 938 m 332 1314 l 447 1314 l 447 1169 l 332 1169 m 585 1314 l 700 1314 l 700 1169 l 585 1169 "},"Ỳ":{"ha":918,"x_min":0,"x_max":0,"o":"m 135 938 b 1 1042 90 1018 71 1032 l 1 1051 l 400 1051 l 400 1042 b 319 933 303 1033 286 996 l 540 528 l 747 933 b 674 1042 779 996 775 1033 l 674 1051 l 917 1051 l 917 1042 b 785 933 860 1033 828 1018 l 551 478 l 551 186 b 674 10 551 60 567 24 l 674 0 l 271 0 l 271 10 b 393 186 378 24 393 60 l 393 476 l 135 938 m 404 1343 l 528 1150 l 504 1150 l 269 1343 "},"Ỹ":{"ha":918,"x_min":0,"x_max":0,"o":"m 135 938 b 1 1042 90 1018 71 1032 l 1 1051 l 400 1051 l 400 1042 b 319 933 303 1033 286 996 l 540 528 l 747 933 b 674 1042 779 996 775 1033 l 674 1051 l 917 1051 l 917 1042 b 785 933 860 1033 828 1018 l 551 478 l 551 186 b 674 10 551 60 567 24 l 674 0 l 271 0 l 271 10 b 393 186 378 24 393 60 l 393 476 l 135 938 m 304 1163 b 426 1349 304 1296 357 1349 b 633 1224 532 1349 544 1224 b 700 1333 682 1224 697 1258 l 728 1333 b 611 1147 728 1190 676 1147 b 401 1274 499 1147 489 1274 b 332 1163 349 1274 335 1229 l 304 1163 "},"Z":{"ha":836,"x_min":0,"x_max":0,"o":"m 35 42 l 624 1025 l 407 1025 b 35 907 304 1025 211 992 l 35 1051 l 793 1051 l 793 1010 l 203 26 l 435 26 b 806 153 563 26 667 76 l 806 0 l 35 0 "},"Ź":{"ha":836,"x_min":0,"x_max":0,"o":"m 35 42 l 624 1025 l 407 1025 b 35 907 304 1025 211 992 l 35 1051 l 793 1051 l 793 1010 l 203 26 l 435 26 b 806 153 563 26 667 76 l 806 0 l 35 0 m 540 1343 l 675 1343 l 440 1150 l 417 1150 "},"Ž":{"ha":836,"x_min":0,"x_max":0,"o":"m 35 42 l 624 1025 l 407 1025 b 35 907 304 1025 211 992 l 35 1051 l 793 1051 l 793 1010 l 203 26 l 435 26 b 806 153 563 26 667 76 l 806 0 l 35 0 m 243 1343 l 429 1219 l 615 1343 l 638 1343 l 456 1150 l 401 1150 l 221 1343 "},"Ż":{"ha":836,"x_min":0,"x_max":0,"o":"m 35 42 l 624 1025 l 407 1025 b 35 907 304 1025 211 992 l 35 1051 l 793 1051 l 793 1010 l 203 26 l 435 26 b 806 153 563 26 667 76 l 806 0 l 35 0 m 371 1314 l 486 1314 l 486 1169 l 371 1169 "},"a":{"ha":760,"x_min":0,"x_max":0,"o":"m 240 -18 b 47 157 129 -18 47 42 b 311 374 47 278 139 326 b 511 539 446 411 508 431 b 381 678 513 629 464 678 b 206 460 304 678 206 625 l 78 460 b 399 703 85 635 260 703 b 650 471 536 703 650 643 l 650 140 b 707 44 650 76 669 44 b 765 68 733 44 747 53 l 767 50 b 636 -14 728 8 690 -14 b 510 150 563 -14 510 36 l 510 224 b 240 -18 478 86 388 -18 m 183 186 b 300 61 183 101 235 61 b 511 358 429 61 511 179 l 511 446 b 351 356 496 403 443 383 b 183 186 247 322 183 285 "},"á":{"ha":760,"x_min":0,"x_max":0,"o":"m 240 -18 b 47 157 129 -18 47 42 b 311 374 47 278 139 326 b 511 539 446 411 508 431 b 381 678 513 629 464 678 b 206 460 304 678 206 625 l 78 460 b 399 703 85 635 260 703 b 650 471 536 703 650 643 l 650 140 b 707 44 650 76 669 44 b 765 68 733 44 747 53 l 767 50 b 636 -14 728 8 690 -14 b 510 150 563 -14 510 36 l 510 224 b 240 -18 478 86 388 -18 m 183 186 b 300 61 183 101 235 61 b 511 358 429 61 511 179 l 511 446 b 351 356 496 403 443 383 b 183 186 247 322 183 285 m 513 1050 l 632 1050 l 389 804 l 369 804 "},"ă":{"ha":760,"x_min":0,"x_max":0,"o":"m 240 -18 b 47 157 129 -18 47 42 b 311 374 47 278 139 326 b 511 539 446 411 508 431 b 381 678 513 629 464 678 b 206 460 304 678 206 625 l 78 460 b 399 703 85 635 260 703 b 650 471 536 703 650 643 l 650 140 b 707 44 650 76 669 44 b 765 68 733 44 747 53 l 767 50 b 636 -14 728 8 690 -14 b 510 150 563 -14 510 36 l 510 224 b 240 -18 478 86 388 -18 m 183 186 b 300 61 183 101 235 61 b 511 358 429 61 511 179 l 511 446 b 351 356 496 403 443 383 b 183 186 247 322 183 285 m 239 1028 b 388 874 239 935 282 874 b 536 1028 493 874 536 935 l 564 1028 b 388 804 564 882 488 804 b 211 1028 288 804 211 882 "},"â":{"ha":760,"x_min":0,"x_max":0,"o":"m 240 -18 b 47 157 129 -18 47 42 b 311 374 47 278 139 326 b 511 539 446 411 508 431 b 381 678 513 629 464 678 b 206 460 304 678 206 625 l 78 460 b 399 703 85 635 260 703 b 650 471 536 703 650 643 l 650 140 b 707 44 650 76 669 44 b 765 68 733 44 747 53 l 767 50 b 636 -14 728 8 690 -14 b 510 150 563 -14 510 36 l 510 224 b 240 -18 478 86 388 -18 m 183 186 b 300 61 183 101 235 61 b 511 358 429 61 511 179 l 511 446 b 351 356 496 403 443 383 b 183 186 247 322 183 285 m 364 1025 l 411 1025 l 569 804 l 547 804 l 388 943 l 228 804 l 206 804 "},"ä":{"ha":760,"x_min":0,"x_max":0,"o":"m 240 -18 b 47 157 129 -18 47 42 b 311 374 47 278 139 326 b 511 539 446 411 508 431 b 381 678 513 629 464 678 b 206 460 304 678 206 625 l 78 460 b 399 703 85 635 260 703 b 650 471 536 703 650 643 l 650 140 b 707 44 650 76 669 44 b 765 68 733 44 747 53 l 767 50 b 636 -14 728 8 690 -14 b 510 150 563 -14 510 36 l 510 224 b 240 -18 478 86 388 -18 m 183 186 b 300 61 183 101 235 61 b 511 358 429 61 511 179 l 511 446 b 351 356 496 403 443 383 b 183 186 247 322 183 285 m 211 996 l 329 996 l 329 844 l 211 844 m 444 996 l 563 996 l 563 844 l 444 844 "},"à":{"ha":760,"x_min":0,"x_max":0,"o":"m 240 -18 b 47 157 129 -18 47 42 b 311 374 47 278 139 326 b 511 539 446 411 508 431 b 381 678 513 629 464 678 b 206 460 304 678 206 625 l 78 460 b 399 703 85 635 260 703 b 650 471 536 703 650 643 l 650 140 b 707 44 650 76 669 44 b 765 68 733 44 747 53 l 767 50 b 636 -14 728 8 690 -14 b 510 150 563 -14 510 36 l 510 224 b 240 -18 478 86 388 -18 m 256 1050 l 399 804 l 381 804 l 136 1050 m 183 186 b 300 61 183 101 235 61 b 511 358 429 61 511 179 l 511 446 b 351 356 496 403 443 383 b 183 186 247 322 183 285 "},"ā":{"ha":760,"x_min":0,"x_max":0,"o":"m 240 -18 b 47 157 129 -18 47 42 b 311 374 47 278 139 326 b 511 539 446 411 508 431 b 381 678 513 629 464 678 b 206 460 304 678 206 625 l 78 460 b 399 703 85 635 260 703 b 650 471 536 703 650 643 l 650 140 b 707 44 650 76 669 44 b 765 68 733 44 747 53 l 767 50 b 636 -14 728 8 690 -14 b 510 150 563 -14 510 36 l 510 224 b 240 -18 478 86 388 -18 m 169 896 l 604 896 l 604 851 l 169 851 m 183 186 b 300 61 183 101 235 61 b 511 358 429 61 511 179 l 511 446 b 351 356 496 403 443 383 b 183 186 247 322 183 285 "},"ą":{"ha":760,"x_min":0,"x_max":0,"o":"m 240 -18 b 47 157 129 -18 47 42 b 311 374 47 278 139 326 b 511 539 446 411 508 431 b 381 678 513 629 464 678 b 206 460 304 678 206 625 l 78 460 b 399 703 85 635 260 703 b 650 471 536 703 650 643 l 650 140 b 707 44 650 76 669 44 b 765 68 733 44 747 53 l 767 50 b 711 4 749 31 731 15 b 607 -179 668 -25 607 -90 b 694 -278 607 -239 639 -278 b 785 -211 729 -278 765 -253 l 785 -235 b 656 -322 758 -287 711 -322 b 532 -199 590 -322 532 -282 b 657 -12 532 -114 596 -50 b 636 -14 650 -14 643 -14 b 510 150 563 -14 510 36 l 510 224 b 240 -18 478 86 388 -18 m 183 186 b 300 61 183 101 235 61 b 511 358 429 61 511 179 l 511 446 b 351 356 496 403 443 383 b 183 186 247 322 183 285 "},"å":{"ha":760,"x_min":0,"x_max":0,"o":"m 240 -18 b 47 157 129 -18 47 42 b 311 374 47 278 139 326 b 511 539 446 411 508 431 b 381 678 513 629 464 678 b 206 460 304 678 206 625 l 78 460 b 399 703 85 635 260 703 b 650 471 536 703 650 643 l 650 140 b 707 44 650 76 669 44 b 765 68 733 44 747 53 l 767 50 b 636 -14 728 8 690 -14 b 510 150 563 -14 510 36 l 510 224 b 240 -18 478 86 388 -18 m 183 186 b 300 61 183 101 235 61 b 511 358 429 61 511 179 l 511 446 b 351 356 496 403 443 383 b 183 186 247 322 183 285 m 251 933 b 388 1063 251 1010 307 1063 b 524 933 467 1063 524 1010 b 388 804 524 857 467 804 b 251 933 307 804 251 857 m 286 933 b 388 832 286 872 326 832 b 489 933 449 832 489 872 b 388 1035 489 994 449 1035 b 286 933 326 1035 286 994 "},"ã":{"ha":760,"x_min":0,"x_max":0,"o":"m 240 -18 b 47 157 129 -18 47 42 b 311 374 47 278 139 326 b 511 539 446 411 508 431 b 381 678 513 629 464 678 b 206 460 304 678 206 625 l 78 460 b 399 703 85 635 260 703 b 650 471 536 703 650 643 l 650 140 b 707 44 650 76 669 44 b 765 68 733 44 747 53 l 767 50 b 636 -14 728 8 690 -14 b 510 150 563 -14 510 36 l 510 224 b 240 -18 478 86 388 -18 m 178 817 b 292 1032 178 976 229 1032 b 501 882 403 1032 410 882 b 568 1018 551 882 568 929 l 592 1018 b 483 803 592 853 547 803 b 271 942 369 803 360 942 b 201 817 218 942 201 893 l 178 817 m 183 186 b 300 61 183 101 235 61 b 511 358 429 61 511 179 l 511 446 b 351 356 496 403 443 383 b 183 186 247 322 183 285 "},"æ":{"ha":1210,"x_min":0,"x_max":0,"o":"m 844 -24 b 533 258 682 -24 563 83 b 243 -18 508 108 410 -18 b 47 157 129 -18 47 42 b 311 375 47 282 147 329 b 519 539 446 411 517 431 b 381 678 521 622 472 678 b 204 460 301 678 204 624 l 78 460 b 383 703 85 635 257 701 b 606 590 478 704 563 672 b 849 703 665 663 751 703 b 1154 414 1039 703 1149 578 l 653 414 b 651 375 651 401 651 389 b 896 46 651 194 722 46 b 1146 278 1028 46 1108 135 l 1163 278 b 844 -24 1126 93 1017 -24 m 178 186 b 299 61 178 101 231 61 b 517 358 433 61 517 179 l 518 450 b 350 356 501 404 443 385 b 178 186 244 321 178 285 m 1017 439 b 847 679 1015 572 960 679 b 654 439 738 679 669 582 "},"ǽ":{"ha":1210,"x_min":0,"x_max":0,"o":"m 844 -24 b 533 258 682 -24 563 83 b 243 -18 508 108 410 -18 b 47 157 129 -18 47 42 b 311 375 47 282 147 329 b 519 539 446 411 517 431 b 381 678 521 622 472 678 b 204 460 301 678 204 624 l 78 460 b 383 703 85 635 257 701 b 606 590 478 704 563 672 b 849 703 665 663 751 703 b 1154 414 1039 703 1149 578 l 653 414 b 651 375 651 401 651 389 b 896 46 651 194 722 46 b 1146 278 1028 46 1108 135 l 1163 278 b 844 -24 1126 93 1017 -24 m 178 186 b 299 61 178 101 231 61 b 517 358 433 61 517 179 l 518 450 b 350 356 501 404 443 385 b 178 186 244 321 178 285 m 728 1050 l 847 1050 l 604 804 l 585 804 m 1017 439 b 847 679 1015 572 960 679 b 654 439 738 679 669 582 "},"b":{"ha":864,"x_min":0,"x_max":0,"o":"m 15 10 b 125 186 111 24 125 60 l 125 894 b 31 1036 125 1004 113 1026 l 31 1043 l 283 1090 l 285 1082 b 267 894 271 1065 267 1036 l 267 478 b 531 703 299 607 381 703 b 811 350 706 703 811 553 b 514 -14 811 135 686 -14 b 267 139 408 -14 315 40 b 288 0 269 83 274 39 l 15 0 m 267 176 b 457 32 301 83 375 32 b 661 350 588 32 661 153 b 476 650 661 517 604 650 b 267 329 342 650 267 519 l 267 196 l 267 176 "},"c":{"ha":760,"x_min":0,"x_max":0,"o":"m 388 -24 b 53 335 190 -24 53 115 b 403 703 53 567 207 703 b 711 449 586 703 697 590 l 590 449 b 407 679 578 563 536 679 b 197 376 269 679 197 556 b 444 40 197 192 268 40 b 700 285 576 40 664 131 l 718 285 b 388 -24 686 100 572 -24 "},"ć":{"ha":760,"x_min":0,"x_max":0,"o":"m 388 -24 b 53 335 190 -24 53 115 b 403 703 53 567 207 703 b 711 449 586 703 697 590 l 590 449 b 407 679 578 563 536 679 b 197 376 269 679 197 556 b 444 40 197 192 268 40 b 700 285 576 40 664 131 l 718 285 b 388 -24 686 100 572 -24 m 507 1050 l 626 1050 l 383 804 l 364 804 "},"č":{"ha":760,"x_min":0,"x_max":0,"o":"m 388 -24 b 53 335 190 -24 53 115 b 403 703 53 567 207 703 b 711 449 586 703 697 590 l 590 449 b 407 679 578 563 536 679 b 197 376 269 679 197 556 b 444 40 197 192 268 40 b 700 285 576 40 664 131 l 718 285 b 388 -24 686 100 572 -24 m 203 1050 l 382 888 l 560 1050 l 582 1050 l 410 804 l 353 804 l 181 1050 "},"ç":{"ha":760,"x_min":0,"x_max":0,"o":"m 382 -339 b 208 -257 313 -339 243 -314 l 224 -244 b 361 -307 249 -283 299 -307 b 461 -228 411 -307 461 -289 b 360 -147 461 -175 421 -147 b 299 -157 339 -147 322 -150 l 286 -140 l 369 -24 b 53 335 182 -15 53 122 b 403 703 53 567 207 703 b 711 449 586 703 697 590 l 590 449 b 407 679 578 563 536 679 b 197 376 269 679 197 556 b 444 40 197 192 268 40 b 700 285 576 40 664 131 l 718 285 b 413 -22 688 108 582 -12 l 358 -99 b 397 -96 371 -97 383 -96 b 540 -214 483 -96 540 -142 b 382 -339 540 -306 453 -339 "},"ĉ":{"ha":760,"x_min":0,"x_max":0,"o":"m 388 -24 b 53 335 190 -24 53 115 b 403 703 53 567 207 703 b 711 449 586 703 697 590 l 590 449 b 407 679 578 563 536 679 b 197 376 269 679 197 556 b 444 40 197 192 268 40 b 700 285 576 40 664 131 l 718 285 b 388 -24 686 100 572 -24 m 358 1025 l 406 1025 l 564 804 l 542 804 l 382 943 l 222 804 l 200 804 "},"ċ":{"ha":760,"x_min":0,"x_max":0,"o":"m 388 -24 b 53 335 190 -24 53 115 b 403 703 53 567 207 703 b 711 449 586 703 697 590 l 590 449 b 407 679 578 563 536 679 b 197 376 269 679 197 556 b 444 40 197 192 268 40 b 700 285 576 40 664 131 l 718 285 b 388 -24 686 100 572 -24 m 317 993 l 446 993 l 446 850 l 317 850 "},"d":{"ha":854,"x_min":0,"x_max":0,"o":"m 581 0 b 597 174 593 57 597 106 l 597 210 b 336 -14 564 82 481 -14 b 53 336 157 -14 53 138 b 354 700 53 554 178 700 b 597 550 461 700 551 646 l 597 896 b 503 1036 597 1006 585 1026 l 503 1043 l 756 1090 l 757 1083 b 739 896 743 1067 739 1036 l 739 186 b 836 10 739 60 751 24 l 836 0 l 581 0 m 204 336 b 389 38 204 168 260 38 b 597 356 522 38 597 168 l 597 510 b 406 656 569 599 490 656 b 204 336 279 656 204 532 "},"ð":{"ha":822,"x_min":0,"x_max":0,"o":"m 408 -24 b 51 342 203 -24 51 121 b 400 690 51 553 207 690 b 615 565 494 690 569 647 b 443 933 589 728 529 847 l 164 757 l 164 788 l 424 951 b 168 1083 354 1015 268 1058 l 192 1097 b 478 986 293 1083 392 1046 l 699 1125 l 699 1094 l 501 969 b 761 411 654 854 761 665 b 408 -24 761 117 618 -24 m 197 339 b 408 -1 197 132 272 -1 b 618 347 551 -1 618 143 b 411 667 618 554 546 667 b 197 339 269 667 197 540 "},"ď":{"ha":854,"x_min":0,"x_max":0,"o":"m 581 0 b 597 174 593 57 597 106 l 597 210 b 336 -14 564 82 481 -14 b 53 336 157 -14 53 138 b 354 700 53 554 178 700 b 597 550 461 700 551 646 l 597 896 b 503 1036 597 1006 585 1026 l 503 1043 l 756 1090 l 757 1083 b 739 896 743 1067 739 1036 l 739 186 b 836 10 739 60 751 24 l 836 0 l 581 0 m 204 336 b 389 38 204 168 260 38 b 597 356 522 38 597 168 l 597 510 b 406 656 569 599 490 656 b 204 336 279 656 204 532 m 861 1083 l 965 1083 l 824 757 l 807 757 "},"đ":{"ha":854,"x_min":0,"x_max":0,"o":"m 581 0 b 597 174 593 57 597 106 l 597 210 b 336 -14 564 82 481 -14 b 53 336 157 -14 53 138 b 354 700 53 554 178 700 b 597 550 461 700 551 646 l 597 833 l 285 833 l 285 860 l 597 860 l 597 896 b 503 1036 597 1006 585 1026 l 503 1043 l 756 1090 l 757 1083 b 739 896 743 1067 739 1036 l 739 860 l 875 860 l 875 833 l 739 833 l 739 186 b 836 10 739 60 751 24 l 836 0 l 581 0 m 204 336 b 389 38 204 168 260 38 b 597 356 522 38 597 168 l 597 510 b 406 656 569 599 490 656 b 204 336 279 656 204 532 "},"e":{"ha":769,"x_min":0,"x_max":0,"o":"m 389 -24 b 53 335 189 -24 53 115 b 400 703 53 563 208 703 b 714 414 592 703 708 578 l 197 414 b 196 375 196 401 196 389 b 442 46 196 194 267 46 b 703 278 581 46 663 135 l 722 278 b 389 -24 683 93 574 -24 m 576 444 b 399 679 574 576 515 679 b 200 444 288 679 217 583 "},"é":{"ha":769,"x_min":0,"x_max":0,"o":"m 389 -24 b 53 335 189 -24 53 115 b 400 703 53 563 208 703 b 714 414 592 703 708 578 l 197 414 b 196 375 196 401 196 389 b 442 46 196 194 267 46 b 703 278 581 46 663 135 l 722 278 b 389 -24 683 93 574 -24 m 576 444 b 399 679 574 576 515 679 b 200 444 288 679 217 583 m 513 1050 l 632 1050 l 389 804 l 369 804 "},"ě":{"ha":769,"x_min":0,"x_max":0,"o":"m 389 -24 b 53 335 189 -24 53 115 b 400 703 53 563 208 703 b 714 414 592 703 708 578 l 197 414 b 196 375 196 401 196 389 b 442 46 196 194 267 46 b 703 278 581 46 663 135 l 722 278 b 389 -24 683 93 574 -24 m 208 1050 l 388 888 l 565 1050 l 588 1050 l 415 804 l 358 804 l 186 1050 m 576 444 b 399 679 574 576 515 679 b 200 444 288 679 217 583 "},"ê":{"ha":769,"x_min":0,"x_max":0,"o":"m 389 -24 b 53 335 189 -24 53 115 b 400 703 53 563 208 703 b 714 414 592 703 708 578 l 197 414 b 196 375 196 401 196 389 b 442 46 196 194 267 46 b 703 278 581 46 663 135 l 722 278 b 389 -24 683 93 574 -24 m 576 444 b 399 679 574 576 515 679 b 200 444 288 679 217 583 m 364 1025 l 411 1025 l 569 804 l 547 804 l 388 943 l 228 804 l 206 804 "},"ë":{"ha":769,"x_min":0,"x_max":0,"o":"m 389 -24 b 53 335 189 -24 53 115 b 400 703 53 563 208 703 b 714 414 592 703 708 578 l 197 414 b 196 375 196 401 196 389 b 442 46 196 194 267 46 b 703 278 581 46 663 135 l 722 278 b 389 -24 683 93 574 -24 m 576 444 b 399 679 574 576 515 679 b 200 444 288 679 217 583 m 211 996 l 329 996 l 329 844 l 211 844 m 444 996 l 563 996 l 563 844 l 444 844 "},"ė":{"ha":769,"x_min":0,"x_max":0,"o":"m 389 -24 b 53 335 189 -24 53 115 b 400 703 53 563 208 703 b 714 414 592 703 708 578 l 197 414 b 196 375 196 401 196 389 b 442 46 196 194 267 46 b 703 278 581 46 663 135 l 722 278 b 389 -24 683 93 574 -24 m 576 444 b 399 679 574 576 515 679 b 200 444 288 679 217 583 m 322 993 l 451 993 l 451 850 l 322 850 "},"è":{"ha":769,"x_min":0,"x_max":0,"o":"m 389 -24 b 53 335 189 -24 53 115 b 400 703 53 563 208 703 b 714 414 592 703 708 578 l 197 414 b 196 375 196 401 196 389 b 442 46 196 194 267 46 b 703 278 581 46 663 135 l 722 278 b 389 -24 683 93 574 -24 m 256 1050 l 399 804 l 381 804 l 136 1050 m 576 444 b 399 679 574 576 515 679 b 200 444 288 679 217 583 "},"ē":{"ha":769,"x_min":0,"x_max":0,"o":"m 389 -24 b 53 335 189 -24 53 115 b 400 703 53 563 208 703 b 714 414 592 703 708 578 l 197 414 b 196 375 196 401 196 389 b 442 46 196 194 267 46 b 703 278 581 46 663 135 l 722 278 b 389 -24 683 93 574 -24 m 169 896 l 604 896 l 604 851 l 169 851 m 576 444 b 399 679 574 576 515 679 b 200 444 288 679 217 583 "},"ę":{"ha":769,"x_min":0,"x_max":0,"o":"m 389 -24 b 53 335 189 -24 53 115 b 400 703 53 563 208 703 b 714 414 592 703 708 578 l 197 414 b 196 375 196 401 196 389 b 442 46 196 194 267 46 b 703 278 581 46 663 135 l 722 278 b 526 3 694 144 629 47 b 436 -171 486 -31 436 -90 b 524 -269 436 -231 468 -269 b 614 -203 558 -269 594 -244 l 614 -226 b 485 -314 588 -279 540 -314 b 361 -190 419 -314 361 -274 b 468 -15 361 -114 413 -53 b 389 -24 443 -21 417 -24 m 576 444 b 399 679 574 576 515 679 b 200 444 288 679 217 583 "},"ẽ":{"ha":769,"x_min":0,"x_max":0,"o":"m 389 -24 b 53 335 189 -24 53 115 b 400 703 53 563 208 703 b 714 414 592 703 708 578 l 197 414 b 196 375 196 401 196 389 b 442 46 196 194 267 46 b 703 278 581 46 663 135 l 722 278 b 389 -24 683 93 574 -24 m 178 817 b 292 1032 178 976 229 1032 b 501 882 403 1032 410 882 b 568 1018 551 882 568 929 l 592 1018 b 483 803 592 853 547 803 b 271 942 369 803 360 942 b 201 817 218 942 201 893 l 178 817 m 576 444 b 399 679 574 576 515 679 b 200 444 288 679 217 583 "},"ə":{"ha":769,"x_min":0,"x_max":0,"o":"m 381 703 b 717 344 581 703 717 564 b 369 -24 717 117 561 -24 b 56 265 178 -24 61 101 l 572 265 b 574 304 574 278 574 290 b 328 633 574 485 503 633 b 67 401 189 633 107 544 l 47 401 b 381 703 86 586 196 703 m 193 235 b 371 0 196 103 254 0 b 569 235 482 0 553 96 l 193 235 "},"f":{"ha":542,"x_min":0,"x_max":0,"o":"m 51 10 b 154 186 142 24 154 60 l 154 647 l 7 647 l 7 679 l 154 679 l 154 775 b 415 1097 154 1001 274 1097 b 656 954 535 1097 621 1031 l 556 886 b 400 1068 533 993 489 1068 b 279 874 319 1068 279 1004 b 293 679 279 821 286 746 l 544 679 l 544 647 l 296 647 l 296 193 b 443 10 296 63 314 25 l 443 0 l 51 0 "},"g":{"ha":850,"x_min":0,"x_max":0,"o":"m 332 -349 b 85 -222 199 -349 85 -314 b 294 -69 85 -150 175 -101 b 244 -72 279 -71 261 -72 b 57 57 128 -72 57 -26 b 224 231 57 131 124 190 b 108 438 154 274 108 343 b 421 696 108 604 254 696 b 665 610 518 696 607 667 b 833 822 674 732 739 819 l 833 701 b 686 588 744 701 697 661 b 738 438 718 547 738 497 b 421 179 738 269 592 179 b 250 217 358 179 300 192 b 149 106 178 186 149 146 b 260 42 149 63 179 42 b 671 88 376 42 560 88 b 844 -43 778 88 844 44 b 332 -349 844 -224 578 -349 m 178 -212 b 351 -319 178 -285 238 -319 b 735 -103 540 -319 735 -229 b 631 -29 735 -51 703 -29 b 367 -71 581 -29 485 -40 b 178 -212 238 -103 178 -143 m 253 438 b 421 199 253 289 317 199 b 593 438 529 199 593 289 b 421 675 593 586 529 675 b 253 438 317 675 253 586 "},"ğ":{"ha":850,"x_min":0,"x_max":0,"o":"m 332 -349 b 85 -222 199 -349 85 -314 b 294 -69 85 -150 175 -101 b 244 -72 279 -71 261 -72 b 57 57 128 -72 57 -26 b 224 231 57 131 124 190 b 108 438 154 274 108 343 b 421 696 108 604 254 696 b 665 610 518 696 607 667 b 833 822 674 732 739 819 l 833 701 b 686 588 744 701 697 661 b 738 438 718 547 738 497 b 421 179 738 269 592 179 b 250 217 358 179 300 192 b 149 106 178 186 149 146 b 260 42 149 63 179 42 b 671 88 376 42 560 88 b 844 -43 778 88 844 44 b 332 -349 844 -224 578 -349 m 178 -212 b 351 -319 178 -285 238 -319 b 735 -103 540 -319 735 -229 b 631 -29 735 -51 703 -29 b 367 -71 581 -29 485 -40 b 178 -212 238 -103 178 -143 m 274 1028 b 422 874 274 935 317 874 b 571 1028 528 874 571 935 l 599 1028 b 422 804 599 882 522 804 b 246 1028 322 804 246 882 m 253 438 b 421 199 253 289 317 199 b 593 438 529 199 593 289 b 421 675 593 586 529 675 b 253 438 317 675 253 586 "},"ǧ":{"ha":850,"x_min":0,"x_max":0,"o":"m 332 -349 b 85 -222 199 -349 85 -314 b 294 -69 85 -150 175 -101 b 244 -72 279 -71 261 -72 b 57 57 128 -72 57 -26 b 224 231 57 131 124 190 b 108 438 154 274 108 343 b 421 696 108 604 254 696 b 665 610 518 696 607 667 b 833 822 674 732 739 819 l 833 701 b 686 588 744 701 697 661 b 738 438 718 547 738 497 b 421 179 738 269 592 179 b 250 217 358 179 300 192 b 149 106 178 186 149 146 b 260 42 149 63 179 42 b 671 88 376 42 560 88 b 844 -43 778 88 844 44 b 332 -349 844 -224 578 -349 m 178 -212 b 351 -319 178 -285 238 -319 b 735 -103 540 -319 735 -229 b 631 -29 735 -51 703 -29 b 367 -71 581 -29 485 -40 b 178 -212 238 -103 178 -143 m 243 1050 l 422 888 l 600 1050 l 622 1050 l 450 804 l 393 804 l 221 1050 m 253 438 b 421 199 253 289 317 199 b 593 438 529 199 593 289 b 421 675 593 586 529 675 b 253 438 317 675 253 586 "},"ĝ":{"ha":850,"x_min":0,"x_max":0,"o":"m 332 -349 b 85 -222 199 -349 85 -314 b 294 -69 85 -150 175 -101 b 244 -72 279 -71 261 -72 b 57 57 128 -72 57 -26 b 224 231 57 131 124 190 b 108 438 154 274 108 343 b 421 696 108 604 254 696 b 665 610 518 696 607 667 b 833 822 674 732 739 819 l 833 701 b 686 588 744 701 697 661 b 738 438 718 547 738 497 b 421 179 738 269 592 179 b 250 217 358 179 300 192 b 149 106 178 186 149 146 b 260 42 149 63 179 42 b 671 88 376 42 560 88 b 844 -43 778 88 844 44 b 332 -349 844 -224 578 -349 m 178 -212 b 351 -319 178 -285 238 -319 b 735 -103 540 -319 735 -229 b 631 -29 735 -51 703 -29 b 367 -71 581 -29 485 -40 b 178 -212 238 -103 178 -143 m 399 1025 l 446 1025 l 604 804 l 582 804 l 422 943 l 263 804 l 240 804 m 253 438 b 421 199 253 289 317 199 b 593 438 529 199 593 289 b 421 675 593 586 529 675 b 253 438 317 675 253 586 "},"ģ":{"ha":850,"x_min":0,"x_max":0,"o":"m 332 -349 b 85 -222 199 -349 85 -314 b 294 -69 85 -150 175 -101 b 244 -72 279 -71 261 -72 b 57 57 128 -72 57 -26 b 224 231 57 131 124 190 b 108 438 154 274 108 343 b 421 696 108 604 254 696 b 665 610 518 696 607 667 b 833 822 674 732 739 819 l 833 701 b 686 588 744 701 697 661 b 738 438 718 547 738 497 b 421 179 738 269 592 179 b 250 217 358 179 300 192 b 149 106 178 186 149 146 b 260 42 149 63 179 42 b 671 88 376 42 560 88 b 844 -43 778 88 844 44 b 332 -349 844 -224 578 -349 m 178 -212 b 351 -319 178 -285 238 -319 b 735 -103 540 -319 735 -229 b 631 -29 735 -51 703 -29 b 367 -71 581 -29 485 -40 b 178 -212 238 -103 178 -143 m 253 438 b 421 199 253 289 317 199 b 593 438 529 199 593 289 b 421 675 593 586 529 675 b 253 438 317 675 253 586 m 514 1057 l 532 1057 l 481 807 l 368 807 "},"ġ":{"ha":850,"x_min":0,"x_max":0,"o":"m 332 -349 b 85 -222 199 -349 85 -314 b 294 -69 85 -150 175 -101 b 244 -72 279 -71 261 -72 b 57 57 128 -72 57 -26 b 224 231 57 131 124 190 b 108 438 154 274 108 343 b 421 696 108 604 254 696 b 665 610 518 696 607 667 b 833 822 674 732 739 819 l 833 701 b 686 588 744 701 697 661 b 738 438 718 547 738 497 b 421 179 738 269 592 179 b 250 217 358 179 300 192 b 149 106 178 186 149 146 b 260 42 149 63 179 42 b 671 88 376 42 560 88 b 844 -43 778 88 844 44 b 332 -349 844 -224 578 -349 m 178 -212 b 351 -319 178 -285 238 -319 b 735 -103 540 -319 735 -229 b 631 -29 735 -51 703 -29 b 367 -71 581 -29 485 -40 b 178 -212 238 -103 178 -143 m 253 438 b 421 199 253 289 317 199 b 593 438 529 199 593 289 b 421 675 593 586 529 675 b 253 438 317 675 253 586 m 357 993 l 486 993 l 486 850 l 357 850 "},"h":{"ha":854,"x_min":0,"x_max":0,"o":"m 15 10 b 125 186 111 24 125 60 l 125 896 b 22 1033 125 1003 106 1024 l 22 1043 l 283 1090 l 286 1081 b 267 896 272 1064 267 1036 l 267 517 b 528 703 310 619 397 703 b 739 458 661 703 739 632 l 739 186 b 835 10 739 60 751 24 l 835 0 l 504 0 l 504 10 b 597 186 586 24 597 60 l 597 461 b 463 642 597 589 551 642 b 267 468 364 642 296 565 l 267 186 b 371 10 267 60 279 24 l 371 0 l 15 0 "},"ħ":{"ha":854,"x_min":0,"x_max":0,"o":"m 15 10 b 125 186 111 24 125 60 l 125 833 l -35 833 l -35 860 l 125 860 l 125 896 b 22 1033 125 1003 106 1024 l 22 1043 l 283 1090 l 286 1081 b 267 896 272 1064 267 1036 l 267 860 l 556 860 l 556 833 l 267 833 l 267 517 b 528 703 310 619 397 703 b 739 458 661 703 739 632 l 739 186 b 835 10 739 60 751 24 l 835 0 l 504 0 l 504 10 b 597 186 586 24 597 60 l 597 461 b 463 642 597 589 551 642 b 267 468 364 642 296 565 l 267 186 b 371 10 267 60 279 24 l 371 0 l 15 0 "},"ĥ":{"ha":854,"x_min":0,"x_max":0,"o":"m 15 10 b 125 186 111 24 125 60 l 125 896 b 22 1033 125 1003 106 1024 l 22 1043 l 283 1090 l 286 1081 b 267 896 272 1064 267 1036 l 267 517 b 528 703 310 619 397 703 b 739 458 661 703 739 632 l 739 186 b 835 10 739 60 751 24 l 835 0 l 504 0 l 504 10 b 597 186 586 24 597 60 l 597 461 b 463 642 597 589 551 642 b 267 468 364 642 296 565 l 267 186 b 371 10 267 60 279 24 l 371 0 l 15 0 m 276 1375 l 333 1375 l 506 1182 l 483 1182 l 306 1308 l 126 1182 l 104 1182 "},"i":{"ha":361,"x_min":0,"x_max":0,"o":"m 6 10 b 108 186 96 24 108 60 l 110 497 b 10 665 110 633 100 658 l 10 675 l 251 694 l 251 186 b 354 10 251 60 264 24 l 354 0 l 6 0 m 107 1007 l 249 1007 l 249 850 l 107 850 "},"ı":{"ha":361,"x_min":0,"x_max":0,"o":"m 6 10 b 108 186 96 24 108 60 l 110 497 b 10 665 110 633 100 658 l 10 675 l 251 694 l 251 186 b 354 10 251 60 264 24 l 354 0 l 6 0 "},"í":{"ha":361,"x_min":0,"x_max":0,"o":"m 6 10 b 108 186 96 24 108 60 l 110 497 b 10 665 110 633 100 658 l 10 675 l 251 694 l 251 186 b 354 10 251 60 264 24 l 354 0 l 6 0 m 303 1050 l 422 1050 l 179 804 l 160 804 "},"î":{"ha":361,"x_min":0,"x_max":0,"o":"m 6 10 b 108 186 96 24 108 60 l 110 497 b 10 665 110 633 100 658 l 10 675 l 251 694 l 251 186 b 354 10 251 60 264 24 l 354 0 l 6 0 m 154 1025 l 201 1025 l 360 804 l 338 804 l 178 943 l 18 804 l -4 804 "},"ï":{"ha":361,"x_min":0,"x_max":0,"o":"m 6 10 b 108 186 96 24 108 60 l 110 497 b 10 665 110 633 100 658 l 10 675 l 251 694 l 251 186 b 354 10 251 60 264 24 l 354 0 l 6 0 m 1 996 l 119 996 l 119 844 l 1 844 m 235 996 l 353 996 l 353 844 l 235 844 "},"ì":{"ha":361,"x_min":0,"x_max":0,"o":"m 6 10 b 108 186 96 24 108 60 l 110 497 b 10 665 110 633 100 658 l 10 675 l 251 694 l 251 186 b 354 10 251 60 264 24 l 354 0 l 6 0 m 46 1050 l 189 804 l 171 804 l -74 1050 "},"ĳ":{"ha":721,"x_min":0,"x_max":0,"o":"m 6 10 b 108 186 96 24 108 60 l 110 497 b 10 665 110 633 100 658 l 10 675 l 251 694 l 251 186 b 354 10 251 60 264 24 l 354 0 l 6 0 m 107 1007 l 249 1007 l 249 850 l 107 850 m 329 -325 b 481 -86 456 -303 481 -228 l 481 497 b 379 665 481 633 469 658 l 379 675 l 525 688 l 622 694 l 622 -50 b 329 -342 622 -225 506 -332 m 463 1007 l 604 1007 l 604 850 l 463 850 "},"ī":{"ha":361,"x_min":0,"x_max":0,"o":"m 6 10 b 108 186 96 24 108 60 l 110 497 b 10 665 110 633 100 658 l 10 675 l 251 694 l 251 186 b 354 10 251 60 264 24 l 354 0 l 6 0 m -40 896 l 394 896 l 394 851 l -40 851 "},"į":{"ha":361,"x_min":0,"x_max":0,"o":"m 6 10 b 108 186 96 24 108 60 l 110 497 b 10 665 110 633 100 658 l 10 675 l 251 694 l 251 186 b 354 10 251 60 264 24 l 354 0 l 274 0 b 168 -185 231 -29 168 -94 b 256 -283 168 -244 200 -283 b 346 -217 290 -283 326 -258 l 346 -240 b 217 -328 319 -293 272 -328 b 93 -204 151 -328 93 -287 b 253 0 93 -103 183 -31 l 6 0 m 107 1007 l 249 1007 l 249 850 l 107 850 "},"ĩ":{"ha":361,"x_min":0,"x_max":0,"o":"m 6 10 b 108 186 96 24 108 60 l 110 497 b 10 665 110 633 100 658 l 10 675 l 251 694 l 251 186 b 354 10 251 60 264 24 l 354 0 l 6 0 m -32 817 b 82 1032 -32 976 19 1032 b 292 882 193 1032 200 882 b 358 1018 342 882 358 929 l 382 1018 b 274 803 382 853 338 803 b 61 942 160 803 150 942 b -8 817 8 942 -8 893 l -32 817 "},"j":{"ha":354,"x_min":0,"x_max":0,"o":"m -37 -325 b 114 -86 89 -303 114 -228 l 114 497 b 13 665 114 633 103 658 l 13 675 l 158 688 l 256 694 l 256 -50 b -37 -342 256 -225 139 -332 l -37 -325 m 96 1007 l 238 1007 l 238 850 l 96 850 "},"ȷ":{"ha":354,"x_min":0,"x_max":0,"o":"m -37 -325 b 114 -86 89 -303 114 -228 l 114 497 b 13 665 114 633 103 658 l 13 675 l 158 688 l 256 694 l 256 -50 b -37 -342 256 -225 139 -332 l -37 -325 "},"ĵ":{"ha":354,"x_min":0,"x_max":0,"o":"m -37 -325 b 114 -86 89 -303 114 -228 l 114 497 b 13 665 114 633 103 658 l 13 675 l 158 688 l 256 694 l 256 -50 b -37 -342 256 -225 139 -332 l -37 -325 m 143 1025 l 190 1025 l 349 804 l 326 804 l 167 943 l 7 804 l -15 804 "},"k":{"ha":771,"x_min":0,"x_max":0,"o":"m 265 371 l 265 186 b 371 10 265 60 279 24 l 371 0 l 15 0 l 15 10 b 125 186 111 24 125 60 l 125 896 b 29 1036 125 1006 111 1026 l 29 1043 l 282 1090 l 285 1082 b 265 896 271 1065 265 1036 l 265 388 l 474 558 b 501 672 543 614 542 661 l 501 679 l 724 679 l 724 669 b 539 575 661 658 619 640 l 358 428 l 753 11 l 753 0 l 585 0 "},"ķ":{"ha":771,"x_min":0,"x_max":0,"o":"m 265 371 l 265 186 b 371 10 265 60 279 24 l 371 0 l 15 0 l 15 10 b 125 186 111 24 125 60 l 125 896 b 29 1036 125 1006 111 1026 l 29 1043 l 282 1090 l 285 1082 b 265 896 271 1065 265 1036 l 265 388 l 474 558 b 501 672 543 614 542 661 l 501 679 l 724 679 l 724 669 b 539 575 661 658 619 640 l 358 428 l 753 11 l 753 0 l 585 0 m 371 -83 l 492 -83 l 304 -336 l 292 -332 "},"l":{"ha":389,"x_min":0,"x_max":0,"o":"m 15 10 b 125 186 111 24 125 60 l 125 896 b 22 1033 125 1003 106 1024 l 22 1043 l 283 1090 l 286 1081 b 267 896 272 1064 267 1036 l 267 186 b 371 10 267 60 279 24 l 371 0 l 15 0 "},"ĺ":{"ha":389,"x_min":0,"x_max":0,"o":"m 15 10 b 125 186 111 24 125 60 l 125 896 b 22 1033 125 1003 106 1024 l 22 1043 l 283 1090 l 286 1081 b 267 896 272 1064 267 1036 l 267 186 b 371 10 267 60 279 24 l 371 0 l 15 0 m 307 1375 l 442 1375 l 207 1182 l 183 1182 "},"ľ":{"ha":389,"x_min":0,"x_max":0,"o":"m 15 10 b 125 186 111 24 125 60 l 125 896 b 22 1033 125 1003 106 1024 l 22 1043 l 283 1090 l 286 1081 b 267 896 272 1064 267 1036 l 267 186 b 371 10 267 60 279 24 l 371 0 l 15 0 m 390 1083 l 494 1083 l 353 757 l 336 757 "},"ļ":{"ha":389,"x_min":0,"x_max":0,"o":"m 15 10 b 125 186 111 24 125 60 l 125 896 b 22 1033 125 1003 106 1024 l 22 1043 l 283 1090 l 286 1081 b 267 896 272 1064 267 1036 l 267 186 b 371 10 267 60 279 24 l 371 0 l 15 0 m 136 -83 l 257 -83 l 69 -336 l 57 -332 "},"ŀ":{"ha":486,"x_min":0,"x_max":0,"o":"m 15 10 b 125 186 111 24 125 60 l 125 896 b 22 1033 125 1003 106 1024 l 22 1043 l 283 1090 l 286 1081 b 267 896 272 1064 267 1036 l 267 186 b 371 10 267 60 279 24 l 371 0 l 15 0 m 368 649 l 506 649 l 506 483 l 368 483 "},"ł":{"ha":389,"x_min":0,"x_max":0,"o":"m 15 10 b 125 186 111 24 125 60 l 125 503 l -1 435 l -1 467 l 125 535 l 125 896 b 22 1033 125 1003 106 1024 l 22 1043 l 283 1090 l 286 1081 b 267 896 272 1064 267 1036 l 267 610 l 396 679 l 396 647 l 267 578 l 267 186 b 371 10 267 60 279 24 l 371 0 l 15 0 "},"m":{"ha":1307,"x_min":0,"x_max":0,"o":"m 25 10 b 126 186 114 24 126 60 l 126 493 b 28 669 126 629 114 656 l 28 679 l 306 679 b 265 513 274 665 267 633 b 522 703 307 618 393 703 b 726 507 640 703 714 646 b 986 703 767 615 854 703 b 1193 458 1117 703 1193 632 l 1193 186 b 1288 10 1193 60 1206 24 l 1288 0 l 964 0 l 964 10 b 1054 186 1043 24 1054 60 l 1054 461 b 922 642 1054 589 1010 642 b 729 463 825 642 758 563 l 729 458 l 729 186 b 824 10 729 60 742 24 l 824 0 l 500 0 l 500 10 b 590 186 579 24 590 60 l 590 461 b 458 642 590 589 546 642 b 265 463 361 642 294 563 l 265 186 b 358 10 265 60 276 24 l 358 0 l 25 0 "},"n":{"ha":858,"x_min":0,"x_max":0,"o":"m 25 10 b 128 186 115 24 128 60 l 128 493 b 28 669 128 629 115 656 l 28 679 l 311 679 b 269 513 279 665 271 632 b 532 703 311 618 400 703 b 743 458 665 703 743 632 l 743 186 b 839 10 743 60 756 24 l 839 0 l 508 0 l 508 10 b 601 186 590 24 601 60 l 601 461 b 467 642 601 589 556 642 b 269 463 367 642 299 563 l 269 186 b 365 10 269 60 282 24 l 365 0 l 25 0 "},"ń":{"ha":858,"x_min":0,"x_max":0,"o":"m 25 10 b 128 186 115 24 128 60 l 128 493 b 28 669 128 629 115 656 l 28 679 l 311 679 b 269 513 279 665 271 632 b 532 703 311 618 400 703 b 743 458 665 703 743 632 l 743 186 b 839 10 743 60 756 24 l 839 0 l 508 0 l 508 10 b 601 186 590 24 601 60 l 601 461 b 467 642 601 589 556 642 b 269 463 367 642 299 563 l 269 186 b 365 10 269 60 282 24 l 365 0 l 25 0 m 553 1050 l 672 1050 l 429 804 l 410 804 "},"ň":{"ha":858,"x_min":0,"x_max":0,"o":"m 25 10 b 128 186 115 24 128 60 l 128 493 b 28 669 128 629 115 656 l 28 679 l 311 679 b 269 513 279 665 271 632 b 532 703 311 618 400 703 b 743 458 665 703 743 632 l 743 186 b 839 10 743 60 756 24 l 839 0 l 508 0 l 508 10 b 601 186 590 24 601 60 l 601 461 b 467 642 601 589 556 642 b 269 463 367 642 299 563 l 269 186 b 365 10 269 60 282 24 l 365 0 l 25 0 m 249 1050 l 428 888 l 606 1050 l 628 1050 l 456 804 l 399 804 l 226 1050 "},"ņ":{"ha":858,"x_min":0,"x_max":0,"o":"m 25 10 b 128 186 115 24 128 60 l 128 493 b 28 669 128 629 115 656 l 28 679 l 311 679 b 269 513 279 665 271 632 b 532 703 311 618 400 703 b 743 458 665 703 743 632 l 743 186 b 839 10 743 60 756 24 l 839 0 l 508 0 l 508 10 b 601 186 590 24 601 60 l 601 461 b 467 642 601 589 556 642 b 269 463 367 642 299 563 l 269 186 b 365 10 269 60 282 24 l 365 0 l 25 0 m 378 -83 l 499 -83 l 311 -336 l 299 -332 "},"ñ":{"ha":858,"x_min":0,"x_max":0,"o":"m 25 10 b 128 186 115 24 128 60 l 128 493 b 28 669 128 629 115 656 l 28 679 l 311 679 b 269 513 279 665 271 632 b 532 703 311 618 400 703 b 743 458 665 703 743 632 l 743 186 b 839 10 743 60 756 24 l 839 0 l 508 0 l 508 10 b 601 186 590 24 601 60 l 601 461 b 467 642 601 589 556 642 b 269 463 367 642 299 563 l 269 186 b 365 10 269 60 282 24 l 365 0 l 25 0 m 218 817 b 332 1032 218 976 269 1032 b 542 882 443 1032 450 882 b 608 1018 592 882 608 929 l 632 1018 b 524 803 632 853 588 803 b 311 942 410 803 400 942 b 242 817 258 942 242 893 l 218 817 "},"ŋ":{"ha":842,"x_min":0,"x_max":0,"o":"m 497 -282 b 601 -31 576 -233 601 -175 l 601 461 b 465 642 601 589 557 642 b 269 460 367 642 297 561 l 269 186 b 367 10 269 60 282 24 l 367 0 l 25 0 l 25 10 b 128 186 115 24 128 60 l 128 493 b 28 669 128 629 115 656 l 28 679 l 311 679 b 269 506 279 664 269 632 b 532 703 310 614 399 703 b 743 458 664 703 743 632 l 743 -31 b 503 -297 743 -189 636 -249 l 497 -282 "},"o":{"ha":819,"x_min":0,"x_max":0,"o":"m 410 -24 b 53 340 200 -24 53 119 b 410 703 53 561 200 703 b 767 340 619 703 767 561 b 410 -24 767 119 619 -24 m 200 340 b 411 -1 200 131 271 -1 b 619 340 547 -1 619 131 b 411 681 619 551 547 681 b 200 340 271 681 200 551 "},"ó":{"ha":819,"x_min":0,"x_max":0,"o":"m 410 -24 b 53 340 200 -24 53 119 b 410 703 53 561 200 703 b 767 340 619 703 767 561 b 410 -24 767 119 619 -24 m 200 340 b 411 -1 200 131 271 -1 b 619 340 547 -1 619 131 b 411 681 619 551 547 681 b 200 340 271 681 200 551 m 535 1050 l 654 1050 l 411 804 l 392 804 "},"ô":{"ha":819,"x_min":0,"x_max":0,"o":"m 410 -24 b 53 340 200 -24 53 119 b 410 703 53 561 200 703 b 767 340 619 703 767 561 b 410 -24 767 119 619 -24 m 200 340 b 411 -1 200 131 271 -1 b 619 340 547 -1 619 131 b 411 681 619 551 547 681 b 200 340 271 681 200 551 m 386 1025 l 433 1025 l 592 804 l 569 804 l 410 943 l 250 804 l 228 804 "},"ö":{"ha":819,"x_min":0,"x_max":0,"o":"m 410 -24 b 53 340 200 -24 53 119 b 410 703 53 561 200 703 b 767 340 619 703 767 561 b 410 -24 767 119 619 -24 m 200 340 b 411 -1 200 131 271 -1 b 619 340 547 -1 619 131 b 411 681 619 551 547 681 b 200 340 271 681 200 551 m 233 996 l 351 996 l 351 844 l 233 844 m 467 996 l 585 996 l 585 844 l 467 844 "},"ò":{"ha":819,"x_min":0,"x_max":0,"o":"m 410 -24 b 53 340 200 -24 53 119 b 410 703 53 561 200 703 b 767 340 619 703 767 561 b 410 -24 767 119 619 -24 m 278 1050 l 421 804 l 403 804 l 158 1050 m 200 340 b 411 -1 200 131 271 -1 b 619 340 547 -1 619 131 b 411 681 619 551 547 681 b 200 340 271 681 200 551 "},"ő":{"ha":819,"x_min":0,"x_max":0,"o":"m 410 -24 b 53 340 200 -24 53 119 b 410 703 53 561 200 703 b 767 340 619 703 767 561 b 410 -24 767 119 619 -24 m 200 340 b 411 -1 200 131 271 -1 b 619 340 547 -1 619 131 b 411 681 619 551 547 681 b 200 340 271 681 200 551 m 415 1050 l 529 1050 l 318 804 l 301 804 m 613 1050 l 729 1050 l 518 804 l 500 804 "},"ō":{"ha":819,"x_min":0,"x_max":0,"o":"m 410 -24 b 53 340 200 -24 53 119 b 410 703 53 561 200 703 b 767 340 619 703 767 561 b 410 -24 767 119 619 -24 m 192 896 l 626 896 l 626 851 l 192 851 m 200 340 b 411 -1 200 131 271 -1 b 619 340 547 -1 619 131 b 411 681 619 551 547 681 b 200 340 271 681 200 551 "},"ø":{"ha":819,"x_min":0,"x_max":0,"o":"m 207 -158 l 267 4 b 53 343 136 54 53 176 b 410 706 53 564 200 706 b 522 690 450 706 488 700 l 585 860 l 613 850 l 550 682 b 767 343 682 632 767 510 b 410 -21 767 122 619 -21 b 296 -6 369 -21 331 -15 l 235 -168 m 200 343 b 285 51 200 210 228 108 l 508 656 b 411 683 481 674 449 683 b 200 343 271 683 200 554 m 308 32 b 411 1 338 13 371 1 b 619 343 547 1 619 133 b 533 635 619 478 590 579 l 308 32 "},"ǿ":{"ha":819,"x_min":0,"x_max":0,"o":"m 207 -158 l 267 4 b 53 343 136 54 53 176 b 410 706 53 564 200 706 b 522 690 450 706 488 700 l 585 860 l 613 850 l 550 682 b 767 343 682 632 767 510 b 410 -21 767 122 619 -21 b 296 -6 369 -21 331 -15 l 235 -168 m 200 343 b 285 51 200 210 228 108 l 508 656 b 411 683 481 674 449 683 b 200 343 271 683 200 554 m 308 32 b 411 1 338 13 371 1 b 619 343 547 1 619 133 b 533 635 619 478 590 579 l 308 32 m 535 1053 l 654 1053 l 411 807 l 392 807 "},"õ":{"ha":819,"x_min":0,"x_max":0,"o":"m 410 -24 b 53 340 200 -24 53 119 b 410 703 53 561 200 703 b 767 340 619 703 767 561 b 410 -24 767 119 619 -24 m 200 340 b 411 -1 200 131 271 -1 b 619 340 547 -1 619 131 b 411 681 619 551 547 681 b 200 340 271 681 200 551 m 200 817 b 314 1032 200 976 251 1032 b 524 882 425 1032 432 882 b 590 1018 574 882 590 929 l 614 1018 b 506 803 614 853 569 803 b 293 942 392 803 382 942 b 224 817 240 942 224 893 l 200 817 "},"œ":{"ha":1317,"x_min":0,"x_max":0,"o":"m 392 -24 b 53 340 193 -24 53 119 b 392 703 53 561 193 703 b 683 540 522 703 626 643 b 964 703 742 643 846 703 b 1261 414 1146 703 1257 578 l 771 414 b 769 375 769 401 769 389 b 1003 46 769 194 836 46 b 1251 278 1135 46 1213 135 l 1269 278 b 953 -24 1232 93 1128 -24 b 679 133 831 -24 733 33 b 392 -24 622 35 519 -24 m 193 340 b 393 -1 193 131 260 -1 b 592 340 522 -1 592 131 b 393 681 592 551 522 681 b 193 340 260 681 193 551 m 1131 444 b 963 679 1128 576 1072 679 b 774 444 856 679 789 583 "},"p":{"ha":849,"x_min":0,"x_max":0,"o":"m 7 -325 b 110 -167 97 -312 110 -281 l 110 513 b 7 671 110 635 97 658 l 7 679 l 289 679 b 251 513 258 665 251 635 l 251 478 b 515 703 283 607 365 703 b 796 350 690 703 796 553 b 499 -14 796 135 671 -14 b 251 140 393 -14 299 40 l 251 -167 b 354 -325 251 -281 264 -312 l 354 -333 l 7 -333 m 251 176 b 442 32 286 83 360 32 b 646 350 572 32 646 153 b 461 650 646 517 589 650 b 251 329 326 650 251 519 l 251 176 "},"þ":{"ha":825,"x_min":0,"x_max":0,"o":"m -8 -325 b 94 -167 82 -312 94 -281 l 94 896 b 0 1036 94 1006 82 1026 l 0 1043 l 253 1090 l 254 1082 b 236 896 240 1065 236 1036 l 236 482 b 496 703 269 608 351 703 b 772 350 668 703 772 553 b 479 -14 772 133 647 -14 b 236 140 374 -14 282 40 l 236 -167 b 347 -325 236 -281 250 -312 l 347 -333 l -8 -333 m 236 176 b 422 32 269 83 340 32 b 621 350 550 32 621 151 b 442 650 621 517 567 650 b 236 329 308 650 236 519 l 236 176 "},"q":{"ha":858,"x_min":0,"x_max":0,"o":"m 494 -325 b 597 -167 585 -312 597 -281 l 597 210 b 336 -14 564 82 481 -14 b 53 336 157 -14 53 138 b 354 700 53 554 178 700 b 597 551 461 700 551 647 b 574 679 596 640 590 667 l 840 679 l 840 671 b 738 513 750 658 738 635 l 738 -167 b 840 -325 738 -281 750 -312 l 840 -333 l 494 -333 m 204 336 b 389 38 204 168 260 38 b 597 356 522 38 597 168 l 597 493 l 597 510 b 406 656 569 599 490 656 b 204 336 279 656 204 532 "},"r":{"ha":581,"x_min":0,"x_max":0,"o":"m 25 10 b 128 186 115 24 128 60 l 128 493 b 25 669 128 629 115 656 l 25 679 l 308 679 b 269 493 276 664 269 629 l 269 442 b 560 690 292 557 392 689 l 560 571 b 269 378 349 585 274 479 l 269 174 b 396 10 269 56 285 22 l 396 0 l 25 0 "},"ŕ":{"ha":581,"x_min":0,"x_max":0,"o":"m 25 10 b 128 186 115 24 128 60 l 128 493 b 25 669 128 629 115 656 l 25 679 l 308 679 b 269 493 276 664 269 629 l 269 442 b 560 690 292 557 392 689 l 560 571 b 269 378 349 585 274 479 l 269 174 b 396 10 269 56 285 22 l 396 0 l 25 0 m 429 1050 l 549 1050 l 306 804 l 286 804 "},"ř":{"ha":581,"x_min":0,"x_max":0,"o":"m 25 10 b 128 186 115 24 128 60 l 128 493 b 25 669 128 629 115 656 l 25 679 l 308 679 b 269 493 276 664 269 629 l 269 442 b 560 690 292 557 392 689 l 560 571 b 269 378 349 585 274 479 l 269 174 b 396 10 269 56 285 22 l 396 0 l 25 0 m 125 1050 l 304 888 l 482 1050 l 504 1050 l 332 804 l 275 804 l 103 1050 "},"ŗ":{"ha":581,"x_min":0,"x_max":0,"o":"m 25 10 b 128 186 115 24 128 60 l 128 493 b 25 669 128 629 115 656 l 25 679 l 308 679 b 269 493 276 664 269 629 l 269 442 b 560 690 292 557 392 689 l 560 571 b 269 378 349 585 274 479 l 269 174 b 396 10 269 56 285 22 l 396 0 l 25 0 m 142 -83 l 263 -83 l 75 -336 l 63 -332 "},"s":{"ha":671,"x_min":0,"x_max":0,"o":"m 358 -24 b 42 226 179 -24 61 78 l 165 226 b 360 0 175 92 240 0 b 507 121 453 0 507 51 b 301 294 507 201 436 233 b 78 518 182 347 78 397 b 329 703 78 633 182 703 b 617 494 476 703 589 628 l 493 494 b 324 679 481 603 429 679 b 193 574 243 679 193 636 b 385 404 193 494 267 456 b 625 171 513 349 625 294 b 358 -24 625 46 510 -24 "},"ś":{"ha":671,"x_min":0,"x_max":0,"o":"m 358 -24 b 42 226 179 -24 61 78 l 165 226 b 360 0 175 92 240 0 b 507 121 453 0 507 51 b 301 294 507 201 436 233 b 78 518 182 347 78 397 b 329 703 78 633 182 703 b 617 494 476 703 589 628 l 493 494 b 324 679 481 603 429 679 b 193 574 243 679 193 636 b 385 404 193 494 267 456 b 625 171 513 349 625 294 b 358 -24 625 46 510 -24 m 457 1050 l 576 1050 l 333 804 l 314 804 "},"š":{"ha":671,"x_min":0,"x_max":0,"o":"m 358 -24 b 42 226 179 -24 61 78 l 165 226 b 360 0 175 92 240 0 b 507 121 453 0 507 51 b 301 294 507 201 436 233 b 78 518 182 347 78 397 b 329 703 78 633 182 703 b 617 494 476 703 589 628 l 493 494 b 324 679 481 603 429 679 b 193 574 243 679 193 636 b 385 404 193 494 267 456 b 625 171 513 349 625 294 b 358 -24 625 46 510 -24 m 153 1050 l 332 888 l 510 1050 l 532 1050 l 360 804 l 303 804 l 131 1050 "},"ş":{"ha":671,"x_min":0,"x_max":0,"o":"m 343 -340 b 169 -258 274 -340 204 -315 l 185 -246 b 322 -308 210 -285 260 -308 b 422 -229 372 -308 422 -290 b 321 -149 422 -176 382 -149 b 260 -158 300 -149 283 -151 l 247 -142 l 332 -22 b 42 226 168 -14 60 85 l 165 226 b 360 0 175 92 240 0 b 507 121 453 0 507 51 b 301 294 507 201 436 233 b 78 518 182 347 78 397 b 329 703 78 633 182 703 b 617 494 476 703 589 628 l 493 494 b 324 679 481 603 429 679 b 193 574 243 679 193 636 b 385 404 193 494 267 456 b 625 171 513 349 625 294 b 374 -24 625 50 518 -19 l 319 -100 b 358 -97 332 -99 344 -97 b 501 -215 444 -97 501 -143 b 343 -340 501 -307 414 -340 "},"ŝ":{"ha":671,"x_min":0,"x_max":0,"o":"m 358 -24 b 42 226 179 -24 61 78 l 165 226 b 360 0 175 92 240 0 b 507 121 453 0 507 51 b 301 294 507 201 436 233 b 78 518 182 347 78 397 b 329 703 78 633 182 703 b 617 494 476 703 589 628 l 493 494 b 324 679 481 603 429 679 b 193 574 243 679 193 636 b 385 404 193 494 267 456 b 625 171 513 349 625 294 b 358 -24 625 46 510 -24 m 308 1025 l 356 1025 l 514 804 l 492 804 l 332 943 l 172 804 l 150 804 "},"ș":{"ha":671,"x_min":0,"x_max":0,"o":"m 358 -24 b 42 226 179 -24 61 78 l 165 226 b 360 0 175 92 240 0 b 507 121 453 0 507 51 b 301 294 507 201 436 233 b 78 518 182 347 78 397 b 329 703 78 633 182 703 b 617 494 476 703 589 628 l 493 494 b 324 679 481 603 429 679 b 193 574 243 679 193 636 b 385 404 193 494 267 456 b 625 171 513 349 625 294 b 358 -24 625 46 510 -24 m 299 -90 l 419 -90 l 232 -343 l 219 -339 "},"ß":{"ha":865,"x_min":0,"x_max":0,"o":"m 564 -7 b 364 93 474 -7 403 31 l 364 129 b 531 35 400 69 460 35 b 682 171 622 35 682 89 b 553 372 682 231 650 282 b 407 582 456 463 407 524 b 511 729 407 646 450 678 b 628 914 576 785 628 828 b 467 1061 628 989 578 1061 b 258 763 331 1061 258 954 l 258 186 b 332 10 258 60 268 24 l 332 0 l 15 0 l 15 10 b 118 186 106 24 118 60 l 118 713 b 478 1092 118 950 250 1092 b 749 910 636 1092 749 1019 b 588 733 749 811 663 769 b 486 642 529 706 486 685 b 626 472 486 585 564 522 b 813 210 722 397 813 324 b 564 -7 813 86 707 -7 "},"t":{"ha":558,"x_min":0,"x_max":0,"o":"m 335 -14 b 147 207 233 -14 147 36 l 147 647 l 8 647 l 8 679 l 147 679 l 147 863 l 283 967 l 289 967 l 289 679 l 518 679 l 518 647 l 289 647 l 289 210 b 394 57 289 89 329 57 b 550 192 460 57 514 101 l 563 181 b 335 -14 514 49 426 -14 "},"ŧ":{"ha":563,"x_min":0,"x_max":0,"o":"m 8 453 l 151 453 l 151 647 l 13 647 l 13 679 l 151 679 l 151 863 l 288 967 l 293 967 l 293 679 l 522 679 l 522 647 l 293 647 l 293 453 l 526 453 l 526 422 l 293 422 l 293 210 b 399 57 293 89 333 57 b 554 192 464 57 518 101 l 567 181 b 339 -14 518 49 431 -14 b 151 207 238 -14 151 36 l 151 422 l 8 422 "},"ť":{"ha":558,"x_min":0,"x_max":0,"o":"m 335 -14 b 147 207 233 -14 147 36 l 147 647 l 8 647 l 8 679 l 147 679 l 147 863 l 283 967 l 289 967 l 289 679 l 518 679 l 518 647 l 289 647 l 289 210 b 394 57 289 89 329 57 b 550 192 460 57 514 101 l 563 181 b 335 -14 514 49 426 -14 m 453 1089 l 557 1089 l 411 814 l 394 814 "},"ţ":{"ha":558,"x_min":0,"x_max":0,"o":"m 8 679 l 147 679 l 147 863 l 283 967 l 289 967 l 289 679 l 518 679 l 518 647 l 289 647 l 289 210 b 394 57 289 89 329 57 b 550 192 460 57 514 101 l 563 181 b 356 -12 518 58 439 -4 l 299 -93 b 338 -90 311 -92 324 -90 b 481 -208 424 -90 481 -136 b 322 -333 481 -300 393 -333 b 149 -251 253 -333 183 -308 l 164 -239 b 301 -301 189 -278 239 -301 b 401 -222 351 -301 401 -283 b 300 -142 401 -169 361 -142 b 239 -151 279 -142 263 -144 l 226 -135 l 314 -12 b 147 207 222 -7 147 49 l 147 647 l 8 647 "},"ț":{"ha":558,"x_min":0,"x_max":0,"o":"m 335 -14 b 147 207 233 -14 147 36 l 147 647 l 8 647 l 8 679 l 147 679 l 147 863 l 283 967 l 289 967 l 289 679 l 518 679 l 518 647 l 289 647 l 289 210 b 394 57 289 89 329 57 b 550 192 460 57 514 101 l 563 181 b 335 -14 514 49 426 -14 m 278 -83 l 399 -83 l 211 -336 l 199 -332 "},"u":{"ha":861,"x_min":0,"x_max":0,"o":"m 328 -24 b 117 219 194 -24 117 49 l 117 493 b 19 669 117 619 104 656 l 19 679 l 347 679 l 347 669 b 258 493 269 656 258 619 l 258 225 b 394 40 258 94 301 40 b 592 253 496 40 568 135 l 592 493 b 503 669 592 619 581 656 l 503 679 l 836 679 l 836 669 b 733 493 746 656 733 619 l 733 186 b 836 10 733 50 746 24 l 836 0 l 567 0 b 592 186 588 15 592 50 l 592 193 b 328 -24 554 76 464 -24 "},"ú":{"ha":861,"x_min":0,"x_max":0,"o":"m 328 -24 b 117 219 194 -24 117 49 l 117 493 b 19 669 117 619 104 656 l 19 679 l 347 679 l 347 669 b 258 493 269 656 258 619 l 258 225 b 394 40 258 94 301 40 b 592 253 496 40 568 135 l 592 493 b 503 669 592 619 581 656 l 503 679 l 836 679 l 836 669 b 733 493 746 656 733 619 l 733 186 b 836 10 733 50 746 24 l 836 0 l 567 0 b 592 186 588 15 592 50 l 592 193 b 328 -24 554 76 464 -24 m 560 1050 l 679 1050 l 436 804 l 417 804 "},"ŭ":{"ha":861,"x_min":0,"x_max":0,"o":"m 328 -24 b 117 219 194 -24 117 49 l 117 493 b 19 669 117 619 104 656 l 19 679 l 347 679 l 347 669 b 258 493 269 656 258 619 l 258 225 b 394 40 258 94 301 40 b 592 253 496 40 568 135 l 592 493 b 503 669 592 619 581 656 l 503 679 l 836 679 l 836 669 b 733 493 746 656 733 619 l 733 186 b 836 10 733 50 746 24 l 836 0 l 567 0 b 592 186 588 15 592 50 l 592 193 b 328 -24 554 76 464 -24 m 286 1028 b 435 874 286 935 329 874 b 583 1028 540 874 583 935 l 611 1028 b 435 804 611 882 535 804 b 258 1028 335 804 258 882 "},"û":{"ha":861,"x_min":0,"x_max":0,"o":"m 328 -24 b 117 219 194 -24 117 49 l 117 493 b 19 669 117 619 104 656 l 19 679 l 347 679 l 347 669 b 258 493 269 656 258 619 l 258 225 b 394 40 258 94 301 40 b 592 253 496 40 568 135 l 592 493 b 503 669 592 619 581 656 l 503 679 l 836 679 l 836 669 b 733 493 746 656 733 619 l 733 186 b 836 10 733 50 746 24 l 836 0 l 567 0 b 592 186 588 15 592 50 l 592 193 b 328 -24 554 76 464 -24 m 411 1025 l 458 1025 l 617 804 l 594 804 l 435 943 l 275 804 l 253 804 "},"ü":{"ha":861,"x_min":0,"x_max":0,"o":"m 328 -24 b 117 219 194 -24 117 49 l 117 493 b 19 669 117 619 104 656 l 19 679 l 347 679 l 347 669 b 258 493 269 656 258 619 l 258 225 b 394 40 258 94 301 40 b 592 253 496 40 568 135 l 592 493 b 503 669 592 619 581 656 l 503 679 l 836 679 l 836 669 b 733 493 746 656 733 619 l 733 186 b 836 10 733 50 746 24 l 836 0 l 567 0 b 592 186 588 15 592 50 l 592 193 b 328 -24 554 76 464 -24 m 258 996 l 376 996 l 376 844 l 258 844 m 492 996 l 610 996 l 610 844 l 492 844 "},"ù":{"ha":861,"x_min":0,"x_max":0,"o":"m 328 -24 b 117 219 194 -24 117 49 l 117 493 b 19 669 117 619 104 656 l 19 679 l 347 679 l 347 669 b 258 493 269 656 258 619 l 258 225 b 394 40 258 94 301 40 b 592 253 496 40 568 135 l 592 493 b 503 669 592 619 581 656 l 503 679 l 836 679 l 836 669 b 733 493 746 656 733 619 l 733 186 b 836 10 733 50 746 24 l 836 0 l 567 0 b 592 186 588 15 592 50 l 592 193 b 328 -24 554 76 464 -24 m 303 1050 l 446 804 l 428 804 l 183 1050 "},"ű":{"ha":861,"x_min":0,"x_max":0,"o":"m 328 -24 b 117 219 194 -24 117 49 l 117 493 b 19 669 117 619 104 656 l 19 679 l 347 679 l 347 669 b 258 493 269 656 258 619 l 258 225 b 394 40 258 94 301 40 b 592 253 496 40 568 135 l 592 493 b 503 669 592 619 581 656 l 503 679 l 836 679 l 836 669 b 733 493 746 656 733 619 l 733 186 b 836 10 733 50 746 24 l 836 0 l 567 0 b 592 186 588 15 592 50 l 592 193 b 328 -24 554 76 464 -24 m 440 1050 l 554 1050 l 343 804 l 326 804 m 638 1050 l 754 1050 l 543 804 l 525 804 "},"ū":{"ha":861,"x_min":0,"x_max":0,"o":"m 328 -24 b 117 219 194 -24 117 49 l 117 493 b 19 669 117 619 104 656 l 19 679 l 347 679 l 347 669 b 258 493 269 656 258 619 l 258 225 b 394 40 258 94 301 40 b 592 253 496 40 568 135 l 592 493 b 503 669 592 619 581 656 l 503 679 l 836 679 l 836 669 b 733 493 746 656 733 619 l 733 186 b 836 10 733 50 746 24 l 836 0 l 567 0 b 592 186 588 15 592 50 l 592 193 b 328 -24 554 76 464 -24 m 217 896 l 651 896 l 651 851 l 217 851 "},"ų":{"ha":861,"x_min":0,"x_max":0,"o":"m 328 -24 b 117 219 194 -24 117 49 l 117 493 b 19 669 117 619 104 656 l 19 679 l 347 679 l 347 669 b 258 493 269 656 258 619 l 258 225 b 394 40 258 94 301 40 b 592 253 496 40 568 135 l 592 493 b 503 669 592 619 581 656 l 503 679 l 836 679 l 836 669 b 733 493 746 656 733 619 l 733 186 b 836 10 733 50 746 24 l 836 0 l 656 0 b 550 -185 613 -29 550 -94 b 638 -283 550 -244 582 -283 b 728 -217 672 -283 708 -258 l 728 -240 b 599 -328 701 -293 654 -328 b 475 -204 533 -328 475 -287 b 635 0 475 -103 565 -31 l 567 0 b 592 186 588 15 592 50 l 592 193 b 328 -24 554 76 464 -24 "},"ů":{"ha":861,"x_min":0,"x_max":0,"o":"m 328 -24 b 117 219 194 -24 117 49 l 117 493 b 19 669 117 619 104 656 l 19 679 l 347 679 l 347 669 b 258 493 269 656 258 619 l 258 225 b 394 40 258 94 301 40 b 592 253 496 40 568 135 l 592 493 b 503 669 592 619 581 656 l 503 679 l 836 679 l 836 669 b 733 493 746 656 733 619 l 733 186 b 836 10 733 50 746 24 l 836 0 l 567 0 b 592 186 588 15 592 50 l 592 193 b 328 -24 554 76 464 -24 m 299 933 b 435 1063 299 1010 354 1063 b 571 933 514 1063 571 1010 b 435 804 571 857 514 804 b 299 933 354 804 299 857 m 333 933 b 435 832 333 872 374 832 b 536 933 496 832 536 872 b 435 1035 536 994 496 1035 b 333 933 374 1035 333 994 "},"ũ":{"ha":861,"x_min":0,"x_max":0,"o":"m 328 -24 b 117 219 194 -24 117 49 l 117 493 b 19 669 117 619 104 656 l 19 679 l 347 679 l 347 669 b 258 493 269 656 258 619 l 258 225 b 394 40 258 94 301 40 b 592 253 496 40 568 135 l 592 493 b 503 669 592 619 581 656 l 503 679 l 836 679 l 836 669 b 733 493 746 656 733 619 l 733 186 b 836 10 733 50 746 24 l 836 0 l 567 0 b 592 186 588 15 592 50 l 592 193 b 328 -24 554 76 464 -24 m 225 817 b 339 1032 225 976 276 1032 b 549 882 450 1032 457 882 b 615 1018 599 882 615 929 l 639 1018 b 531 803 639 853 594 803 b 318 942 417 803 407 942 b 249 817 265 942 249 893 l 225 817 "},"v":{"ha":754,"x_min":0,"x_max":0,"o":"m 142 493 b 10 669 97 606 76 656 l 10 679 l 343 679 l 343 669 b 301 500 254 658 257 622 l 436 132 l 576 500 b 535 669 622 619 621 660 l 535 679 l 744 679 l 744 669 b 607 500 686 663 651 618 l 475 156 b 431 0 450 92 428 26 l 336 0 l 142 493 "},"w":{"ha":1104,"x_min":0,"x_max":0,"o":"m 138 508 b 7 669 97 621 72 664 l 7 679 l 360 679 l 360 669 b 290 526 268 664 256 632 l 417 160 l 582 647 l 650 647 l 821 160 l 942 519 b 876 669 978 628 969 664 l 876 679 l 1097 679 l 1097 669 b 974 519 1039 654 1011 629 l 817 69 b 800 0 806 39 803 25 l 728 0 l 551 497 l 408 69 b 390 0 397 38 393 24 l 318 0 l 138 508 "},"ẃ":{"ha":1104,"x_min":0,"x_max":0,"o":"m 138 508 b 7 669 97 621 72 664 l 7 679 l 360 679 l 360 669 b 290 526 268 664 256 632 l 417 160 l 582 647 l 650 647 l 821 160 l 942 519 b 876 669 978 628 969 664 l 876 679 l 1097 679 l 1097 669 b 974 519 1039 654 1011 629 l 817 69 b 800 0 806 39 803 25 l 728 0 l 551 497 l 408 69 b 390 0 397 38 393 24 l 318 0 l 138 508 m 739 1050 l 858 1050 l 615 804 l 596 804 "},"ŵ":{"ha":1104,"x_min":0,"x_max":0,"o":"m 138 508 b 7 669 97 621 72 664 l 7 679 l 360 679 l 360 669 b 290 526 268 664 256 632 l 417 160 l 582 647 l 650 647 l 821 160 l 942 519 b 876 669 978 628 969 664 l 876 679 l 1097 679 l 1097 669 b 974 519 1039 654 1011 629 l 817 69 b 800 0 806 39 803 25 l 728 0 l 551 497 l 408 69 b 390 0 397 38 393 24 l 318 0 l 138 508 m 590 1025 l 638 1025 l 796 804 l 774 804 l 614 943 l 454 804 l 432 804 "},"ẅ":{"ha":1104,"x_min":0,"x_max":0,"o":"m 138 508 b 7 669 97 621 72 664 l 7 679 l 360 679 l 360 669 b 290 526 268 664 256 632 l 417 160 l 582 647 l 650 647 l 821 160 l 942 519 b 876 669 978 628 969 664 l 876 679 l 1097 679 l 1097 669 b 974 519 1039 654 1011 629 l 817 69 b 800 0 806 39 803 25 l 728 0 l 551 497 l 408 69 b 390 0 397 38 393 24 l 318 0 l 138 508 m 438 996 l 556 996 l 556 844 l 438 844 m 671 996 l 789 996 l 789 844 l 671 844 "},"ẁ":{"ha":1104,"x_min":0,"x_max":0,"o":"m 138 508 b 7 669 97 621 72 664 l 7 679 l 360 679 l 360 669 b 290 526 268 664 256 632 l 417 160 l 582 647 l 650 647 l 821 160 l 942 519 b 876 669 978 628 969 664 l 876 679 l 1097 679 l 1097 669 b 974 519 1039 654 1011 629 l 817 69 b 800 0 806 39 803 25 l 728 0 l 551 497 l 408 69 b 390 0 397 38 393 24 l 318 0 l 138 508 m 482 1050 l 625 804 l 607 804 l 363 1050 "},"x":{"ha":744,"x_min":0,"x_max":0,"o":"m 408 10 b 440 119 465 17 489 50 l 318 294 l 196 121 b 222 10 153 60 151 19 l 222 0 l 6 0 l 6 10 b 163 122 67 21 115 56 l 303 318 l 136 557 b 10 669 81 638 61 663 l 10 679 l 336 679 l 336 669 b 296 560 263 663 243 633 l 414 390 l 535 558 b 508 669 579 619 578 660 l 508 679 l 725 679 l 725 669 b 568 557 675 661 628 639 l 431 368 l 601 122 b 739 10 658 40 683 17 l 739 0 l 408 0 l 408 10 "},"y":{"ha":743,"x_min":0,"x_max":0,"o":"m 104 -339 b 17 -321 81 -339 43 -333 l 17 -200 b 133 -231 44 -217 86 -231 b 382 0 242 -231 315 -161 l 333 0 l 140 493 b 7 669 96 607 74 656 l 7 679 l 340 679 l 340 669 b 300 500 249 658 256 622 l 436 129 l 575 500 b 529 669 619 618 619 660 l 529 679 l 739 679 l 739 669 b 606 500 685 663 651 619 l 413 -3 b 104 -339 325 -232 246 -339 "},"ý":{"ha":743,"x_min":0,"x_max":0,"o":"m 104 -339 b 17 -321 81 -339 43 -333 l 17 -200 b 133 -231 44 -217 86 -231 b 382 0 242 -231 315 -161 l 333 0 l 140 493 b 7 669 96 607 74 656 l 7 679 l 340 679 l 340 669 b 300 500 249 658 256 622 l 436 129 l 575 500 b 529 669 619 618 619 660 l 529 679 l 739 679 l 739 669 b 606 500 685 663 651 619 l 413 -3 b 104 -339 325 -232 246 -339 m 553 1050 l 672 1050 l 429 804 l 410 804 "},"ŷ":{"ha":743,"x_min":0,"x_max":0,"o":"m 104 -339 b 17 -321 81 -339 43 -333 l 17 -200 b 133 -231 44 -217 86 -231 b 382 0 242 -231 315 -161 l 333 0 l 140 493 b 7 669 96 607 74 656 l 7 679 l 340 679 l 340 669 b 300 500 249 658 256 622 l 436 129 l 575 500 b 529 669 619 618 619 660 l 529 679 l 739 679 l 739 669 b 606 500 685 663 651 619 l 413 -3 b 104 -339 325 -232 246 -339 m 404 1025 l 451 1025 l 610 804 l 588 804 l 428 943 l 268 804 l 246 804 "},"ÿ":{"ha":743,"x_min":0,"x_max":0,"o":"m 104 -339 b 17 -321 81 -339 43 -333 l 17 -200 b 133 -231 44 -217 86 -231 b 382 0 242 -231 315 -161 l 333 0 l 140 493 b 7 669 96 607 74 656 l 7 679 l 340 679 l 340 669 b 300 500 249 658 256 622 l 436 129 l 575 500 b 529 669 619 618 619 660 l 529 679 l 739 679 l 739 669 b 606 500 685 663 651 619 l 413 -3 b 104 -339 325 -232 246 -339 m 251 996 l 369 996 l 369 844 l 251 844 m 485 996 l 603 996 l 603 844 l 485 844 "},"ỳ":{"ha":743,"x_min":0,"x_max":0,"o":"m 104 -339 b 17 -321 81 -339 43 -333 l 17 -200 b 133 -231 44 -217 86 -231 b 382 0 242 -231 315 -161 l 333 0 l 140 493 b 7 669 96 607 74 656 l 7 679 l 340 679 l 340 669 b 300 500 249 658 256 622 l 436 129 l 575 500 b 529 669 619 618 619 660 l 529 679 l 739 679 l 739 669 b 606 500 685 663 651 619 l 413 -3 b 104 -339 325 -232 246 -339 m 296 1050 l 439 804 l 421 804 l 176 1050 "},"ỹ":{"ha":743,"x_min":0,"x_max":0,"o":"m 104 -339 b 17 -321 81 -339 43 -333 l 17 -200 b 133 -231 44 -217 86 -231 b 382 0 242 -231 315 -161 l 333 0 l 140 493 b 7 669 96 607 74 656 l 7 679 l 340 679 l 340 669 b 300 500 249 658 256 622 l 436 129 l 575 500 b 529 669 619 618 619 660 l 529 679 l 739 679 l 739 669 b 606 500 685 663 651 619 l 413 -3 b 104 -339 325 -232 246 -339 m 218 817 b 332 1032 218 976 269 1032 b 542 882 443 1032 450 882 b 608 1018 592 882 608 929 l 632 1018 b 524 803 632 853 588 803 b 311 942 410 803 400 942 b 242 817 258 942 242 893 l 218 817 "},"z":{"ha":650,"x_min":0,"x_max":0,"o":"m 39 32 l 450 656 l 296 656 b 39 574 201 656 117 621 l 39 679 l 604 679 l 604 656 l 192 24 l 336 24 b 611 114 456 24 540 63 l 611 0 l 39 0 "},"ź":{"ha":650,"x_min":0,"x_max":0,"o":"m 39 32 l 450 656 l 296 656 b 39 574 201 656 117 621 l 39 679 l 604 679 l 604 656 l 192 24 l 336 24 b 611 114 456 24 540 63 l 611 0 l 39 0 m 456 1050 l 575 1050 l 332 804 l 313 804 "},"ž":{"ha":650,"x_min":0,"x_max":0,"o":"m 39 32 l 450 656 l 296 656 b 39 574 201 656 117 621 l 39 679 l 604 679 l 604 656 l 192 24 l 336 24 b 611 114 456 24 540 63 l 611 0 l 39 0 m 151 1050 l 331 888 l 508 1050 l 531 1050 l 358 804 l 301 804 l 129 1050 "},"ż":{"ha":650,"x_min":0,"x_max":0,"o":"m 39 32 l 450 656 l 296 656 b 39 574 201 656 117 621 l 39 679 l 604 679 l 604 656 l 192 24 l 336 24 b 611 114 456 24 540 63 l 611 0 l 39 0 m 265 993 l 394 993 l 394 850 l 265 850 "},"ﬁ":{"ha":857,"x_min":0,"x_max":0,"o":"m 51 10 b 154 186 142 24 154 60 l 154 647 l 7 647 l 7 679 l 154 679 l 154 769 b 436 1093 154 1006 285 1093 b 733 854 592 1093 701 1008 l 603 854 b 425 1068 588 983 522 1068 b 275 847 336 1068 275 1006 b 293 679 275 793 281 742 l 749 679 l 747 186 b 850 10 747 60 760 24 l 850 0 l 514 0 l 514 10 b 607 186 596 24 607 60 l 608 647 l 296 647 l 296 193 b 421 10 296 63 311 25 l 421 0 l 51 0 "},"ﬂ":{"ha":876,"x_min":0,"x_max":0,"o":"m 500 10 b 610 186 596 24 610 60 l 610 647 l 296 647 l 296 193 b 421 10 296 63 311 25 l 421 0 l 51 0 l 51 10 b 154 186 142 24 154 60 l 154 647 l 7 647 l 7 679 l 154 679 l 154 783 b 432 1097 154 1008 285 1097 b 646 996 524 1097 597 1063 l 747 1094 l 758 1090 b 750 876 751 1032 750 988 l 750 186 b 858 10 750 60 764 24 l 858 0 l 500 0 m 285 850 b 294 679 285 813 289 738 l 610 679 l 610 857 b 438 1067 593 983 539 1067 b 285 850 344 1067 285 999 "},"ª":{"ha":629,"x_min":0,"x_max":0,"o":"m 208 603 b 75 718 131 603 75 646 b 268 854 75 808 171 829 b 388 953 347 874 388 889 b 307 1038 389 1008 358 1038 b 196 897 257 1038 196 1001 l 100 897 b 319 1056 104 1010 224 1056 b 490 907 411 1056 490 1018 l 490 711 b 531 647 490 671 504 647 b 569 663 546 647 556 651 l 571 649 b 479 607 542 621 518 607 b 388 718 426 607 388 638 l 388 750 b 208 603 365 667 304 603 m 99 531 l 536 531 l 536 506 l 99 506 m 176 735 b 253 663 176 686 210 663 b 388 840 338 663 388 736 l 388 889 b 285 838 372 868 335 854 b 176 735 221 817 176 794 "},"º":{"ha":610,"x_min":0,"x_max":0,"o":"m 304 601 b 71 829 169 601 71 690 b 306 1056 71 965 169 1056 b 539 829 440 1056 539 965 b 304 601 539 692 440 601 m 103 531 l 510 531 l 510 506 l 103 506 m 172 829 b 306 617 172 700 218 617 b 438 829 392 617 438 700 b 306 1040 438 957 392 1040 b 172 829 218 1040 172 957 "},"Δ":{"ha":896,"x_min":0,"x_max":0,"o":"m 388 1051 l 503 1051 l 900 0 l -4 0 m 708 29 l 385 958 l 44 29 "},"Ω":{"ha":1142,"x_min":0,"x_max":0,"o":"m 67 117 l 478 117 l 478 144 b 32 608 232 190 32 350 b 571 1067 32 885 251 1067 b 1110 608 890 1067 1110 885 b 664 144 1110 350 910 190 l 664 117 l 1075 117 l 1075 0 l 640 0 l 640 175 b 942 600 824 235 942 367 b 571 1025 942 850 790 1025 b 200 600 351 1025 200 850 b 501 175 200 367 318 235 l 501 0 l 67 0 "},"μ":{"ha":836,"x_min":0,"x_max":0,"o":"m 256 -279 b 96 -14 165 -242 96 -158 l 96 493 b 7 669 96 619 85 656 l 7 679 l 326 679 l 326 669 b 238 493 249 656 238 619 l 238 225 b 372 40 238 94 279 40 b 571 260 475 40 546 138 l 571 493 b 482 669 571 619 560 656 l 482 679 l 800 679 l 800 669 b 711 493 722 656 711 619 l 711 143 b 772 46 711 78 732 46 b 840 75 803 46 819 57 l 843 57 b 700 -11 800 15 760 -11 b 571 149 628 -11 571 42 l 571 182 b 335 -24 538 75 457 -24 b 232 4 293 -24 258 -14 l 232 -42 b 290 -279 232 -174 250 -236 l 256 -279 "},"π":{"ha":957,"x_min":0,"x_max":0,"o":"m 750 -11 b 579 215 653 -11 579 40 l 579 647 l 335 647 l 319 0 l 183 0 l 199 647 l 8 647 l 8 679 l 918 679 l 918 647 l 715 647 l 715 222 b 817 61 715 96 753 61 b 949 172 871 61 917 99 l 961 161 b 750 -11 915 44 838 -11 "},"⓿":{"ha":1269,"x_min":0,"x_max":0,"o":"m 635 -14 b 1199 536 967 -14 1199 214 b 635 1085 1199 857 967 1085 b 71 536 303 1085 71 857 b 635 -14 71 214 303 -14 m 343 540 b 635 863 343 728 457 863 b 926 540 814 863 926 728 b 635 221 926 354 814 221 b 343 540 457 221 343 354 m 460 540 b 635 240 460 353 522 240 b 811 540 749 240 811 353 b 635 843 811 731 749 843 b 460 540 522 843 460 731 "},"❶":{"ha":1269,"x_min":0,"x_max":0,"o":"m 635 -14 b 1199 536 967 -14 1199 214 b 635 1085 1199 857 967 1085 b 71 536 303 1085 71 857 b 635 -14 71 214 303 -14 m 443 685 b 643 854 549 696 629 778 l 711 854 l 711 353 b 808 239 711 272 724 249 l 808 233 l 483 233 l 483 239 b 594 353 581 249 594 272 l 594 732 b 443 629 581 706 526 639 "},"❷":{"ha":1269,"x_min":0,"x_max":0,"o":"m 635 -14 b 1199 536 967 -14 1199 214 b 635 1085 1199 857 967 1085 b 71 536 303 1085 71 857 b 635 -14 71 214 303 -14 m 388 617 b 658 861 394 754 499 861 b 881 693 788 861 881 801 b 604 460 881 565 732 515 b 433 317 524 425 447 376 l 900 317 l 900 233 l 393 233 l 393 249 b 576 476 393 356 485 421 b 765 706 688 543 765 597 b 643 838 765 785 722 838 b 486 617 539 838 485 751 l 388 617 "},"❸":{"ha":1269,"x_min":0,"x_max":0,"o":"m 635 -14 b 1199 536 967 -14 1199 214 b 635 1085 1199 857 967 1085 b 71 536 303 1085 71 857 b 635 -14 71 214 303 -14 m 396 439 b 597 253 401 318 482 253 b 774 406 713 253 774 321 b 590 542 774 488 719 542 l 539 542 l 539 558 l 590 558 b 757 708 700 558 757 624 b 631 829 757 778 715 829 b 476 663 538 829 479 765 l 381 663 b 646 856 392 783 503 856 b 867 703 786 856 867 789 b 664 554 867 615 788 563 b 893 400 811 547 893 493 b 633 214 893 300 796 214 b 378 439 469 214 382 306 "},"❹":{"ha":1269,"x_min":0,"x_max":0,"o":"m 635 -14 b 1199 536 967 -14 1199 214 b 635 1085 1199 857 967 1085 b 71 536 303 1085 71 857 b 635 -14 71 214 303 -14 m 301 438 l 672 856 l 754 856 l 754 464 l 894 464 l 894 394 l 754 394 l 754 338 b 842 243 754 272 769 251 l 842 238 l 550 238 l 550 243 b 638 339 622 251 638 272 l 638 394 l 301 394 m 638 464 l 638 785 l 354 464 "},"❺":{"ha":1269,"x_min":0,"x_max":0,"o":"m 635 -14 b 1199 536 967 -14 1199 214 b 635 1085 1199 857 967 1085 b 71 536 303 1085 71 857 b 635 -14 71 214 303 -14 m 403 429 b 597 250 413 315 488 250 b 771 419 701 250 771 313 b 597 588 771 532 697 588 b 426 517 532 588 465 564 l 415 524 l 467 847 l 856 847 l 856 768 l 475 768 l 439 542 b 661 629 490 600 575 629 b 890 428 806 629 890 551 b 640 215 890 292 785 215 b 386 429 489 215 396 296 "},"❻":{"ha":1269,"x_min":0,"x_max":0,"o":"m 635 -14 b 1199 536 967 -14 1199 214 b 635 1085 1199 857 967 1085 b 71 536 303 1085 71 857 b 635 -14 71 214 303 -14 m 367 515 b 658 856 367 715 478 856 b 896 660 790 856 876 774 l 876 660 b 689 817 858 757 789 818 b 485 535 561 817 488 714 b 492 450 483 504 486 476 b 696 617 508 554 601 617 b 903 425 806 617 903 547 b 649 214 903 292 790 214 b 367 515 471 214 367 331 m 493 413 b 647 233 511 293 561 233 b 789 410 729 233 789 297 b 653 579 789 522 729 579 b 493 413 569 579 497 521 "},"❼":{"ha":1269,"x_min":0,"x_max":0,"o":"m 635 -14 b 1199 536 967 -14 1199 214 b 635 1085 1199 857 967 1085 b 71 536 303 1085 71 857 b 635 -14 71 214 303 -14 m 410 832 l 890 832 l 890 817 l 568 218 l 433 218 l 826 743 l 410 743 "},"❽":{"ha":1269,"x_min":0,"x_max":0,"o":"m 635 -14 b 1199 536 967 -14 1199 214 b 635 1085 1199 857 967 1085 b 71 536 303 1085 71 857 b 635 -14 71 214 303 -14 m 356 392 b 554 558 356 488 447 544 b 386 703 451 572 386 619 b 636 856 386 800 481 856 b 885 703 790 856 885 800 b 718 558 885 619 826 572 b 914 392 829 544 914 488 b 636 214 914 279 810 214 b 356 392 461 214 356 279 m 472 393 b 636 232 472 297 522 232 b 799 393 749 232 799 297 b 636 546 799 485 744 546 b 472 393 526 546 472 485 m 496 706 b 636 568 496 625 522 568 b 775 706 749 568 775 625 b 636 839 775 783 736 839 b 496 706 533 839 496 783 "},"❾":{"ha":1269,"x_min":0,"x_max":0,"o":"m 635 -14 b 1199 536 967 -14 1199 214 b 635 1085 1199 857 967 1085 b 71 536 303 1085 71 857 b 635 -14 71 214 303 -14 m 372 642 b 626 853 372 775 485 853 b 908 547 804 853 908 736 b 617 211 908 350 797 211 b 379 407 485 211 399 293 l 399 407 b 586 249 417 310 486 249 b 790 532 714 250 788 353 b 783 617 792 563 789 590 b 579 450 767 513 674 450 b 372 642 469 450 372 519 m 486 657 b 622 488 486 543 546 488 b 782 654 706 488 778 546 b 628 833 764 774 714 833 b 486 657 546 833 486 768 "},"⓪":{"ha":1269,"x_min":0,"x_max":0,"o":"m 635 -19 b 65 536 300 -19 65 211 b 635 1090 65 860 300 1090 b 1204 536 969 1090 1204 860 b 635 -19 1204 211 969 -19 m 96 536 b 635 10 96 228 318 10 b 1174 536 951 10 1174 228 b 635 1061 1174 843 951 1061 b 96 536 318 1061 96 843 m 343 540 b 635 863 343 728 457 863 b 926 540 814 863 926 728 b 635 221 926 354 814 221 b 343 540 457 221 343 354 m 460 540 b 635 240 460 353 522 240 b 811 540 749 240 811 353 b 635 843 811 731 749 843 b 460 540 522 843 460 731 "},"①":{"ha":1269,"x_min":0,"x_max":0,"o":"m 635 -19 b 65 536 300 -19 65 211 b 635 1090 65 860 300 1090 b 1204 536 969 1090 1204 860 b 635 -19 1204 211 969 -19 m 96 536 b 635 10 96 228 318 10 b 1174 536 951 10 1174 228 b 635 1061 1174 843 951 1061 b 96 536 318 1061 96 843 m 443 685 b 643 854 549 696 629 778 l 711 854 l 711 353 b 808 239 711 272 724 249 l 808 233 l 483 233 l 483 239 b 594 353 581 249 594 272 l 594 732 b 443 629 581 706 526 639 "},"②":{"ha":1269,"x_min":0,"x_max":0,"o":"m 635 -19 b 65 536 300 -19 65 211 b 635 1090 65 860 300 1090 b 1204 536 969 1090 1204 860 b 635 -19 1204 211 969 -19 m 96 536 b 635 10 96 228 318 10 b 1174 536 951 10 1174 228 b 635 1061 1174 843 951 1061 b 96 536 318 1061 96 843 m 379 617 b 650 861 386 754 490 861 b 872 693 779 861 872 801 b 596 460 872 565 724 515 b 425 317 515 425 439 376 l 892 317 l 892 233 l 385 233 l 385 249 b 568 476 385 356 476 421 b 757 706 679 543 757 597 b 635 838 757 785 714 838 b 478 617 531 838 476 751 l 379 617 "},"③":{"ha":1269,"x_min":0,"x_max":0,"o":"m 635 -19 b 65 536 300 -19 65 211 b 635 1090 65 860 300 1090 b 1204 536 969 1090 1204 860 b 635 -19 1204 211 969 -19 m 96 536 b 635 10 96 228 318 10 b 1174 536 951 10 1174 228 b 635 1061 1174 843 951 1061 b 96 536 318 1061 96 843 m 396 444 b 597 258 401 324 482 258 b 774 411 713 258 774 326 b 590 547 774 493 719 547 l 539 547 l 539 564 l 590 564 b 757 714 700 564 757 629 b 631 835 757 783 715 835 b 476 668 538 835 479 771 l 381 668 b 646 861 392 789 503 861 b 867 708 786 861 867 794 b 664 560 867 621 788 568 b 893 406 811 553 893 499 b 633 219 893 306 796 219 b 378 444 469 219 382 311 "},"④":{"ha":1269,"x_min":0,"x_max":0,"o":"m 635 -19 b 65 536 300 -19 65 211 b 635 1090 65 860 300 1090 b 1204 536 969 1090 1204 860 b 635 -19 1204 211 969 -19 m 96 536 b 635 10 96 228 318 10 b 1174 536 951 10 1174 228 b 635 1061 1174 843 951 1061 b 96 536 318 1061 96 843 m 306 443 l 676 861 l 758 861 l 758 469 l 899 469 l 899 400 l 758 400 l 758 343 b 846 249 758 278 774 257 l 846 243 l 554 243 l 554 249 b 642 344 626 257 642 278 l 642 400 l 306 400 m 642 469 l 642 790 l 358 469 "},"⑤":{"ha":1269,"x_min":0,"x_max":0,"o":"m 635 -19 b 65 536 300 -19 65 211 b 635 1090 65 860 300 1090 b 1204 536 969 1090 1204 860 b 635 -19 1204 211 969 -19 m 96 536 b 635 10 96 228 318 10 b 1174 536 951 10 1174 228 b 635 1061 1174 843 951 1061 b 96 536 318 1061 96 843 m 399 431 b 593 251 408 317 483 251 b 767 421 697 251 767 314 b 593 589 767 533 693 589 b 422 518 528 589 461 565 l 411 525 l 463 849 l 851 849 l 851 769 l 471 769 l 435 543 b 657 631 486 601 571 631 b 886 429 801 631 886 553 b 636 217 886 293 781 217 b 382 431 485 217 392 297 "},"⑥":{"ha":1269,"x_min":0,"x_max":0,"o":"m 635 -19 b 65 536 300 -19 65 211 b 635 1090 65 860 300 1090 b 1204 536 969 1090 1204 860 b 635 -19 1204 211 969 -19 m 96 536 b 635 10 96 228 318 10 b 1174 536 951 10 1174 228 b 635 1061 1174 843 951 1061 b 96 536 318 1061 96 843 m 365 522 b 657 863 365 722 476 863 b 894 667 789 863 875 781 l 875 667 b 688 824 857 764 788 825 b 483 542 560 824 486 721 b 490 457 482 511 485 483 b 694 624 507 561 600 624 b 901 432 804 624 901 554 b 647 221 901 299 789 221 b 365 522 469 221 365 338 m 492 419 b 646 240 510 300 560 240 b 788 417 728 240 788 304 b 651 586 788 529 728 586 b 492 419 568 586 496 528 "},"⑦":{"ha":1269,"x_min":0,"x_max":0,"o":"m 635 -19 b 65 536 300 -19 65 211 b 635 1090 65 860 300 1090 b 1204 536 969 1090 1204 860 b 635 -19 1204 211 969 -19 m 96 536 b 635 10 96 228 318 10 b 1174 536 951 10 1174 228 b 635 1061 1174 843 951 1061 b 96 536 318 1061 96 843 m 408 836 l 889 836 l 889 821 l 567 222 l 432 222 l 825 747 l 408 747 "},"⑧":{"ha":1269,"x_min":0,"x_max":0,"o":"m 635 -19 b 65 536 300 -19 65 211 b 635 1090 65 860 300 1090 b 1204 536 969 1090 1204 860 b 635 -19 1204 211 969 -19 m 96 536 b 635 10 96 228 318 10 b 1174 536 951 10 1174 228 b 635 1061 1174 843 951 1061 b 96 536 318 1061 96 843 m 350 394 b 549 561 350 490 442 547 b 381 706 446 575 381 622 b 631 858 381 803 475 858 b 879 706 785 858 879 803 b 713 561 879 622 821 575 b 908 394 824 547 908 490 b 631 217 908 282 804 217 b 350 394 456 217 350 282 m 467 396 b 631 235 467 300 517 235 b 793 396 743 235 793 300 b 631 549 793 488 739 549 b 467 396 521 549 467 488 m 490 708 b 631 571 490 628 517 571 b 769 708 743 571 769 628 b 631 842 769 786 731 842 b 490 708 528 842 490 786 "},"⑨":{"ha":1269,"x_min":0,"x_max":0,"o":"m 635 -19 b 65 536 300 -19 65 211 b 635 1090 65 860 300 1090 b 1204 536 969 1090 1204 860 b 635 -19 1204 211 969 -19 m 96 536 b 635 10 96 228 318 10 b 1174 536 951 10 1174 228 b 635 1061 1174 843 951 1061 b 96 536 318 1061 96 843 m 368 644 b 622 856 368 778 481 856 b 904 550 800 856 904 739 b 613 214 904 353 793 214 b 375 410 481 214 394 296 l 394 410 b 582 251 413 313 482 251 b 786 535 710 253 783 356 b 779 619 788 565 785 593 b 575 453 763 515 669 453 b 368 644 465 453 368 522 m 482 660 b 618 490 482 546 542 490 b 778 657 701 490 774 549 b 624 836 760 776 710 836 b 482 660 542 836 482 771 "},"⁄":{"ha":175,"x_min":0,"x_max":0,"o":"m 460 1051 l 497 1051 l -283 0 l -322 0 "},"½":{"ha":1207,"x_min":0,"x_max":0,"o":"m 68 449 b 179 563 165 458 179 482 l 179 942 b 28 839 165 915 111 849 l 28 894 b 228 1064 133 906 214 988 l 296 1064 l 296 563 b 393 449 296 482 308 458 l 393 443 l 68 443 m 893 1051 l 931 1051 l 150 0 l 111 0 m 651 383 b 922 628 658 521 763 628 b 1144 460 1051 628 1144 568 b 868 226 1144 332 996 282 b 697 83 788 192 711 143 l 1164 83 l 1164 0 l 657 0 l 657 15 b 840 243 657 122 749 188 b 1029 472 951 310 1029 364 b 907 604 1029 551 986 604 b 750 383 803 604 749 518 l 651 383 "},"¼":{"ha":1185,"x_min":0,"x_max":0,"o":"m 68 449 b 179 563 165 458 179 482 l 179 942 b 28 839 165 915 111 849 l 28 894 b 228 1064 133 906 214 988 l 296 1064 l 296 563 b 393 449 296 482 308 458 l 393 443 l 68 443 m 893 1051 l 931 1051 l 150 0 l 111 0 m 568 200 l 939 618 l 1021 618 l 1021 226 l 1161 226 l 1161 157 l 1021 157 l 1021 100 b 1108 6 1021 35 1036 14 l 1108 0 l 817 0 l 817 6 b 904 101 889 14 904 35 l 904 157 l 568 157 m 904 226 l 904 547 l 621 226 "},"¾":{"ha":1346,"x_min":0,"x_max":0,"o":"m 297 429 b 42 654 133 429 46 521 l 60 654 b 261 468 65 533 146 468 b 438 621 376 468 438 536 b 254 757 438 703 383 757 l 203 757 l 203 774 l 254 774 b 421 924 364 774 421 839 b 294 1044 421 993 379 1044 b 140 878 201 1044 143 981 l 44 878 b 310 1071 56 999 167 1071 b 531 918 450 1071 531 1004 b 328 769 531 831 451 778 b 557 615 475 763 557 708 b 297 429 557 515 460 429 m 1054 1051 l 1092 1051 l 311 0 l 272 0 m 729 200 l 1100 618 l 1182 618 l 1182 226 l 1322 226 l 1322 157 l 1182 157 l 1182 100 b 1269 6 1182 35 1197 14 l 1269 0 l 978 0 l 978 6 b 1065 101 1050 14 1065 35 l 1065 157 l 729 157 m 1065 226 l 1065 547 l 782 226 "},"⅛":{"ha":1256,"x_min":0,"x_max":0,"o":"m 68 449 b 179 563 165 458 179 482 l 179 942 b 28 839 165 915 111 849 l 28 894 b 228 1064 133 906 214 988 l 296 1064 l 296 563 b 393 449 296 482 308 458 l 393 443 l 68 443 m 893 1051 l 931 1051 l 150 0 l 111 0 m 653 164 b 851 331 653 260 744 317 b 683 475 749 344 683 392 b 933 628 683 572 778 628 b 1182 475 1088 628 1182 572 b 1015 331 1182 392 1124 344 b 1211 164 1126 317 1211 260 b 933 -14 1211 51 1107 -14 b 653 164 758 -14 653 51 m 769 165 b 933 4 769 69 819 4 b 1096 165 1046 4 1096 69 b 933 318 1096 257 1042 318 b 769 165 824 318 769 257 m 793 478 b 933 340 793 397 819 340 b 1072 478 1046 340 1072 397 b 933 611 1072 556 1033 611 b 793 478 831 611 793 556 "},"⅜":{"ha":1417,"x_min":0,"x_max":0,"o":"m 297 429 b 42 654 133 429 46 521 l 60 654 b 261 468 65 533 146 468 b 438 621 376 468 438 536 b 254 757 438 703 383 757 l 203 757 l 203 774 l 254 774 b 421 924 364 774 421 839 b 294 1044 421 993 379 1044 b 140 878 201 1044 143 981 l 44 878 b 310 1071 56 999 167 1071 b 531 918 450 1071 531 1004 b 328 769 531 831 451 778 b 557 615 475 763 557 708 b 297 429 557 515 460 429 m 1054 1051 l 1092 1051 l 311 0 l 272 0 m 814 164 b 1013 331 814 260 906 317 b 844 475 910 344 844 392 b 1094 628 844 572 939 628 b 1343 475 1249 628 1343 572 b 1176 331 1343 392 1285 344 b 1372 164 1288 317 1372 260 b 1094 -14 1372 51 1268 -14 b 814 164 919 -14 814 51 m 931 165 b 1094 4 931 69 981 4 b 1257 165 1207 4 1257 69 b 1094 318 1257 257 1203 318 b 931 165 985 318 931 257 m 954 478 b 1094 340 954 397 981 340 b 1233 478 1207 340 1233 397 b 1094 611 1233 556 1194 611 b 954 478 992 611 954 556 "},"⅝":{"ha":1404,"x_min":0,"x_max":0,"o":"m 292 426 b 38 640 140 426 47 507 l 54 640 b 249 461 64 526 139 461 b 422 631 353 461 422 524 b 249 799 422 743 349 799 b 78 728 183 799 117 775 l 67 735 l 118 1058 l 507 1058 l 507 979 l 126 979 l 90 753 b 313 840 142 811 226 840 b 542 639 457 840 542 763 b 292 426 542 503 436 426 m 1042 1051 l 1079 1051 l 299 0 l 260 0 m 801 164 b 1000 331 801 260 893 317 b 832 475 897 344 832 392 b 1082 628 832 572 926 628 b 1331 475 1236 628 1331 572 b 1164 331 1331 392 1272 344 b 1360 164 1275 317 1360 260 b 1082 -14 1360 51 1256 -14 b 801 164 907 -14 801 51 m 918 165 b 1082 4 918 69 968 4 b 1244 165 1194 4 1244 69 b 1082 318 1244 257 1190 318 b 918 165 972 318 918 257 m 942 478 b 1082 340 942 397 968 340 b 1221 478 1194 340 1221 397 b 1082 611 1221 556 1182 611 b 942 478 979 611 942 556 "},"⅞":{"ha":1294,"x_min":0,"x_max":0,"o":"m 443 969 l 26 969 l 26 1058 l 507 1058 l 507 1043 l 185 444 l 50 444 m 932 1051 l 969 1051 l 189 0 l 150 0 m 692 164 b 890 331 692 260 783 317 b 722 475 788 344 722 392 b 972 628 722 572 817 628 b 1221 475 1126 628 1221 572 b 1054 331 1221 392 1163 344 b 1250 164 1165 317 1250 260 b 972 -14 1250 51 1146 -14 b 692 164 797 -14 692 51 m 808 165 b 972 4 808 69 858 4 b 1135 165 1085 4 1135 69 b 972 318 1135 257 1081 318 b 808 165 863 318 808 257 m 832 478 b 972 340 832 397 858 340 b 1111 478 1085 340 1111 397 b 972 611 1111 556 1072 611 b 832 478 869 611 832 556 "},"₀":{"ha":672,"x_min":0,"x_max":0,"o":"m 336 -153 b 44 167 158 -153 44 -19 b 336 489 44 354 158 489 b 628 167 515 489 628 354 b 336 -153 628 -19 515 -153 m 161 167 b 336 -133 161 -21 224 -133 b 513 167 450 -133 513 -21 b 336 469 513 357 450 469 b 161 167 224 469 161 357 "},"₁":{"ha":433,"x_min":0,"x_max":0,"o":"m 68 -133 b 179 -19 165 -124 179 -100 l 179 360 b 28 257 165 333 111 267 l 28 313 b 228 482 133 324 214 406 l 296 482 l 296 -19 b 393 -133 296 -100 308 -124 l 393 -139 l 68 -139 "},"₂":{"ha":597,"x_min":0,"x_max":0,"o":"m 49 -124 b 232 104 49 -17 140 49 b 421 333 343 171 421 225 b 299 465 421 413 378 465 b 142 244 194 465 140 379 l 43 244 b 314 489 50 382 154 489 b 536 321 443 489 536 429 b 260 88 536 193 388 143 b 89 -56 179 53 103 4 l 556 -56 l 556 -139 l 49 -139 l 49 -124 "},"₃":{"ha":594,"x_min":0,"x_max":0,"o":"m 297 -153 b 42 72 133 -153 46 -61 l 60 72 b 261 -114 65 -49 146 -114 b 438 39 376 -114 438 -46 b 254 175 438 121 383 175 l 203 175 l 203 192 l 254 192 b 421 342 364 192 421 257 b 294 463 421 411 379 463 b 140 296 201 463 143 399 l 44 296 b 310 489 56 417 167 489 b 531 336 450 489 531 422 b 328 188 531 249 451 196 b 557 33 475 181 557 126 b 297 -153 557 -67 460 -153 "},"₄":{"ha":618,"x_min":0,"x_max":0,"o":"m 250 -133 b 338 -37 322 -125 338 -104 l 338 18 l 1 18 l 1 61 l 372 479 l 454 479 l 454 88 l 594 88 l 594 18 l 454 18 l 454 -39 b 542 -133 454 -104 469 -125 l 542 -139 l 250 -139 l 250 -133 m 338 88 l 338 408 l 54 88 "},"₅":{"ha":582,"x_min":0,"x_max":0,"o":"m 292 -157 b 38 57 140 -157 47 -76 l 54 57 b 249 -122 64 -57 139 -122 b 422 47 353 -122 422 -60 b 249 215 422 160 349 215 b 78 144 183 215 117 192 l 67 151 l 118 475 l 507 475 l 507 396 l 126 396 l 90 169 b 313 257 142 228 226 257 b 542 56 457 257 542 179 b 292 -157 542 -81 436 -157 "},"₆":{"ha":628,"x_min":0,"x_max":0,"o":"m 328 -153 b 46 149 150 -153 46 -36 b 338 489 46 349 157 489 b 575 293 469 489 556 407 l 556 293 b 368 450 538 390 468 451 b 164 168 240 450 167 347 b 171 83 163 138 165 110 b 375 250 188 188 281 250 b 582 58 485 250 582 181 b 328 -153 582 -75 469 -153 m 172 46 b 326 -133 190 -74 240 -133 b 468 43 408 -133 468 -69 b 332 213 468 156 408 213 b 172 46 249 213 176 154 "},"₇":{"ha":514,"x_min":0,"x_max":0,"o":"m 443 386 l 26 386 l 26 475 l 507 475 l 507 460 l 185 -139 l 50 -139 "},"₈":{"ha":647,"x_min":0,"x_max":0,"o":"m 325 -153 b 44 25 150 -153 44 -87 b 243 192 44 121 136 178 b 75 336 140 206 75 253 b 325 489 75 433 169 489 b 574 336 479 489 574 433 b 407 192 574 253 515 206 b 603 25 518 178 603 121 b 325 -153 603 -87 499 -153 m 161 26 b 325 -135 161 -69 211 -135 b 488 26 438 -135 488 -69 b 325 179 488 118 433 179 b 161 26 215 179 161 118 m 185 339 b 325 201 185 258 211 201 b 464 339 438 201 464 258 b 325 472 464 417 425 472 b 185 339 222 472 185 417 "},"₉":{"ha":628,"x_min":0,"x_max":0,"o":"m 300 490 b 582 185 478 490 582 374 b 290 -151 582 -12 471 -151 b 53 44 158 -151 72 -69 l 72 44 b 260 -114 90 -53 160 -114 b 464 169 388 -112 461 -10 b 457 254 465 200 463 228 b 253 88 440 150 347 88 b 46 279 143 88 46 157 b 300 490 46 413 158 490 m 160 294 b 296 125 160 181 219 125 b 456 292 379 125 451 183 b 301 471 438 411 388 471 b 160 294 219 471 160 406 "},"⁰":{"ha":672,"x_min":0,"x_max":0,"o":"m 336 611 b 44 931 158 611 44 744 b 336 1253 44 1118 158 1253 b 628 931 515 1253 628 1118 b 336 611 628 744 515 611 m 161 931 b 336 631 161 743 224 631 b 513 931 450 631 513 743 b 336 1233 513 1121 450 1233 b 161 931 224 1233 161 1121 "},"¹":{"ha":433,"x_min":0,"x_max":0,"o":"m 68 631 b 179 744 165 640 179 664 l 179 1124 b 28 1021 165 1097 111 1031 l 28 1076 b 228 1246 133 1088 214 1169 l 296 1246 l 296 744 b 393 631 296 664 308 640 l 393 625 l 68 625 "},"²":{"ha":597,"x_min":0,"x_max":0,"o":"m 49 640 b 232 868 49 747 140 813 b 421 1097 343 935 421 989 b 299 1229 421 1176 378 1229 b 142 1008 194 1229 140 1143 l 43 1008 b 314 1253 50 1146 154 1253 b 536 1085 443 1253 536 1193 b 260 851 536 957 388 907 b 89 708 179 817 103 768 l 556 708 l 556 625 l 49 625 l 49 640 "},"³":{"ha":594,"x_min":0,"x_max":0,"o":"m 297 611 b 42 836 133 611 46 703 l 60 836 b 261 650 65 715 146 650 b 438 803 376 650 438 718 b 254 939 438 885 383 939 l 203 939 l 203 956 l 254 956 b 421 1106 364 956 421 1021 b 294 1226 421 1175 379 1226 b 140 1060 201 1226 143 1163 l 44 1060 b 310 1253 56 1181 167 1253 b 531 1100 450 1253 531 1186 b 328 951 531 1013 451 960 b 557 797 475 944 557 890 b 297 611 557 697 460 611 "},"⁴":{"ha":618,"x_min":0,"x_max":0,"o":"m 250 631 b 338 726 322 639 338 660 l 338 782 l 1 782 l 1 825 l 372 1243 l 454 1243 l 454 851 l 594 851 l 594 782 l 454 782 l 454 725 b 542 631 454 660 469 639 l 542 625 l 250 625 l 250 631 m 338 851 l 338 1172 l 54 851 "},"⁵":{"ha":582,"x_min":0,"x_max":0,"o":"m 292 607 b 38 821 140 607 47 688 l 54 821 b 249 642 64 707 139 642 b 422 811 353 642 422 704 b 249 979 422 924 349 979 b 78 908 183 979 117 956 l 67 915 l 118 1239 l 507 1239 l 507 1160 l 126 1160 l 90 933 b 313 1021 142 992 226 1021 b 542 819 457 1021 542 943 b 292 607 542 683 436 607 "},"⁶":{"ha":628,"x_min":0,"x_max":0,"o":"m 328 611 b 46 913 150 611 46 728 b 338 1253 46 1113 157 1253 b 575 1057 469 1253 556 1171 l 556 1057 b 368 1214 538 1154 468 1215 b 164 932 240 1214 167 1111 b 171 847 163 901 165 874 b 375 1014 188 951 281 1014 b 582 822 485 1014 582 944 b 328 611 582 689 469 611 m 172 810 b 326 631 190 690 240 631 b 468 807 408 631 468 694 b 332 976 468 919 408 976 b 172 810 249 976 176 918 "},"⁷":{"ha":514,"x_min":0,"x_max":0,"o":"m 443 1150 l 26 1150 l 26 1239 l 507 1239 l 507 1224 l 185 625 l 50 625 "},"⁸":{"ha":647,"x_min":0,"x_max":0,"o":"m 325 611 b 44 789 150 611 44 676 b 243 956 44 885 136 942 b 75 1100 140 969 75 1017 b 325 1253 75 1197 169 1253 b 574 1100 479 1253 574 1197 b 407 956 574 1017 515 969 b 603 789 518 942 603 885 b 325 611 603 676 499 611 m 161 790 b 325 629 161 694 211 629 b 488 790 438 629 488 694 b 325 943 488 882 433 943 b 161 790 215 943 161 882 m 185 1103 b 325 965 185 1022 211 965 b 464 1103 438 965 464 1022 b 325 1236 464 1181 425 1236 b 185 1103 222 1236 185 1181 "},"⁹":{"ha":628,"x_min":0,"x_max":0,"o":"m 300 1254 b 582 949 478 1254 582 1138 b 290 613 582 751 471 613 b 53 808 158 613 72 694 l 72 808 b 260 650 90 711 160 650 b 464 933 388 651 461 754 b 457 1018 465 964 463 992 b 253 851 440 914 347 851 b 46 1043 143 851 46 921 b 300 1254 46 1176 158 1254 m 160 1058 b 296 889 160 944 219 889 b 456 1056 379 889 451 947 b 301 1235 438 1175 388 1235 b 160 1058 219 1235 160 1169 "},".":{"ha":296,"x_min":0,"x_max":0,"o":"m 79 165 l 217 165 l 217 0 l 79 0 "},",":{"ha":301,"x_min":0,"x_max":0,"o":"m 46 -147 b 206 0 132 -133 193 -86 l 85 0 l 85 165 l 222 165 l 222 21 b 46 -229 222 -97 165 -190 l 46 -147 "},":":{"ha":324,"x_min":0,"x_max":0,"o":"m 93 585 l 231 585 l 231 419 l 93 419 m 93 165 l 231 165 l 231 0 l 93 0 "},";":{"ha":329,"x_min":0,"x_max":0,"o":"m 93 585 l 231 585 l 231 419 l 93 419 m 60 -147 b 219 0 146 -133 207 -86 l 99 0 l 99 165 l 236 165 l 236 21 b 60 -229 236 -97 179 -190 "},"…":{"ha":939,"x_min":0,"x_max":0,"o":"m 714 165 l 851 165 l 851 0 l 714 0 m 88 165 l 225 165 l 225 0 l 88 0 m 401 165 l 539 165 l 539 0 l 401 0 "},"!":{"ha":357,"x_min":0,"x_max":0,"o":"m 94 1051 l 263 1051 l 193 303 l 164 303 m 110 165 l 247 165 l 247 0 l 110 0 "},"¡":{"ha":357,"x_min":0,"x_max":0,"o":"m 193 390 l 263 -358 l 94 -358 l 164 390 m 110 693 l 247 693 l 247 528 l 110 528 "},"?":{"ha":706,"x_min":0,"x_max":0,"o":"m 242 303 b 207 422 219 347 207 383 b 533 861 207 614 533 636 b 375 1031 533 957 478 1031 b 158 729 242 1031 164 921 l 28 729 b 396 1068 40 946 189 1068 b 686 851 576 1068 686 978 b 264 436 686 607 264 621 b 344 303 264 386 301 347 l 242 303 m 233 165 l 371 165 l 371 0 l 233 0 "},"¿":{"ha":706,"x_min":0,"x_max":0,"o":"m 464 390 b 499 271 486 346 499 310 b 172 -168 499 79 172 57 b 331 -337 172 -264 228 -337 b 547 -36 464 -337 542 -228 l 678 -36 b 310 -375 665 -253 517 -375 b 19 -158 129 -375 19 -285 b 442 257 19 86 442 72 b 361 390 442 307 404 346 l 464 390 m 335 693 l 472 693 l 472 528 l 335 528 "},"·":{"ha":303,"x_min":0,"x_max":0,"o":"m 82 439 l 219 439 l 219 274 l 82 274 "},"•":{"ha":457,"x_min":0,"x_max":0,"o":"m 139 450 l 318 450 l 318 275 l 139 275 "},"*":{"ha":744,"x_min":0,"x_max":0,"o":"m 363 718 l 189 490 l 124 554 l 350 732 l 68 696 l 68 786 l 350 753 l 124 929 l 189 994 l 363 765 l 326 1051 l 417 1051 l 381 765 l 556 994 l 619 929 l 393 753 l 676 786 l 676 696 l 393 732 l 619 554 l 556 490 l 381 718 l 417 433 l 326 433 "},"‽":{"ha":726,"x_min":0,"x_max":0,"o":"m 289 165 l 426 165 l 426 0 l 289 0 m 28 729 b 406 1068 40 946 193 1068 b 707 842 593 1068 707 974 b 385 429 707 610 436 600 l 375 303 l 339 303 l 300 799 l 415 799 l 392 510 b 583 836 450 607 583 669 b 389 1031 583 947 517 1031 b 147 729 238 1031 153 921 l 28 729 "},"#":{"ha":857,"x_min":0,"x_max":0,"o":"m 271 401 l 47 401 l 47 431 l 278 431 l 319 617 l 79 617 l 79 644 l 325 644 l 419 1065 l 454 1065 l 360 644 l 550 644 l 644 1065 l 679 1065 l 585 644 l 810 644 l 810 617 l 579 617 l 538 429 l 778 429 l 778 401 l 531 401 l 438 -14 l 401 -14 l 494 401 l 306 401 l 213 -14 l 178 -14 m 501 429 l 543 617 l 354 617 l 313 431 "},"/":{"ha":679,"x_min":0,"x_max":0,"o":"m 622 1189 l 660 1189 l 58 -165 l 19 -165 "},"\\":{"ha":688,"x_min":0,"x_max":0,"o":"m 625 -165 l 24 1189 l 61 1189 l 664 -165 "},"-":{"ha":642,"x_min":0,"x_max":0,"o":"m 61 397 b 581 397 246 378 397 378 l 581 324 b 61 324 397 343 246 343 l 61 397 "},"–":{"ha":1276,"x_min":0,"x_max":0,"o":"m 60 392 l 1217 392 l 1217 331 l 60 331 "},"—":{"ha":1733,"x_min":0,"x_max":0,"o":"m 60 392 l 1674 392 l 1674 331 l 60 331 "},"_":{"ha":979,"x_min":0,"x_max":0,"o":"m 0 -53 l 979 -53 l 979 -115 l 0 -115 "},"(":{"ha":528,"x_min":0,"x_max":0,"o":"m 496 -189 b 57 478 239 -86 57 174 b 501 1117 57 779 254 1014 l 501 1096 b 203 478 310 971 203 728 b 496 -169 203 225 294 -44 l 496 -189 "},")":{"ha":528,"x_min":0,"x_max":0,"o":"m 32 -169 b 325 478 233 -44 325 225 b 26 1096 325 728 218 971 l 26 1117 b 471 478 274 1014 471 779 b 32 -189 471 174 289 -86 l 32 -169 "},"{":{"ha":490,"x_min":0,"x_max":0,"o":"m 453 -181 b 144 156 183 -181 111 -72 b 19 460 186 414 119 460 l 19 485 b 144 789 119 485 186 531 b 453 1125 111 1017 183 1125 l 453 1104 b 286 804 256 1104 253 1007 b 111 474 331 540 214 479 l 111 472 b 286 140 214 467 331 406 b 453 -160 253 -62 256 -160 l 453 -181 "},"}":{"ha":490,"x_min":0,"x_max":0,"o":"m 38 -160 b 204 140 235 -160 238 -62 b 379 472 160 406 276 467 l 379 474 b 204 804 276 479 160 540 b 38 1104 238 1007 235 1104 l 38 1125 b 346 789 307 1125 379 1017 b 471 485 304 531 371 485 l 471 460 b 346 156 371 460 304 414 b 38 -181 379 -72 307 -181 l 38 -160 "},"[":{"ha":543,"x_min":0,"x_max":0,"o":"m 118 1125 l 474 1125 l 474 1104 l 260 1104 l 260 -160 l 474 -160 l 474 -181 l 118 -181 "},"]":{"ha":543,"x_min":0,"x_max":0,"o":"m 69 -181 l 69 -160 l 283 -160 l 283 1104 l 69 1104 l 69 1125 l 425 1125 l 425 -181 "},"【":{"ha":519,"x_min":0,"x_max":0,"o":"m 118 1125 l 493 1125 b 174 469 278 965 174 750 b 493 -181 174 193 278 -21 l 118 -181 "},"】":{"ha":519,"x_min":0,"x_max":0,"o":"m 401 -181 l 26 -181 b 346 475 242 -21 346 194 b 26 1125 346 751 242 965 l 401 1125 "},"〖":{"ha":615,"x_min":0,"x_max":0,"o":"m 118 1125 l 589 1125 b 282 469 382 965 282 751 b 589 -181 282 189 382 -22 l 118 -181 m 483 -142 b 235 469 314 15 235 213 b 482 1085 235 728 314 929 l 167 1085 l 167 -142 "},"〗":{"ha":615,"x_min":0,"x_max":0,"o":"m 26 -181 b 333 469 233 -22 333 189 b 26 1125 333 751 233 965 l 497 1125 l 497 -181 l 26 -181 m 449 -142 l 449 1085 l 133 1085 b 381 469 301 929 381 728 b 132 -142 381 213 301 15 "},"‚":{"ha":301,"x_min":0,"x_max":0,"o":"m 46 -147 b 206 0 132 -133 193 -86 l 85 0 l 85 165 l 222 165 l 222 21 b 46 -229 222 -97 165 -190 l 46 -147 "},"„":{"ha":524,"x_min":0,"x_max":0,"o":"m 268 -147 b 428 0 354 -133 415 -86 l 307 0 l 307 165 l 444 165 l 444 21 b 268 -229 444 -97 388 -190 l 268 -147 m 46 -147 b 206 0 132 -133 193 -86 l 85 0 l 85 165 l 222 165 l 222 21 b 46 -229 222 -97 165 -190 "},"“":{"ha":511,"x_min":0,"x_max":0,"o":"m 244 989 b 85 842 158 974 97 928 l 206 842 l 206 676 l 68 676 l 68 819 b 244 1071 68 938 125 1032 l 244 989 m 289 819 b 465 1071 289 938 346 1032 l 465 989 b 306 842 379 974 318 928 l 426 842 l 426 676 l 289 676 "},"”":{"ha":513,"x_min":0,"x_max":0,"o":"m 268 747 b 428 894 354 763 415 808 l 307 894 l 307 1060 l 444 1060 l 444 917 b 268 665 444 799 388 704 l 268 747 m 46 747 b 206 894 132 763 193 808 l 85 894 l 85 1060 l 222 1060 l 222 917 b 46 665 222 799 165 704 "},"‘":{"ha":290,"x_min":0,"x_max":0,"o":"m 244 989 b 85 842 158 974 97 928 l 206 842 l 206 676 l 68 676 l 68 819 b 244 1071 68 938 125 1032 l 244 989 "},"’":{"ha":290,"x_min":0,"x_max":0,"o":"m 46 747 b 206 894 132 763 193 808 l 85 894 l 85 1060 l 222 1060 l 222 917 b 46 665 222 799 165 704 l 46 747 "},"«":{"ha":701,"x_min":0,"x_max":0,"o":"m 58 304 l 58 356 l 381 596 l 381 572 l 158 333 l 158 326 l 381 88 l 381 64 m 303 356 l 625 596 l 625 572 l 403 333 l 403 326 l 625 88 l 625 64 l 303 304 "},"»":{"ha":701,"x_min":0,"x_max":0,"o":"m 321 88 l 543 326 l 543 333 l 321 572 l 321 596 l 643 356 l 643 304 l 321 64 m 76 88 l 299 326 l 299 333 l 76 572 l 76 596 l 399 356 l 399 304 l 76 64 "},"‹":{"ha":457,"x_min":0,"x_max":0,"o":"m 58 306 l 58 357 l 381 597 l 381 574 l 158 335 l 158 328 l 381 89 l 381 65 "},"›":{"ha":457,"x_min":0,"x_max":0,"o":"m 76 89 l 299 328 l 299 335 l 76 574 l 76 597 l 399 357 l 399 306 l 76 65 "},"\"":{"ha":456,"x_min":0,"x_max":0,"o":"m 63 1051 l 183 1051 l 138 681 l 108 681 m 393 1051 l 347 681 l 318 681 l 272 1051 "},"'":{"ha":246,"x_min":0,"x_max":0,"o":"m 63 1051 l 183 1051 l 138 681 l 108 681 "},"ƒ":{"ha":931,"x_min":0,"x_max":0,"o":"m 42 -194 b 336 206 254 -194 303 -62 l 381 538 l 42 538 l 42 565 l 383 565 l 407 739 b 707 1057 433 949 539 1057 b 883 982 801 1057 853 1021 l 824 881 b 704 1026 803 968 775 1026 b 529 739 606 1026 553 931 l 507 565 l 889 565 l 889 538 l 503 538 l 458 197 b 42 -229 426 -51 328 -229 l 42 -194 "},"✳":{"ha":1072,"x_min":0,"x_max":0,"o":"m 146 236 l 506 514 l 56 456 l 56 594 l 508 536 l 146 815 l 243 913 l 526 546 l 467 1006 l 606 1006 l 546 546 l 829 913 l 926 815 l 564 536 l 1017 594 l 1017 456 l 567 514 l 926 236 l 829 139 l 546 506 l 606 46 l 467 46 l 526 506 l 243 139 "},"@":{"ha":1442,"x_min":0,"x_max":0,"o":"m 656 -228 b 54 319 292 -228 54 -42 b 817 1071 54 713 322 1071 b 1382 567 1204 1071 1382 847 b 994 79 1382 300 1222 79 b 797 285 853 79 786 163 b 538 79 740 169 651 79 b 363 307 428 79 363 164 b 721 779 363 542 531 779 b 885 578 842 779 889 682 l 940 753 l 1075 783 l 942 365 b 1026 108 886 192 908 108 b 1354 565 1213 108 1354 314 b 818 1047 1354 843 1183 1047 b 82 318 343 1047 82 704 b 657 -203 82 -42 319 -203 b 1128 -50 829 -203 989 -160 l 1125 -78 b 656 -228 997 -179 840 -228 m 499 304 b 599 142 499 211 526 142 b 835 425 706 142 790 292 l 847 468 b 771 718 883 576 879 711 b 499 304 629 729 499 499 "},"&":{"ha":1163,"x_min":0,"x_max":0,"o":"m 451 -18 b 111 256 258 -18 111 82 b 376 572 111 404 214 489 b 211 846 268 685 211 750 b 496 1072 211 993 339 1072 b 758 863 643 1072 758 992 b 506 606 758 747 660 672 l 815 290 b 865 468 840 350 856 414 l 994 468 b 869 235 956 383 915 304 l 1086 15 l 1086 0 l 932 0 l 796 139 b 451 -18 708 43 600 -18 m 254 288 b 511 51 254 154 347 51 b 756 181 622 51 701 106 l 399 549 b 254 288 301 472 254 392 m 343 879 b 482 629 343 794 382 732 b 638 875 581 696 638 769 b 496 1043 638 985 579 1043 b 343 879 406 1043 343 982 "},"¶":{"ha":917,"x_min":0,"x_max":0,"o":"m 381 453 b 33 751 194 453 33 529 b 381 1051 33 975 194 1051 l 879 1051 l 879 1024 l 710 1024 l 710 -192 l 675 -192 l 675 1024 l 501 1024 l 501 -192 l 467 -192 l 467 453 l 381 453 "},"§":{"ha":865,"x_min":0,"x_max":0,"o":"m 435 -236 b 88 35 272 -236 135 -154 l 206 35 b 443 -212 224 -87 290 -212 b 594 -78 538 -212 594 -160 b 343 192 594 28 494 86 b 67 513 154 325 67 393 b 231 711 67 621 140 686 b 178 853 194 754 178 799 b 431 1063 178 990 286 1063 b 740 806 574 1063 697 985 l 626 806 b 422 1040 611 921 554 1040 b 271 904 328 1040 271 986 b 521 635 271 800 369 740 b 799 314 710 503 799 435 b 633 115 799 206 724 140 b 686 -26 669 72 686 28 b 435 -236 686 -164 578 -236 m 165 557 b 413 293 165 475 225 418 b 608 144 500 235 564 188 b 699 269 664 164 699 208 b 453 533 699 351 640 408 b 256 683 365 592 300 639 b 165 557 200 663 165 618 "},"©":{"ha":1157,"x_min":0,"x_max":0,"o":"m 579 -21 b 74 525 275 -21 74 188 b 579 1071 74 863 275 1071 b 1083 525 882 1071 1083 863 b 579 -21 1083 188 882 -21 m 106 525 b 579 7 106 206 294 7 b 1051 525 863 7 1051 206 b 579 1043 1051 844 863 1043 b 106 525 294 1043 106 844 m 335 528 b 592 836 335 724 443 836 b 815 626 699 836 789 772 l 722 626 b 592 818 711 744 661 818 b 444 550 500 818 444 708 b 617 281 444 393 500 281 b 803 508 719 281 785 365 l 815 508 b 579 221 797 340 718 221 b 335 528 422 221 335 346 "},"®":{"ha":549,"x_min":0,"x_max":0,"o":"m 265 833 l 246 833 l 246 786 b 293 735 246 750 250 738 l 293 731 l 168 731 l 168 735 b 210 786 206 738 210 750 l 210 896 b 168 951 210 938 204 946 l 168 954 l 274 954 b 369 894 331 954 369 943 b 300 835 369 858 342 840 l 404 735 l 404 731 l 350 731 m 57 842 b 274 1056 57 967 149 1056 b 492 842 400 1056 492 967 b 274 628 492 715 400 628 b 57 842 149 628 57 715 m 85 842 b 274 651 85 728 157 651 b 464 842 390 651 464 728 b 274 1032 464 954 390 1032 b 85 842 157 1032 85 954 m 272 844 b 332 896 304 844 332 858 b 272 944 332 933 304 944 l 246 944 l 246 844 "},"℗":{"ha":549,"x_min":0,"x_max":0,"o":"m 176 735 b 218 786 214 738 218 750 l 218 896 b 176 951 218 938 214 946 l 176 954 l 282 954 b 379 894 340 954 379 943 b 281 833 379 851 339 833 l 254 833 l 254 786 b 301 735 254 750 260 738 l 301 731 l 176 731 l 176 735 m 57 842 b 274 1056 57 967 149 1056 b 492 842 400 1056 492 967 b 274 628 492 715 400 628 b 57 842 149 628 57 715 m 85 842 b 274 651 85 728 157 651 b 464 842 390 651 464 728 b 274 1032 464 954 390 1032 b 85 842 157 1032 85 954 m 281 844 b 340 896 313 844 340 860 b 281 944 340 933 313 944 l 254 944 l 254 844 "},"™":{"ha":1074,"x_min":0,"x_max":0,"o":"m 551 1001 l 551 799 b 626 654 551 697 561 667 l 626 650 l 460 650 l 460 654 b 535 799 525 667 535 697 l 535 893 b 460 1046 535 1010 525 1033 l 460 1051 l 614 1051 l 736 756 l 856 1051 l 1011 1051 l 1011 1046 b 938 893 946 1033 938 1010 l 938 799 b 1013 654 938 697 946 667 l 1013 650 l 781 650 l 781 654 b 856 799 846 667 856 697 l 856 1000 l 713 646 l 699 646 m 43 1051 l 421 1051 l 421 990 b 279 1036 357 1024 321 1036 l 274 1036 l 274 799 b 347 654 274 697 282 667 l 347 650 l 115 650 l 115 654 b 190 799 181 667 190 697 l 190 1036 l 183 1036 b 43 990 143 1036 108 1024 "},"°":{"ha":560,"x_min":0,"x_max":0,"o":"m 279 632 b 50 851 146 632 50 721 b 279 1069 50 985 146 1069 b 510 851 413 1069 510 985 b 279 632 510 721 413 632 m 147 851 b 279 646 147 714 193 646 b 411 851 364 646 411 714 b 279 1056 411 989 364 1056 b 147 851 193 1056 147 989 "},"′":{"ha":275,"x_min":0,"x_max":0,"o":"m 100 1051 l 217 1051 l 60 638 l 32 638 "},"″":{"ha":500,"x_min":0,"x_max":0,"o":"m 100 1051 l 217 1051 l 60 638 l 32 638 m 325 1051 l 442 1051 l 285 638 l 257 638 "},"|":{"ha":307,"x_min":0,"x_max":0,"o":"m 136 1189 l 171 1189 l 171 -165 l 136 -165 "},"¦":{"ha":307,"x_min":0,"x_max":0,"o":"m 136 371 l 171 371 l 171 -165 l 136 -165 m 136 1189 l 171 1189 l 171 657 l 136 657 "},"†":{"ha":665,"x_min":0,"x_max":0,"o":"m 317 722 l 28 689 l 28 790 l 317 750 l 279 1083 l 388 1083 l 347 750 l 638 790 l 638 689 l 347 722 l 382 56 l 281 56 "},"ℓ":{"ha":654,"x_min":0,"x_max":0,"o":"m 413 1072 b 551 899 511 1072 551 1001 b 328 493 551 758 476 615 l 328 197 b 393 15 328 72 347 15 b 551 365 460 15 526 133 l 571 363 b 353 -17 535 86 475 -17 b 196 197 211 -17 196 119 l 196 403 b 33 322 147 374 93 347 l 28 340 b 196 424 92 367 147 394 l 196 761 b 413 1072 196 982 301 1072 m 328 524 b 486 892 442 633 483 758 b 413 1047 488 976 471 1047 b 328 772 358 1047 328 960 l 328 524 "},"‡":{"ha":665,"x_min":0,"x_max":0,"o":"m 317 390 l 28 349 l 28 450 l 315 417 l 288 572 l 315 722 l 28 690 l 28 792 l 317 750 l 279 1083 l 388 1083 l 346 749 l 638 792 l 638 690 l 347 722 l 378 572 l 347 417 l 638 450 l 638 349 l 346 392 l 388 56 l 279 56 "},"℮":{"ha":1124,"x_min":0,"x_max":0,"o":"m 578 -22 b 56 469 294 -22 56 176 b 576 954 56 763 296 954 b 1068 471 851 954 1056 765 l 246 471 l 246 124 b 579 3 338 47 450 3 b 976 200 754 3 885 78 l 1013 200 b 578 -22 918 60 761 -22 m 876 497 l 876 821 b 576 932 797 892 694 932 b 246 817 449 932 332 890 l 246 497 "},"№":{"ha":1319,"x_min":0,"x_max":0,"o":"m 160 906 l 160 200 b 293 10 160 64 176 25 l 293 0 l 39 0 l 39 10 b 136 200 124 25 136 64 l 136 865 b 92 1042 136 1001 129 1028 l 92 1051 l 235 1051 l 751 144 l 751 851 b 626 1042 751 988 735 1026 l 626 1051 l 872 1051 l 872 1042 b 776 851 788 1026 776 988 l 776 0 l 674 0 m 918 886 b 1101 1061 918 993 994 1061 b 1286 886 1208 1061 1286 993 b 1101 711 1286 782 1208 711 b 918 886 994 711 918 782 m 996 886 b 1101 722 996 776 1032 722 b 1207 886 1169 722 1207 776 b 1101 1050 1207 996 1169 1050 b 996 886 1032 1050 996 996 "},"₿":{"ha":926,"x_min":0,"x_max":0,"o":"m 333 0 l 44 0 l 44 10 b 157 186 143 24 157 60 l 157 865 b 44 1042 157 1001 143 1028 l 44 1051 l 333 1051 l 333 1288 l 365 1288 l 365 1051 l 419 1051 b 469 1050 436 1051 453 1051 l 469 1288 l 503 1288 l 503 1049 b 808 815 672 1035 808 975 b 508 583 808 669 686 599 l 508 578 b 865 297 688 564 865 490 b 503 1 865 89 704 14 l 503 -236 l 469 -236 l 469 0 l 439 0 l 365 0 l 365 -236 l 333 -236 m 417 25 b 708 296 568 25 708 78 b 414 568 708 486 582 568 l 299 568 l 299 25 m 414 593 b 663 814 549 593 663 663 b 400 1026 663 979 540 1026 l 299 1026 l 299 593 "},"¢":{"ha":804,"x_min":0,"x_max":0,"o":"m 315 -11 b 68 338 165 25 68 153 b 418 706 68 569 222 706 b 465 703 435 706 450 704 l 508 910 l 538 910 l 493 699 b 726 451 632 672 714 572 l 606 451 b 488 669 596 543 567 638 l 360 64 b 460 43 388 50 421 43 b 715 288 592 43 679 133 l 733 288 b 403 -21 701 103 588 -21 b 343 -17 382 -21 363 -19 l 300 -219 l 271 -219 m 213 379 b 333 78 213 247 249 132 l 460 678 b 422 682 449 681 436 682 b 213 379 285 682 213 558 "},"¤":{"ha":775,"x_min":0,"x_max":0,"o":"m 388 222 b 215 281 319 222 260 243 l 99 163 l 78 185 l 194 301 b 131 476 154 346 131 406 b 194 651 131 547 154 607 l 78 767 l 99 789 l 215 671 b 388 729 260 708 319 729 b 558 671 456 729 514 708 l 675 789 l 697 767 l 581 650 b 644 476 621 607 644 546 b 581 301 644 406 621 346 l 697 185 l 675 163 l 558 281 b 388 222 514 243 456 222 m 164 476 b 388 251 164 346 256 251 b 610 476 518 251 610 346 b 388 700 610 607 518 700 b 164 476 256 700 164 607 "},"$":{"ha":918,"x_min":0,"x_max":0,"o":"m 467 -19 b 86 347 267 -10 110 114 l 233 347 b 467 6 247 169 318 24 l 467 461 l 433 482 b 147 813 278 576 147 656 b 456 1071 147 978 281 1071 l 467 1071 l 467 1274 l 499 1274 l 499 1069 b 832 779 663 1054 796 957 l 688 779 b 499 1043 671 917 607 1021 l 499 622 b 525 607 507 618 517 613 b 825 256 690 507 825 428 b 499 -21 825 83 686 -19 l 499 -236 l 467 -236 m 271 879 b 467 642 271 776 346 717 l 467 1047 l 456 1047 b 271 879 343 1049 272 982 m 499 3 b 700 194 617 3 699 74 b 499 442 700 303 626 363 l 499 3 "},"€":{"ha":1199,"x_min":0,"x_max":0,"o":"m 56 610 l 197 610 b 679 1064 233 886 426 1064 b 1119 696 897 1064 1064 935 l 986 696 b 681 1039 951 894 849 1039 b 344 610 482 1039 363 844 l 846 610 l 846 581 l 343 581 l 343 553 b 349 458 343 521 344 489 l 846 458 l 846 429 l 351 429 b 713 65 383 217 501 65 b 1107 464 933 65 1071 221 l 1126 464 b 663 -18 1092 181 935 -18 b 197 429 393 -18 228 174 l 56 429 l 56 458 l 194 458 b 192 517 193 478 192 497 b 194 581 192 539 193 560 l 56 581 "},"₺":{"ha":1031,"x_min":0,"x_max":0,"o":"m 86 10 b 208 186 193 24 208 60 l 208 343 l 56 272 l 56 306 l 208 376 l 208 492 l 56 421 l 56 454 l 208 525 l 208 865 b 86 1042 208 1001 193 1028 l 86 1051 l 485 1051 l 485 1042 b 363 865 378 1028 363 1001 l 363 596 l 726 765 l 726 732 l 363 563 l 363 447 l 726 615 l 726 582 l 363 414 l 363 35 l 508 33 b 857 432 767 33 857 179 l 1000 432 b 508 0 1000 144 817 0 l 86 0 "},"₹":{"ha":908,"x_min":0,"x_max":0,"o":"m 64 564 l 64 592 l 208 592 b 501 792 371 592 494 640 l 64 792 l 64 822 l 501 822 b 208 1022 493 969 371 1022 l 64 1022 l 64 1051 l 889 1051 l 883 1022 l 464 1022 b 656 822 571 996 649 933 l 840 822 l 835 792 l 656 792 b 290 568 646 632 485 568 l 189 568 l 713 8 l 713 0 l 524 0 "},"£":{"ha":993,"x_min":0,"x_max":0,"o":"m 189 -19 b 39 104 97 -19 39 28 b 176 228 39 179 94 228 b 353 163 246 228 299 201 b 368 268 363 194 368 231 b 314 474 368 347 344 413 l 72 474 l 72 503 l 300 503 b 200 793 253 593 200 679 b 522 1065 200 958 332 1065 b 893 744 725 1065 860 949 l 756 744 b 531 1040 739 918 682 1040 b 349 844 419 1040 349 976 b 439 503 349 726 403 624 l 940 503 l 940 474 l 447 474 b 468 315 460 425 468 372 b 419 114 468 235 450 167 b 607 51 474 79 535 51 b 807 350 733 51 807 149 l 940 350 b 633 -17 940 96 810 -17 b 392 74 538 -17 458 26 b 189 -19 340 13 267 -19 m 64 101 b 174 15 64 44 106 15 b 335 117 249 15 303 56 b 163 186 281 156 229 186 b 64 101 99 186 64 156 "},"¥":{"ha":1001,"x_min":0,"x_max":0,"o":"m 75 504 l 406 504 l 163 938 b 29 1042 118 1018 99 1032 l 29 1051 l 428 1051 l 428 1042 b 347 933 331 1033 314 996 l 568 528 l 775 933 b 701 1042 807 996 803 1033 l 701 1051 l 944 1051 l 944 1042 b 813 933 888 1033 856 1018 l 593 504 l 932 504 l 932 475 l 579 475 l 579 364 l 932 364 l 932 335 l 579 335 l 579 186 b 701 10 579 60 594 24 l 701 0 l 299 0 l 299 10 b 421 186 406 24 421 60 l 421 335 l 75 335 l 75 364 l 421 364 l 421 475 l 75 475 "},"∙":{"ha":813,"x_min":0,"x_max":0,"o":"m 407 394 b 264 538 326 394 264 457 b 407 679 264 617 326 679 b 549 538 486 679 549 617 b 407 394 549 457 486 394 "},"+":{"ha":797,"x_min":0,"x_max":0,"o":"m 378 342 l 88 342 l 88 379 l 379 379 l 379 693 l 419 693 l 419 379 l 710 379 l 710 343 l 418 343 l 418 29 l 378 29 "},"−":{"ha":797,"x_min":0,"x_max":0,"o":"m 88 379 l 710 379 l 710 343 l 88 342 "},"×":{"ha":797,"x_min":0,"x_max":0,"o":"m 156 157 l 374 374 l 156 590 l 182 617 l 400 400 l 617 617 l 642 590 l 425 374 l 642 157 l 617 131 l 400 347 l 182 131 "},"÷":{"ha":797,"x_min":0,"x_max":0,"o":"m 88 379 l 710 379 l 710 343 l 88 342 m 357 178 l 440 178 l 440 49 l 357 49 m 357 672 l 440 672 l 440 544 l 357 544 "},"=":{"ha":797,"x_min":0,"x_max":0,"o":"m 88 493 l 710 493 l 710 457 l 88 456 m 88 264 l 710 264 l 710 228 l 88 226 "},"≠":{"ha":797,"x_min":0,"x_max":0,"o":"m 149 -15 l 288 226 l 88 226 l 88 264 l 308 264 l 419 457 l 88 456 l 88 493 l 440 493 l 586 747 l 614 733 l 475 493 l 710 493 l 710 457 l 454 457 l 343 264 l 710 264 l 710 228 l 322 226 l 175 -29 "},">":{"ha":797,"x_min":0,"x_max":0,"o":"m 97 163 l 657 360 l 97 557 l 97 599 l 719 375 l 719 346 l 97 121 "},"<":{"ha":797,"x_min":0,"x_max":0,"o":"m 78 346 l 78 375 l 700 599 l 700 557 l 140 360 l 700 163 l 700 121 "},"≥":{"ha":797,"x_min":0,"x_max":0,"o":"m 97 190 l 657 388 l 97 585 l 97 626 l 719 403 l 719 374 l 97 149 m 97 36 l 719 38 l 719 0 l 97 0 "},"≤":{"ha":797,"x_min":0,"x_max":0,"o":"m 78 374 l 78 403 l 700 626 l 700 585 l 140 388 l 700 190 l 700 149 m 78 38 l 700 36 l 700 0 l 78 0 "},"±":{"ha":797,"x_min":0,"x_max":0,"o":"m 88 38 l 378 38 l 378 332 l 88 332 l 88 369 l 379 369 l 379 683 l 419 683 l 419 369 l 710 369 l 710 333 l 418 333 l 418 38 l 710 38 l 710 0 l 88 0 "},"≈":{"ha":797,"x_min":0,"x_max":0,"o":"m 85 369 b 243 553 85 492 151 553 b 553 408 390 553 424 408 b 672 553 639 408 672 474 l 713 553 b 554 369 713 431 646 369 b 244 514 401 369 376 514 b 125 369 157 514 125 449 l 85 369 m 85 126 b 243 310 85 249 151 310 b 553 165 390 310 424 165 b 672 310 639 165 672 231 l 713 310 b 554 126 713 188 646 126 b 244 271 401 126 376 271 b 125 126 157 271 125 206 l 85 126 "},"¬":{"ha":789,"x_min":0,"x_max":0,"o":"m 658 415 l 78 415 l 78 451 l 700 453 l 700 111 l 658 111 "},"~":{"ha":797,"x_min":0,"x_max":0,"o":"m 85 267 b 243 450 85 389 151 450 b 553 306 390 450 424 306 b 672 450 639 306 672 371 l 713 450 b 554 267 713 328 646 267 b 244 411 401 267 376 411 b 125 267 157 411 125 346 l 85 267 "},"^":{"ha":797,"x_min":0,"x_max":0,"o":"m 381 1086 l 417 1086 l 624 529 l 578 529 l 399 1029 l 219 529 l 174 529 "},"∞":{"ha":1388,"x_min":0,"x_max":0,"o":"m 1058 92 b 696 325 938 92 847 156 l 694 328 l 692 325 b 329 92 539 154 449 92 b 97 364 203 92 97 174 b 329 638 97 554 203 638 b 689 403 449 638 535 574 l 694 397 l 699 403 b 1058 638 851 571 938 638 b 1290 364 1185 638 1290 554 b 1058 92 1290 174 1185 92 m 138 364 b 326 128 138 190 229 128 b 646 343 421 128 499 179 l 663 363 l 644 383 b 326 600 497 550 421 600 b 138 364 229 600 138 538 m 742 343 b 1061 128 883 185 963 128 b 1250 364 1158 128 1250 190 b 1061 600 1250 538 1158 600 b 743 383 963 600 885 543 l 725 363 "},"∫":{"ha":513,"x_min":0,"x_max":0,"o":"m -56 -203 l 15 -203 b 214 42 138 -203 203 -144 l 263 817 b 503 1104 275 1015 346 1104 l 568 1104 l 568 1063 l 499 1063 b 300 817 376 1063 313 1007 l 251 42 b 15 -244 239 -157 168 -244 l -56 -244 "},"∆":{"ha":896,"x_min":0,"x_max":0,"o":"m 388 1051 l 503 1051 l 900 0 l -4 0 m 708 29 l 385 958 l 44 29 "},"∏":{"ha":1001,"x_min":0,"x_max":0,"o":"m 217 875 b 42 1031 217 999 193 1017 l 42 1051 l 960 1051 l 960 1031 b 789 875 811 1017 789 999 l 789 -229 l 656 -229 l 656 1010 l 349 1010 l 349 -229 l 217 -229 l 217 875 "},"∑":{"ha":835,"x_min":0,"x_max":0,"o":"m 35 -92 l 489 454 l 61 988 l 61 1051 l 778 1051 l 778 918 b 439 1028 613 1001 529 1028 l 164 1028 l 569 521 l 569 494 l 143 -19 l 803 -19 l 803 -143 l 35 -143 "},"√":{"ha":790,"x_min":0,"x_max":0,"o":"m 139 451 l 10 451 l 10 503 l 225 503 l 431 -143 l 865 1179 l 904 1179 l 432 -231 l 371 -231 "},"µ":{"ha":836,"x_min":0,"x_max":0,"o":"m 256 -279 b 96 -14 165 -242 96 -158 l 96 493 b 7 669 96 619 85 656 l 7 679 l 326 679 l 326 669 b 238 493 249 656 238 619 l 238 225 b 372 40 238 94 279 40 b 571 260 475 40 546 138 l 571 493 b 482 669 571 619 560 656 l 482 679 l 800 679 l 800 669 b 711 493 722 656 711 619 l 711 143 b 772 46 711 78 732 46 b 840 75 803 46 819 57 l 843 57 b 700 -11 800 15 760 -11 b 571 149 628 -11 571 42 l 571 182 b 335 -24 538 75 457 -24 b 232 4 293 -24 258 -14 l 232 -42 b 290 -279 232 -174 250 -236 l 256 -279 "},"∂":{"ha":894,"x_min":0,"x_max":0,"o":"m 400 -19 b 67 300 207 -19 67 99 b 417 674 67 544 231 674 b 679 465 554 674 651 590 b 236 1047 678 801 540 1006 l 240 1069 b 828 472 607 1040 828 808 b 400 -19 828 207 671 -19 m 211 268 b 399 10 211 119 269 10 b 667 318 538 10 633 140 l 664 314 b 468 618 693 478 610 618 b 211 268 315 618 211 479 "},"%":{"ha":1036,"x_min":0,"x_max":0,"o":"m 889 1051 l 928 1051 l 146 0 l 108 0 m 44 847 b 274 1065 44 981 140 1065 b 504 847 407 1065 504 981 b 274 628 504 717 407 628 b 44 847 140 628 44 717 m 142 847 b 274 642 142 710 188 642 b 406 847 358 642 406 710 b 274 1051 406 985 358 1051 b 142 847 188 1051 142 985 m 532 206 b 761 424 532 339 628 424 b 992 206 894 424 992 339 b 761 -14 992 75 894 -14 b 532 206 628 -14 532 75 m 629 206 b 761 0 629 68 675 0 b 893 206 846 0 893 68 b 761 410 893 343 846 410 b 629 206 675 410 629 343 "},"‰":{"ha":1571,"x_min":0,"x_max":0,"o":"m 889 1051 l 928 1051 l 146 0 l 108 0 m 44 847 b 274 1065 44 981 140 1065 b 504 847 407 1065 504 981 b 274 628 504 717 407 628 b 44 847 140 628 44 717 m 142 847 b 274 642 142 710 188 642 b 406 847 358 642 406 710 b 274 1051 406 985 358 1051 b 142 847 188 1051 142 985 m 532 206 b 761 424 532 339 628 424 b 992 206 894 424 992 339 b 761 -14 992 75 894 -14 b 532 206 628 -14 532 75 m 629 206 b 761 0 629 68 675 0 b 893 206 846 0 893 68 b 761 410 893 343 846 410 b 629 206 675 410 629 343 m 1067 208 b 1296 426 1067 342 1163 426 b 1526 208 1429 426 1526 342 b 1296 -11 1526 78 1429 -11 b 1067 208 1163 -11 1067 78 m 1164 208 b 1296 3 1164 71 1210 3 b 1428 208 1381 3 1428 71 b 1296 413 1428 346 1381 413 b 1164 208 1210 413 1164 346 "},"↑":{"ha":739,"x_min":0,"x_max":0,"o":"m 626 393 l 381 811 l 404 -19 l 336 -19 l 360 814 l 113 393 l 60 428 l 369 858 l 681 428 "},"↗":{"ha":718,"x_min":0,"x_max":0,"o":"m 521 146 l 642 615 l 72 11 l 24 60 l 631 632 l 158 510 l 144 571 l 668 657 l 583 132 "},"→":{"ha":1004,"x_min":0,"x_max":0,"o":"m 478 104 l 896 350 l 65 326 l 65 394 l 899 371 l 478 618 l 513 671 l 943 361 l 513 50 "},"↘":{"ha":722,"x_min":0,"x_max":0,"o":"m 674 11 l 150 97 l 164 158 l 636 36 l 29 608 l 78 657 l 647 53 l 526 522 l 589 536 "},"↓":{"ha":732,"x_min":0,"x_max":0,"o":"m 365 -21 l 56 410 l 108 444 l 356 24 l 332 857 l 400 857 l 376 26 l 622 444 l 676 410 "},"↙":{"ha":721,"x_min":0,"x_max":0,"o":"m 197 521 l 76 51 l 646 656 l 694 607 l 88 35 l 560 157 l 574 96 l 50 10 l 135 535 "},"←":{"ha":1004,"x_min":0,"x_max":0,"o":"m 61 361 l 492 671 l 526 618 l 106 371 l 939 394 l 939 326 l 108 350 l 526 104 l 492 50 "},"↖":{"ha":721,"x_min":0,"x_max":0,"o":"m 49 657 l 572 571 l 558 510 l 86 632 l 693 60 l 644 11 l 75 615 l 196 146 l 133 132 "},"↔":{"ha":1118,"x_min":0,"x_max":0,"o":"m 58 361 l 467 671 l 496 615 l 117 378 l 1001 378 l 622 615 l 651 671 l 1060 361 l 651 50 l 622 106 l 1001 343 l 117 343 l 496 106 l 467 50 "},"↕":{"ha":753,"x_min":0,"x_max":0,"o":"m 378 997 l 688 589 l 632 560 l 394 939 l 394 54 l 632 433 l 688 404 l 378 -4 l 67 404 l 122 433 l 360 54 l 360 939 l 122 560 l 67 589 "},"●":{"ha":1269,"x_min":0,"x_max":0,"o":"m 635 -14 b 1199 536 967 -14 1199 214 b 635 1085 1199 857 967 1085 b 71 536 303 1085 71 857 b 635 -14 71 214 303 -14 "},"○":{"ha":1269,"x_min":0,"x_max":0,"o":"m 635 -19 b 65 536 300 -19 65 211 b 635 1090 65 860 300 1090 b 1204 536 969 1090 1204 860 b 635 -19 1204 211 969 -19 m 96 536 b 635 10 96 228 318 10 b 1174 536 951 10 1174 228 b 635 1061 1174 843 951 1061 b 96 536 318 1061 96 843 "},"◊":{"ha":767,"x_min":0,"x_max":0,"o":"m 69 526 l 371 1053 l 397 1053 l 697 526 l 396 0 l 369 0 m 411 76 l 640 478 l 356 976 l 126 575 "},"̈":{"ha":0,"x_min":0,"x_max":0,"o":"m 303 996 l 421 996 l 421 844 l 303 844 m 69 996 l 188 996 l 188 844 l 69 844 "},"̇":{"ha":0,"x_min":0,"x_max":0,"o":"m 69 1007 l 211 1007 l 211 850 l 69 850 "},"̀":{"ha":0,"x_min":0,"x_max":0,"o":"m 69 1050 l 189 1050 l 332 804 l 314 804 "},"́":{"ha":0,"x_min":0,"x_max":0,"o":"m 213 1050 l 332 1050 l 89 804 l 69 804 "},"̋":{"ha":0,"x_min":0,"x_max":0,"o":"m 374 1050 l 490 1050 l 279 804 l 261 804 m 176 1050 l 290 1050 l 79 804 l 63 804 "},"̂":{"ha":0,"x_min":0,"x_max":0,"o":"m 228 1025 l 275 1025 l 433 804 l 411 804 l 251 943 l 92 804 l 69 804 "},"̌":{"ha":0,"x_min":0,"x_max":0,"o":"m 69 1050 l 92 1050 l 271 888 l 449 1050 l 471 1050 l 299 804 l 242 804 "},"̆":{"ha":0,"x_min":0,"x_max":0,"o":"m 275 804 b 99 1028 175 804 99 882 l 126 1028 b 275 874 126 935 169 874 b 424 1028 381 874 424 935 l 451 1028 b 275 804 451 882 375 804 "},"̊":{"ha":0,"x_min":0,"x_max":0,"o":"m 206 804 b 69 933 125 804 69 857 b 206 1063 69 1010 125 1063 b 342 933 285 1063 342 1010 b 206 804 342 857 285 804 m 104 933 b 206 832 104 872 144 832 b 307 933 267 832 307 872 b 206 1035 307 994 267 1035 b 104 933 144 1035 104 994 "},"̃":{"ha":0,"x_min":0,"x_max":0,"o":"m 81 817 b 194 1032 81 976 132 1032 b 404 882 306 1032 313 882 b 471 1018 454 882 471 929 l 494 1018 b 386 803 494 853 450 803 b 174 942 272 803 263 942 b 104 817 121 942 104 893 l 81 817 "},"̄":{"ha":0,"x_min":0,"x_max":0,"o":"m 69 896 l 504 896 l 504 851 l 69 851 "},"̒":{"ha":0,"x_min":0,"x_max":0,"o":"m 215 1057 l 233 1057 l 182 807 l 69 807 "},"̦":{"ha":0,"x_min":0,"x_max":0,"o":"m 69 -332 l 149 -83 l 269 -83 l 82 -336 "},"̧":{"ha":0,"x_min":0,"x_max":0,"o":"m 286 -335 b 113 -253 217 -335 147 -310 l 128 -240 b 265 -303 153 -279 203 -303 b 365 -224 315 -303 365 -285 b 264 -143 365 -171 325 -143 b 203 -153 243 -143 226 -146 l 190 -136 l 289 1 l 331 1 l 263 -94 b 301 -92 275 -93 288 -92 b 444 -210 388 -92 444 -137 b 286 -335 444 -301 357 -335 "},"̨":{"ha":0,"x_min":0,"x_max":0,"o":"m 264 -328 b 140 -204 199 -328 140 -287 b 310 4 140 -97 240 -24 l 321 0 b 215 -185 278 -29 215 -94 b 303 -283 215 -244 247 -283 b 393 -217 338 -283 374 -258 l 393 -240 b 264 -328 367 -293 319 -328 "},"¨":{"ha":490,"x_min":0,"x_max":0,"o":"m 303 996 l 421 996 l 421 844 l 303 844 m 69 996 l 188 996 l 188 844 l 69 844 "},"˙":{"ha":281,"x_min":0,"x_max":0,"o":"m 69 1007 l 211 1007 l 211 850 l 69 850 "},"`":{"ha":401,"x_min":0,"x_max":0,"o":"m 69 1050 l 189 1050 l 332 804 l 314 804 "},"´":{"ha":401,"x_min":0,"x_max":0,"o":"m 213 1050 l 332 1050 l 89 804 l 69 804 "},"˝":{"ha":567,"x_min":0,"x_max":0,"o":"m 381 1050 l 497 1050 l 286 804 l 268 804 m 183 1050 l 297 1050 l 86 804 l 69 804 "},"ˆ":{"ha":503,"x_min":0,"x_max":0,"o":"m 228 1025 l 275 1025 l 433 804 l 411 804 l 251 943 l 92 804 l 69 804 "},"ˇ":{"ha":540,"x_min":0,"x_max":0,"o":"m 69 1050 l 92 1050 l 271 888 l 449 1050 l 471 1050 l 299 804 l 242 804 "},"˘":{"ha":492,"x_min":0,"x_max":0,"o":"m 246 804 b 69 1028 146 804 69 882 l 97 1028 b 246 874 97 935 140 874 b 394 1028 351 874 394 935 l 422 1028 b 246 804 422 882 346 804 "},"˚":{"ha":411,"x_min":0,"x_max":0,"o":"m 206 804 b 69 933 125 804 69 857 b 206 1063 69 1010 125 1063 b 342 933 285 1063 342 1010 b 206 804 342 857 285 804 m 104 933 b 206 832 104 872 144 832 b 307 933 267 832 307 872 b 206 1035 307 994 267 1035 b 104 933 144 1035 104 994 "},"˜":{"ha":553,"x_min":0,"x_max":0,"o":"m 69 817 b 183 1032 69 976 121 1032 b 393 882 294 1032 301 882 b 460 1018 443 882 460 929 l 483 1018 b 375 803 483 853 439 803 b 163 942 261 803 251 942 b 93 817 110 942 93 893 l 69 817 "},"¯":{"ha":574,"x_min":0,"x_max":0,"o":"m 69 896 l 504 896 l 504 851 l 69 851 "},"¸":{"ha":471,"x_min":0,"x_max":0,"o":"m 243 -335 b 69 -253 174 -335 104 -310 l 85 -240 b 222 -303 110 -279 160 -303 b 322 -224 272 -303 322 -285 b 221 -143 322 -171 282 -143 b 160 -153 200 -143 183 -146 l 147 -136 l 246 1 l 288 1 l 219 -94 b 258 -92 232 -93 244 -92 b 401 -210 344 -92 401 -137 b 243 -335 401 -301 314 -335 "},"˛":{"ha":392,"x_min":0,"x_max":0,"o":"m 193 -328 b 69 -204 128 -328 69 -287 b 239 4 69 -97 169 -24 l 250 0 b 144 -185 207 -29 144 -94 b 232 -283 144 -244 176 -283 b 322 -217 267 -283 303 -258 l 322 -240 b 193 -328 296 -293 249 -328 "}}}
